<?xml version="1.0" encoding="UTF-8" standalone="no"?>
<!-- Created with Inkscape (http://www.inkscape.org/) -->

<svg
   version="1.0"
   width="255"
   height="360"
   id="svg2"
   sodipodi:docname="antibody.svg"
   inkscape:version="1.4.4 (dcaf3e7d9e, 2026-05-05)"
   inkscape:export-filename="antibody.png"
   inkscape:export-xdpi="96"
   inkscape:export-ydpi="96"
   xmlns:inkscape="http://www.inkscape.org/namespaces/inkscape"
   xmlns:sodipodi="http://sodipodi.sourceforge.net/DTD/sodipodi-0.dtd"
   xmlns:xlink="http://www.w3.org/1999/xlink"
   xmlns="http://www.w3.org/2000/svg"
   xmlns:svg="http://www.w3.org/2000/svg"
   xmlns:rdf="http://www.w3.org/1999/02/22-rdf-syntax-ns#"
   xmlns:cc="http://creativecommons.org/ns#"
   xmlns:dc="http://purl.org/dc/elements/1.1/">
  <sodipodi:namedview
     id="namedview1"
     pagecolor="#ffffff"
     bordercolor="#000000"
     borderopacity="0.25"
     inkscape:showpageshadow="2"
     inkscape:pageopacity="0.0"
     inkscape:pagecheckerboard="0"
     inkscape:deskcolor="#d1d1d1"
     inkscape:zoom="1.7818538"
     inkscape:cx="18.800644"
     inkscape:cy="183.23613"
     inkscape:window-width="1854"
     inkscape:window-height="1131"
     inkscape:window-x="0"
     inkscape:window-y="0"
     inkscape:window-maximized="1"
     inkscape:current-layer="svg2" />
  <metadata
     id="metadata89">
    <rdf:RDF>
      <cc:Work
         rdf:about="">
        <dc:format>image/svg+xml</dc:format>
        <dc:type
           rdf:resource="http://purl.org/dc/dcmitype/StillImage" />
      </cc:Work>
    </rdf:RDF>
  </metadata>
  <defs
     id="defs4">
    <linearGradient
       id="linearGradient3">
      <stop
         id="stop1"
         style="stop-color:#e31578;stop-opacity:1;"
         offset="0" />
      <stop
         id="stop2"
         style="stop-color:#e3a9c5;stop-opacity:1;"
         offset="0.5" />
      <stop
         id="stop3"
         style="stop-color:#e31578;stop-opacity:1;"
         offset="1" />
    </linearGradient>
    <linearGradient
       id="linearGradient8210">
      <stop
         id="stop8212"
         style="stop-color:#e3a9c5;stop-opacity:1;"
         offset="0" />
      <stop
         id="stop8214"
         style="stop-color:#e3d8dd;stop-opacity:1;"
         offset="0.5" />
      <stop
         id="stop8216"
         style="stop-color:#e3a9c5;stop-opacity:1;"
         offset="1" />
    </linearGradient>
    <linearGradient
       id="linearGradient4120">
      <stop
         id="stop4122"
         style="stop-color:#e31578;stop-opacity:1;"
         offset="0" />
      <stop
         id="stop4128"
         style="stop-color:#e3a9c5;stop-opacity:1;"
         offset="0.5" />
      <stop
         id="stop4124"
         style="stop-color:#e31578;stop-opacity:1;"
         offset="1" />
    </linearGradient>
    <linearGradient
       x1="108.75"
       y1="444.23718"
       x2="122.67857"
       y2="444.23718"
       id="linearGradient2428"
       xlink:href="#linearGradient3"
       gradientUnits="userSpaceOnUse"
       gradientTransform="matrix(-1.0000001,0,0,-1.0000001,232.35815,697.98041)" />
    <linearGradient
       x1="108.75"
       y1="444.23718"
       x2="122.67857"
       y2="444.23718"
       id="linearGradient2432"
       xlink:href="#linearGradient4120"
       gradientUnits="userSpaceOnUse"
       gradientTransform="matrix(-0.7071068,0.7071068,0.7071068,0.7071068,-148.40798,-223.89509)" />
    <linearGradient
       x1="108.75"
       y1="444.23718"
       x2="122.67857"
       y2="444.23718"
       id="linearGradient2437"
       xlink:href="#linearGradient8210"
       gradientUnits="userSpaceOnUse"
       gradientTransform="translate(-202.11367,-263.25804)" />
  </defs>
  <use
     transform="matrix(-1,0,0,1,270.78705,0)"
     id="use2453"
     x="0"
     y="0"
     width="255"
     height="360"
     xlink:href="#rect2170" />
  <use
     transform="matrix(-1,0,0,1,270.78705,0)"
     id="use2455"
     x="0"
     y="0"
     width="255"
     height="360"
     xlink:href="#rect4130" />
  <use
     transform="matrix(-1,0,0,1,270.78705,0)"
     id="use2457"
     x="0"
     y="0"
     width="255"
     height="360"
     xlink:href="#path5103"
     style="fill:#e01576;fill-opacity:0.69999999;stroke:#950e4f;stroke-opacity:1" />
  <use
     transform="matrix(-1,0,0,1,270.78705,0)"
     id="use2459"
     x="0"
     y="0"
     width="255"
     height="360"
     xlink:href="#rect6095" />
  <use
     transform="matrix(-1,0,0,1,270.78705,0)"
     id="use2461"
     x="0"
     y="0"
     width="255"
     height="360"
     xlink:href="#path6099"
     style="fill:#e01577;fill-opacity:1;stroke:#950e4f;stroke-opacity:1" />
  <use
     transform="matrix(-1,0,0,1,270.78705,0)"
     id="use2463"
     x="0"
     y="0"
     width="255"
     height="360"
     xlink:href="#path6120" />
  <use
     transform="matrix(-1,0,0,1,270.78705,0)"
     id="use2465"
     x="0"
     y="0"
     width="255"
     height="360"
     xlink:href="#path6097" />
  <path
     d="m 38.044696,113.78073 -7.819491,-7.8195 -27.608938,27.60894 7.819492,7.81949 2.44741,-2.4459 c 3.600531,3.55477 9.065034,3.58728 12.411545,0.24077 3.346499,-3.34648 7.19838,-7.19836 10.54487,-10.54486 3.34651,-3.34651 3.313987,-8.81101 -0.263165,-12.38817 l 2.468277,-2.47077 z"
     inkscape:connector-curvature="0"
     id="path9250"
     style="color:#000000;fill:#e01577;fill-opacity:1;fill-rule:nonzero;stroke:#950e4f;stroke-width:1px;stroke-linecap:butt;stroke-linejoin:miter;stroke-miterlimit:4;stroke-opacity:1;stroke-dashoffset:0;marker:none;visibility:visible;display:inline;overflow:visible;enable-background:accumulate" />
  <path
     d="m 61.460778,32.62198 39.044932,0 0,11.05843 -39.044932,0 0,-11.05843 z m 4.949746,7.76584 29.14544,0 0,8.25467 -29.14544,0 0,-8.25467 z m 7.07106,8.01309 15.0033,0 0,5.22156 -15.0033,0 0,-5.22156 z"
     inkscape:connector-curvature="0"
     id="rect8257"
     style="color:#000000;fill:#892ca0;fill-opacity:1;fill-rule:nonzero;stroke:none;stroke-width:1px;marker:none;visibility:visible;display:inline;overflow:visible;enable-background:accumulate" />
  <path
     d="m 144.76431,53.18692 6.95455,-5.05278 0,-4.98885 5.14686,0 0,-10.02134 -38.28502,0 0,10.02134 5.14686,0 0,4.98885 6.95455,5.05278 14.0822,0 z"
     inkscape:connector-curvature="0"
     id="path9255"
     style="color:#000000;fill:#c83737;fill-opacity:1;fill-rule:nonzero;stroke:#c83737;stroke-width:0.94327486px;stroke-linecap:butt;stroke-linejoin:miter;stroke-miterlimit:4;stroke-opacity:1;stroke-dashoffset:0;marker:none;visibility:visible;display:inline;overflow:visible;enable-background:accumulate" />
  <path
     d="m 174.94068,32.62198 39.04493,0 0,11.05843 -19.52246,9.0819 -19.52247,-9.0819 0,-11.05843 z"
     inkscape:connector-curvature="0"
     id="path10231"
     style="color:#000000;fill:#aa004e;fill-opacity:1;fill-rule:nonzero;stroke:none;stroke-width:1px;marker:none;visibility:visible;display:inline;overflow:visible;enable-background:accumulate" />
  <path
     d="m 61.238243,59.66883 39.044927,0 0,11.05843 -39.044927,0 0,-11.05843 z m 35.552491,10.84145 c 0,5.05886 -3.84099,9.1646 -8.57367,9.1646 -4.73266,0 -10.18004,0 -14.9127,0 -4.73268,0 -8.57367,-4.10574 -8.57367,-9.1646"
     inkscape:connector-curvature="0"
     id="rect9232"
     style="color:#000000;fill:#e01577;fill-opacity:1;fill-rule:nonzero;stroke:none;stroke-width:1px;marker:none;visibility:visible;display:inline;overflow:visible;enable-background:accumulate;stroke-opacity:1" />
  <path
     d="m 142.42279,79.15846 c 0.13259,-1.50261 1.10486,-4.81717 4.81717,-4.86136 3.97719,-0.04792 5.74524,-3.51897 5.74524,-3.51897 l 0,-0.63529 4.03272,0 0,-9.98788 -39.0345,0 0,9.98788 4.03272,0 0,0.63529 c 0,0 1.76805,3.47105 5.74524,3.51897 3.71231,0.04419 4.68458,3.35875 4.81717,4.86136 l 9.84424,0 z"
     inkscape:connector-curvature="0"
     id="path10233"
     style="fill:#ff76d7;fill-opacity:1;fill-rule:evenodd;stroke:none;stroke-width:1px;stroke-linecap:butt;stroke-linejoin:miter;stroke-opacity:1" />
  <path
     d="m 199.74277,79.15844 c 0,-4.80584 3.90041,-9.01561 8.70626,-9.01561 l 5.25911,0 0,-9.97682 -38.93507,0 0,9.97682 5.25911,0 c 4.80585,0 8.70626,4.20977 8.70626,9.01561 l 11.00433,0 z"
     inkscape:connector-curvature="0"
     id="path11211"
     style="color:#000000;fill:#d35fc4;fill-opacity:1;fill-rule:nonzero;stroke:none;stroke-width:0.99999994px;stroke-linecap:butt;stroke-linejoin:miter;stroke-miterlimit:4;stroke-opacity:1;stroke-dashoffset:0;marker:none;visibility:visible;display:inline;overflow:visible;enable-background:accumulate" />
  <text
     x="103.03276"
     y="18.711672"
     id="text12212"
     xml:space="preserve"
     style="font-size:18px;font-family:Arial"><tspan
       x="103.03276"
       y="18.711672"
       id="tspan12214"
       style="font-size:18px">Antigene</tspan></text>
  <text
     x="94.764687"
     y="350.38501"
     id="text12216"
     xml:space="preserve"
     style="font-size:18px;font-family:Arial"><tspan
       x="94.764687"
       y="350.38501"
       id="tspan12218"
       style="font-size:18px">Antikörper</tspan></text>
  <text
     x="43.092396"
     y="110.71167"
     id="text12226"
     xml:space="preserve"
     style="font-size:10px;font-family:Arial"><tspan
       x="43.092396"
       y="110.71167"
       id="tspan12228"
       style="font-size:10px">Antigen</tspan></text>
  <text
     x="66.84874"
     y="134.23853"
     id="text12234"
     xml:space="preserve"
     style="font-size:10px;font-family:Arial"><tspan
       x="66.84874"
       y="134.23853"
       id="tspan12236"
       style="font-size:10px">Antigen-Bindestelle</tspan></text>
  <path
     d="m 24.287338,128.765 17.500894,17.50089"
     inkscape:connector-curvature="0"
     id="path12258"
     style="fill:none;stroke:#000000;stroke-width:1;stroke-linecap:butt;stroke-linejoin:miter;stroke-miterlimit:4;stroke-opacity:1;stroke-dasharray:none" />
  <rect
     width="13.928572"
     height="54.82143"
     x="-93.363617"
     y="153.56847"
     transform="matrix(0.7071068,-0.7071068,0.7071068,0.7071068,0,0)"
     id="rect2170"
     style="color:#000000;fill:url(#linearGradient2437);fill-opacity:1;fill-rule:nonzero;stroke:none;stroke-width:1px;marker:none;visibility:visible;display:inline;overflow:visible;enable-background:accumulate" />
  <path
     d="m 52.420243,164.75837 38.764611,38.7646 -9.84899,9.84899 -38.764607,-38.76461"
     inkscape:connector-curvature="0"
     id="rect4130"
     style="color:#000000;fill:none;stroke:#c71369;stroke-width:1px;stroke-linecap:butt;stroke-linejoin:miter;stroke-miterlimit:4;stroke-opacity:1;stroke-dashoffset:0;marker:none;visibility:visible;display:inline;overflow:visible;enable-background:accumulate" />
  <path
     d="m 18.403322,150.43942 3.139074,-3.11821 1.16073,1.16073 c 2.79467,2.79467 7.330929,2.79467 10.125585,1e-5 l 1.634456,-1.68066 17.653996,17.654 -9.848986,9.84898 -23.864855,-23.86485 z"
     inkscape:connector-curvature="0"
     id="path5103"
     style="color:#000000;fill:#e01576;fill-opacity:0.69999999;fill-rule:nonzero;stroke:#950e4f;stroke-width:1px;stroke-linecap:butt;stroke-linejoin:miter;stroke-miterlimit:4;stroke-opacity:1;stroke-dashoffset:0;marker:none;visibility:visible;display:inline;overflow:visible;enable-background:accumulate" />
  <path
     d="m 69.435004,147.74361 -9.84899,9.84899 49.878956,50.18016 14.15971,-5.83946 -54.189676,-54.18969 z"
     inkscape:connector-curvature="0"
     id="rect6095"
     style="color:#000000;fill:url(#linearGradient2432);fill-opacity:1;fill-rule:nonzero;stroke:none;stroke-width:1px;marker:none;visibility:visible;display:inline;overflow:visible;enable-background:accumulate" />
  <path
     d="m 45.267066,123.57568 -3.118213,3.13907 1.160729,1.16073 c 2.79467,2.79467 2.79467,7.33093 1.5e-5,10.12558 l -1.680659,1.63446 17.653996,17.654 9.84899,-9.84899 -23.864858,-23.86485 z"
     inkscape:connector-curvature="0"
     id="path6099"
     style="color:#000000;fill:#e01577;fill-opacity:1;fill-rule:nonzero;stroke:#950e4f;stroke-width:1px;stroke-linecap:butt;stroke-linejoin:miter;stroke-miterlimit:4;stroke-opacity:1;stroke-dashoffset:0;marker:none;visibility:visible;display:inline;overflow:visible;enable-background:accumulate" />
  <path
     d="m 123.60814,315.09502 -13.92857,0 0,-107.41397 13.90123,-5.73046 0.0273,113.14443 z"
     inkscape:connector-curvature="0"
     id="path6120"
     style="color:#000000;fill:url(#linearGradient2428);fill-opacity:1;fill-rule:nonzero;stroke:none;stroke-width:1px;marker:none;visibility:visible;display:inline;overflow:visible;enable-background:accumulate" />
  <path
     d="m 69.435004,147.74361 54.173186,54.1732 -5e-5,113.26659 -13.92857,0 0.001,-107.4939 -50.094746,-50.0969"
     inkscape:connector-curvature="0"
     id="path6097"
     style="color:#000000;fill:none;stroke:#c71369;stroke-width:1px;stroke-linecap:butt;stroke-linejoin:miter;stroke-miterlimit:4;stroke-opacity:1;stroke-dashoffset:0;marker:none;visibility:visible;display:inline;overflow:visible;enable-background:accumulate" />
  <path
     d="m 38.41796,146.79208 2.611134,-1.28532 1.285318,-2.61114 1.426205,5.32266 -5.322657,-1.4262 z"
     inkscape:connector-curvature="0"
     id="path13231"
     style="color:#000000;fill:#000000;fill-opacity:1;fill-rule:nonzero;stroke:none;stroke-width:2;marker:none;visibility:visible;display:inline;overflow:visible;enable-background:accumulate" />
  <path
     d="m 66.029894,130.28699 -1.09375,0.125 -14.28125,1.5 0.125,1 13.09375,-1.375 -22.40625,30.875 0.8125,0.59375 23.09375,-31.8125 0.65625,-0.90625 z"
     inkscape:connector-curvature="0"
     id="path15180"
     style="fill:none;stroke:#ffffff;stroke-width:2;stroke-linecap:butt;stroke-linejoin:miter;stroke-miterlimit:4;stroke-opacity:1;stroke-dasharray:none" />
  <path
     d="m 50.717394,132.39917 14.26323,-1.49912 -23.102585,31.79798"
     inkscape:connector-curvature="0"
     id="path15178"
     style="fill:none;stroke:#000000;stroke-width:1px;stroke-linecap:butt;stroke-linejoin:miter;stroke-opacity:1" />
</svg>
