<?xml version="1.0" encoding="UTF-8" standalone="no"?>
<!-- Created with Inkscape (http://www.inkscape.org/) -->

<svg
   width="670"
   height="470"
   viewBox="0 0 670 470"
   version="1.1"
   id="svg1"
   xml:space="preserve"
   inkscape:version="1.4.4 (dcaf3e7d9e, 2026-05-05)"
   sodipodi:docname="Cotranslationaler_Proteintransport.svg"
   xmlns:inkscape="http://www.inkscape.org/namespaces/inkscape"
   xmlns:sodipodi="http://sodipodi.sourceforge.net/DTD/sodipodi-0.dtd"
   xmlns:xlink="http://www.w3.org/1999/xlink"
   xmlns="http://www.w3.org/2000/svg"
   xmlns:svg="http://www.w3.org/2000/svg"><sodipodi:namedview
     id="namedview1"
     pagecolor="#ffffff"
     bordercolor="#000000"
     borderopacity="0.25"
     inkscape:showpageshadow="2"
     inkscape:pageopacity="0.0"
     inkscape:pagecheckerboard="0"
     inkscape:deskcolor="#d1d1d1"
     inkscape:document-units="px"
     showguides="true"
     inkscape:zoom="1.3923106"
     inkscape:cx="326.07667"
     inkscape:cy="232.34758"
     inkscape:window-width="1854"
     inkscape:window-height="1131"
     inkscape:window-x="0"
     inkscape:window-y="0"
     inkscape:window-maximized="1"
     inkscape:current-layer="svg1" /><defs
     id="defs1" /><rect
     style="display:inline;opacity:1;fill:#ff4da5;fill-opacity:0.25959268;stroke:none;stroke-width:1.2;stroke-linejoin:round;stroke-dasharray:none"
     id="rect59"
     width="660.04559"
     height="42.277927"
     x="4.7699676"
     y="320.90738" /><use
     x="0"
     y="0"
     xlink:href="#path75"
     id="use76"
     transform="translate(1.6058731e-7,42.277929)"
     style="display:inline" /><path
     style="display:inline;opacity:1;fill:none;fill-opacity:1;stroke:#cccccc;stroke-width:0.8;stroke-linecap:butt;stroke-linejoin:round;stroke-dasharray:none"
     d="M 4.7699678,320.90738 H 664.81558"
     id="path75" /><path
     id="path2"
     style="display:inline;fill:#950e4f;fill-opacity:1;stroke:#000000;stroke-width:1.2;stroke-linejoin:round;stroke-dasharray:none"
     d="m 248.9612,145.28169 c -5.15456,0 -8.81435,11.26234 -9.13992,17.85742 -0.20238,4.09927 -0.58797,19.22656 9.13992,19.22656 9.7279,0 9.34229,-15.12729 9.13992,-19.22656 -0.32558,-6.59508 -3.98536,-17.85742 -9.13992,-17.85742 z" /><g
     id="g44"
     transform="translate(450.19921,-23.326787)"
     style="display:inline"
     inkscape:label="g6"><path
       style="display:inline;opacity:1;fill:none;fill-opacity:1;stroke:#000000;stroke-width:1.5;stroke-linecap:round;stroke-linejoin:round;stroke-dasharray:none"
       d="m 96.706483,340.29447 c 0,0 -0.56875,22.63021 0.0755,45.69574 0.64429,23.06553 0.32801,22.10409 0.82915,28.61889 0.50114,6.51481 1.86788,10.88839 3.143497,11.57176 1.27563,0.68337 2.59682,-0.0911 4.19135,-2.23235 1.59453,-2.14123 4.2369,-7.47153 10.11389,-5.10251 5.877,2.36903 11.43508,7.60821 12.30069,9.11162 0.8656,1.50342 1.00228,4.37358 -1.73121,3.05239 -2.73348,-1.32118 -10.06834,-6.42369 -13.48519,-9.38496 -3.41686,-2.96128 -13.166287,-10.93394 -2.05012,-9.61276 11.11618,1.32119 27.92711,5.74032 30.06834,6.10479 2.14123,0.36446 8.88383,1.00227 10.52392,0.45558 1.64009,-0.5467 3.59909,-2.23235 1.09339,-4.19135 -2.50569,-1.959 -11.70843,-8.74715 -14.98861,-10.4328"
       id="path44"
       sodipodi:nodetypes="cssssssssssssc" /><path
       style="display:inline;opacity:1;fill:none;fill-opacity:1;stroke:#000000;stroke-width:1.2;stroke-linejoin:round;stroke-dasharray:none"
       d="m 51.232695,265.44173 c 4.641368,20.0217 31.06111,32.13728 46.824484,31.06626 12.585141,-0.85508 31.972141,-2.18209 43.904251,-9.25894"
       id="path39"
       sodipodi:nodetypes="csc" /><use
       x="0"
       y="0"
       xlink:href="#ellipse1"
       id="use40"
       transform="rotate(-5.3588824,2234.1572,751.66548)"
       style="display:inline;stroke-width:1.2;stroke-dasharray:none;fill:#bf1266;fill-opacity:1" /><use
       x="0"
       y="0"
       xlink:href="#path1"
       id="use41"
       transform="rotate(0.6961562,-16132.758,-3809.4695)"
       style="display:inline;stroke-width:1.2;stroke-dasharray:none;fill:#bf1266;fill-opacity:1" /><path
       style="display:inline;opacity:1;fill:#a22f69;fill-opacity:1;stroke:#000000;stroke-width:1.2;stroke-linejoin:round;stroke-dasharray:none"
       d="m 91.056366,382.34065 c 0,0 1.19071,-34.57326 0.56001,-37.06179 -0.67789,-2.67469 -1.73691,-3.59452 -3.80901,-4.70696 -2.0721,-1.11243 -5.46131,-2.58437 -7.78457,-3.87275 -2.32326,-1.28838 -3.89438,-3.54989 -5.45848,-2.37672 -2.10123,1.57604 -0.59226,6.37812 1.04783,9.02049 1.64009,2.64237 6.57924,9.51841 5.30361,16.98994 -1.27563,7.47153 -5.28932,23.36537 -0.64239,28.19453 4.64692,4.82915 10.78297,-1.32982 10.78297,-6.18674 z"
       id="path41"
       sodipodi:nodetypes="cszssssscc" /><path
       id="path42"
       style="display:inline;opacity:1;fill:#ff4da5;stroke:#000000;stroke-width:1.2;stroke-linejoin:round;fill-opacity:1"
       d="m 117.19571,347.17281 c 0,-12.17022 16.12757,-11.99929 16.12757,0 v 36.99317 c 0,10.5209 -16.12757,10.84436 -16.12757,0 z"
       sodipodi:nodetypes="scccs" /><use
       x="0"
       y="0"
       xlink:href="#path41"
       id="use59"
       transform="matrix(-1,0,0,1,193.61644,0.23181371)"
       style="fill:#a22f69;fill-opacity:1" /></g><g
     id="g33"
     transform="translate(315.10582,-27.305218)"
     style="display:inline"
     inkscape:label="g5"><path
       style="opacity:1;fill:none;fill-opacity:1;stroke:#000000;stroke-width:1.2;stroke-linejoin:round;stroke-dasharray:none"
       d="m 46.336101,275.36378 c 12.115117,12.80566 35.957276,22.20891 51.721078,21.14421 18.383741,-1.24165 32.487571,-0.24922 44.419681,-7.32607"
       id="path29"
       sodipodi:nodetypes="csc" /><use
       x="0"
       y="0"
       xlink:href="#ellipse1"
       id="use30"
       transform="rotate(-5.3588824,2234.1572,751.66548)"
       style="display:inline;stroke-width:1.2;stroke-dasharray:none;fill:#bf1266;fill-opacity:1" /><use
       x="0"
       y="0"
       xlink:href="#path1"
       id="use31"
       transform="rotate(-2.5803753,4517.976,1307.3041)"
       style="display:inline;stroke-width:1.2;stroke-dasharray:none;fill:#bf1266;fill-opacity:1" /><path
       style="display:inline;opacity:1;fill:#a22f69;fill-opacity:1;stroke:#000000;stroke-width:1.2;stroke-linejoin:round;stroke-dasharray:none"
       d="m 89.619476,384.5789 v -38.54214 c 0,-4.91832 -13.779265,-11.24241 -16.036448,-9.74943 -2.257183,1.49298 -1.047835,6.65147 0.592256,9.29384 1.640091,2.64237 6.579235,9.51841 5.303608,16.98994 -1.275626,7.47153 -5.289316,23.36537 -0.642392,28.19453 4.646926,4.82915 10.782976,-1.32982 10.782976,-6.18674 z"
       id="path36"
       sodipodi:nodetypes="cczsssc" /><use
       x="0"
       y="0"
       xlink:href="#path36"
       id="use36"
       transform="matrix(-1,0,0,1,190.44396,0.81088795)"
       style="display:inline;fill:#a22f69;fill-opacity:1" /><path
       id="rect36"
       style="display:inline;opacity:1;fill:#ff4da5;stroke:#000000;stroke-width:1.2;stroke-linejoin:round;fill-opacity:1"
       d="m 448.83828,347.79043 c 0,-12.17022 16.12757,-11.99929 16.12757,0 v 36.99317 c 0,10.5209 -16.12757,10.84436 -16.12757,0 z"
       sodipodi:nodetypes="scccs"
       transform="translate(-328.16341,-0.10218948)" /><path
       style="display:inline;opacity:1;fill:#c73c82;fill-opacity:1;stroke:#000000;stroke-width:1.2;stroke-linejoin:round;stroke-dasharray:none"
       d="m 60.95566,377.98202 c 1.03086,10.0509 2.8253,18.82055 12.11263,26.41583 10.15722,8.30669 24.64095,4.2779 27.45426,-0.52867 0.77543,-1.32484 -0.58728,-1.6134 -2.54114,-1.05889 -3.30917,0.93916 -13.62857,-0.47477 -18.37002,-4.68142 -4.57301,-4.05722 -3.96356,-8.44974 -3.96356,-31.61732 0,-16.73678 0.59226,-20.27335 -2.96127,-21.68565 -3.55353,-1.4123 -6.87927,1.11685 -8.51936,2.48359 -1.64009,1.36674 -1.959,2.5154 -2.14123,4.4744 -0.18223,1.959 -0.6193,7.06275 -0.87702,16.08279 -0.25771,9.02005 -0.12886,6.37847 -0.19329,10.11534 z"
       id="path37"
       sodipodi:nodetypes="csssssssssc" /><path
       style="opacity:1;fill:none;fill-opacity:1;stroke:#000000;stroke-width:1.5;stroke-linecap:round;stroke-linejoin:round;stroke-dasharray:none"
       d="m 96.165089,340.67218 c 0,0 -0.322149,23.74204 -0.644289,30.89364 -0.32214,7.15161 -0.257715,14.68978 0.128862,18.04008 0.32259,2.79575 -0.06443,6.70061 5.734168,6.70061 5.79859,0 10.82405,-2.19058 12.88577,-8.89119 2.06172,-6.7006 4.85629,-38.90702 10.14103,-40.36488"
       id="path38"
       sodipodi:nodetypes="cssssc" /><rect
       style="display:inline;fill:#000000;fill-opacity:1;stroke:none;stroke-width:1.20001;stroke-linejoin:round;stroke-dasharray:none"
       id="use38"
       width="33.423706"
       height="5.4669704"
       x="-358.3132"
       y="183.17776"
       rx="0.77448767"
       ry="0.7744875"
       transform="rotate(-78.995243)" /></g><g
     id="g26"
     transform="translate(162.11717,-26.509523)"
     style="display:inline"
     inkscape:label="g4"><use
       x="0"
       y="0"
       xlink:href="#path2"
       id="use18"
       transform="rotate(0.41888837,-16140.501,-14046.659)"
       style="stroke-width:1.2;stroke-dasharray:none" /><rect
       style="display:inline;fill:#000000;fill-opacity:1;stroke:none;stroke-width:1.13921;stroke-linejoin:round;stroke-dasharray:none"
       id="use28"
       width="23.276161"
       height="4.4361086"
       x="-185.6799"
       y="307.84222"
       rx="0.86020607"
       ry="0.62844872"
       transform="rotate(-46.008473)" /><path
       style="opacity:1;fill:none;fill-opacity:1;stroke:#000000;stroke-width:1.2;stroke-linejoin:round;stroke-dasharray:none"
       d="m 37.788309,299.91679 c 10.780413,3.22344 29.357084,7.54463 42.254673,1.20577 16.536373,-8.12724 27.315028,-12.74736 42.548078,-31.7653"
       id="path21"
       sodipodi:nodetypes="csc" /><use
       x="0"
       y="0"
       xlink:href="#ellipse1"
       id="use22"
       transform="rotate(-24.450101,578.09923,365.07108)"
       style="display:inline;stroke-width:1.2;stroke-dasharray:none;fill:#bf1266;fill-opacity:1" /><use
       x="0"
       y="0"
       xlink:href="#path1"
       id="use23"
       transform="rotate(-24.450101,578.26043,360.26292)"
       style="display:inline;stroke-width:1.2;stroke-dasharray:none;fill:#bf1266;fill-opacity:1" /><path
       style="display:inline;opacity:1;fill:#a22f69;fill-opacity:1;stroke:#000000;stroke-width:1.2;stroke-linejoin:round;stroke-dasharray:none"
       d="m 86.293303,380.26331 c 0,-12.71431 0.143344,-16.39391 -5.265638,-24.80316 -4.483352,-6.97018 -11.632613,-13.72169 -14.812299,-13.80845 -3.150967,-0.086 -7.646022,2.7461 -7.623373,5.93249 0.02649,3.72626 11.334263,12.30624 13.625986,19.76496 3.14148,10.22436 -4.201515,30.24702 7.368896,30.1983 7.269957,-0.0306 6.706428,-9.39517 6.706428,-17.28414 z"
       id="path23"
       sodipodi:nodetypes="sssssss" /><path
       style="display:inline;fill:#8a7b84;fill-opacity:1;stroke:#000000;stroke-width:1.2;stroke-linejoin:round;stroke-dasharray:none"
       d="m 142.43272,395.07973 c 3.67039,0.0644 4.55124,-3.42961 5.04359,-6.0882 0.81109,-4.37966 -0.66097,-32.17483 -0.16888,-35.36966 0.37737,-2.44997 5.01139,-15.39864 3.96355,-18.13213 -0.86103,-2.24616 -3.00683,-0.8656 -4.10022,1.59453 -1.0934,2.46014 -2.45938,7.56169 -7.90326,7.56169 -3.85377,0 -6.60309,-2.32803 -7.92427,-2.05468 -1.32119,0.27335 -2.17557,1.48366 -1.12008,3.55906 2.22978,4.38436 5.191,5.75037 5.69476,7.58543 0.34764,1.26635 0.89845,33.78301 1.25675,35.79693 0.45198,2.54048 1.86884,5.54703 5.25806,5.54703 z"
       id="use25"
       sodipodi:nodetypes="csssssssssc" /><use
       x="0"
       y="0"
       xlink:href="#path23"
       id="use27"
       transform="matrix(-1,0,0,1,174.2367,0)"
       style="display:inline;fill:#a22f69;fill-opacity:1" /><path
       style="display:inline;opacity:1;fill:none;fill-opacity:1;stroke:#000000;stroke-width:1.2;stroke-linejoin:round;stroke-dasharray:none"
       d="m 77.4662,344.07598 c 0.64429,5.3476 6.120745,10.69519 7.344895,11.46834 1.22414,0.77314 2.770433,0.32215 3.930153,-0.83757 1.15972,-1.15972 5.956135,-6.16229 12.112622,-12.82135 9.47105,-10.24419 12.88578,-14.30321 19.26424,-13.72335"
       id="path27"
       sodipodi:nodetypes="csssc" /></g><g
     id="g19"
     transform="translate(-11.728861,-26.895545)"
     style="display:inline"
     inkscape:label="g3"><path
       style="opacity:1;fill:none;fill-opacity:1;stroke:#000000;stroke-width:1.2;stroke-linejoin:round;stroke-dasharray:none"
       d="m 56.955116,302.42909 c 10.952907,2.57715 31.390077,1.60556 44.584774,-7.21604 22.5501,-15.07635 37.23988,-29.2507 44.32706,-39.68818"
       id="path20"
       sodipodi:nodetypes="csc"
       transform="translate(-0.42011617,0.43956644)" /><use
       x="0"
       y="0"
       xlink:href="#path2"
       id="use9"
       transform="rotate(8.6409104,-876.81828,-477.39209)"
       style="stroke-width:1.2;stroke-dasharray:none" /><use
       x="0"
       y="0"
       xlink:href="#ellipse1"
       id="use6"
       transform="rotate(-27.856747,521.31241,300.04336)"
       style="stroke-width:1.2;stroke-dasharray:none;fill:#bf1266;fill-opacity:1" /><use
       x="0"
       y="0"
       xlink:href="#path1"
       id="use7"
       transform="rotate(-27.856747,521.31241,300.04336)"
       style="stroke-width:1.2;stroke-dasharray:none;fill:#bf1266;fill-opacity:1" /><path
       style="opacity:1;fill:#a22f69;fill-opacity:1;stroke:#000000;stroke-width:1.2;stroke-linejoin:round;stroke-dasharray:none"
       d="m 106.69704,388.1549 v -38.54214 c 0,-4.91832 -13.779265,-11.24241 -16.036448,-9.74943 -2.257183,1.49298 -1.047835,6.65147 0.592256,9.29384 1.640091,2.64237 6.579235,9.51841 5.303608,16.98994 -1.275626,7.47153 -5.289316,23.36537 -0.642392,28.19453 4.646926,4.82915 10.782976,-1.32982 10.782976,-6.18674 z"
       id="path9"
       sodipodi:nodetypes="cczsssc" /><use
       x="0"
       y="0"
       xlink:href="#path9"
       id="use10"
       transform="matrix(-1,0,0,1,213.95443,0)"
       style="display:inline;stroke-width:1.2;stroke-dasharray:none;fill:#a22f69;fill-opacity:1" /><path
       style="display:inline;fill:#8a7b84;fill-opacity:1;stroke:#000000;stroke-width:1.2;stroke-linejoin:round;stroke-dasharray:none"
       d="m 142.43272,395.07973 c 3.67039,0.0644 4.55124,-3.42961 5.04359,-6.0882 0.81109,-4.37966 -0.66097,-32.17483 -0.16888,-35.36966 0.37737,-2.44997 5.01139,-15.39864 3.96355,-18.13213 -0.86103,-2.24616 -3.00683,-0.8656 -4.10022,1.59453 -1.0934,2.46014 -2.45938,7.56169 -7.90326,7.56169 -3.85377,0 -6.60309,-2.32803 -7.92427,-2.05468 -1.32119,0.27335 -2.17557,1.48366 -1.12008,3.55906 2.22978,4.38436 5.191,5.75037 5.69476,7.58543 0.34764,1.26635 0.89845,33.78301 1.25675,35.79693 0.45198,2.54048 1.86884,5.54703 5.25806,5.54703 z"
       id="use11"
       sodipodi:nodetypes="csssssssssc" /><path
       style="display:inline;opacity:1;fill:none;fill-opacity:1;stroke:#000000;stroke-width:1.6;stroke-linecap:round;stroke-linejoin:round;stroke-dasharray:none"
       d="m 106.01554,339.49886 c 5.43502,4.55649 12.84516,2.29028 19.09933,-0.56879 2.98561,-1.36486 8.6911,-5.90045 14.24918,-15.10318 5.55809,-9.20273 6.97039,-14.12301 12.43736,-15.03417"
       id="path15"
       sodipodi:nodetypes="cssc" /><rect
       style="display:inline;fill:#000000;fill-opacity:1;stroke:none;stroke-width:1.10809;stroke-linejoin:round;stroke-dasharray:none"
       id="use20"
       width="20.956722"
       height="4.6616096"
       x="-214.56018"
       y="284.28387"
       rx="0.77448761"
       ry="0.66039473"
       transform="rotate(-58.847755)" /></g><g
     id="g15"
     transform="translate(-12.563561,-26.664169)"
     style="display:inline"
     inkscape:label="g2"><path
       style="opacity:1;fill:none;fill-opacity:1;stroke:#000000;stroke-width:1.2;stroke-linejoin:round;stroke-dasharray:none"
       d="m 112.98406,85.831435 c 20.22779,17.858765 40.67851,13.772286 56.67426,11.298405 14.29511,-2.210863 35.17084,-8.564919 65.96811,-23.690204"
       id="path14"
       sodipodi:nodetypes="csc" /><ellipse
       style="opacity:1;fill:#bf1266;fill-opacity:1;stroke:#000000;stroke-width:1.2;stroke-linejoin:round;stroke-dasharray:none"
       id="ellipse1"
       cx="147.47565"
       cy="117.80674"
       rx="30.353624"
       ry="24.783598" /><ellipse
       style="opacity:1;fill:#bf1266;fill-opacity:1;stroke:#000000;stroke-width:1.2;stroke-linejoin:round;stroke-dasharray:none"
       id="path1"
       cx="146.97038"
       cy="85.284737"
       rx="21.776766"
       ry="15.307516" /><use
       x="0"
       y="0"
       xlink:href="#path2"
       id="use3"
       transform="rotate(19.940289,323.29742,-58.298679)"
       style="opacity:1;stroke-width:1.2;stroke-dasharray:none" /><path
       id="use13"
       style="opacity:1;fill:#000000;fill-opacity:1;stroke:none;stroke-width:1.2;stroke-linejoin:round;stroke-dasharray:none"
       d="m -24.953187,214.98232 c -2.698575,-3.58242 -6.639789,-4.27441 -9.21628,-4.37429 l -8.79e-4,-1.22595 c 0,-0.42907 -0.345628,-0.77391 -0.774695,-0.77391 l -19.40819,-8.2e-4 c -0.429066,0 -0.773908,0.34563 -0.773908,0.7747 l 1.51e-4,1.37369 c -1.574596,-0.0131 -4.503508,-0.17409 -7.743863,-1.03402 -4.825485,-1.2806 -10.25781,-4.0731 -12.974558,-10.20065 -1.465421,-3.30522 -1.265751,-5.99648 -0.43027,-7.99624 0.835485,-1.99975 2.363439,-3.30239 3.463051,-3.70607 l -0.412064,-1.12697 c -1.514805,0.55611 -3.198627,2.0719 -4.158328,4.36899 -0.959701,2.29708 -1.140053,5.37963 0.441313,8.94635 2.902678,6.54691 8.732226,9.53964 13.76263,10.87462 3.360825,0.89191 6.40327,1.06082 8.052396,1.07456 l -2.18e-4,1.34394 c 0,0.42907 0.345628,0.77391 0.774694,0.77391 l 19.408191,8.2e-4 c 0.429066,0 0.773907,-0.34563 0.773907,-0.77469 l -8.38e-4,-1.4909 c 2.397905,0.0953 5.870219,0.72193 8.260065,3.89451 z"
       transform="rotate(-66.089109)" /></g><g
     id="g18"
     transform="translate(224.92747,-28.21923)"
     style="display:inline"
     inkscape:label="g1"><rect
       style="display:inline;fill:#000000;fill-opacity:1;stroke:none;stroke-width:1.2;stroke-linejoin:round;stroke-dasharray:none"
       id="use19"
       width="20.956722"
       height="5.4669704"
       x="-94.787277"
       y="182.38928"
       rx="0.77448761"
       ry="0.7744875"
       transform="rotate(-67.378547)" /><path
       style="opacity:1;fill:none;fill-opacity:1;stroke:#000000;stroke-width:1.2;stroke-linejoin:round;stroke-dasharray:none"
       d="m 108.61048,89.29385 c 6.7426,9.476077 44.86986,10.127639 60.86561,7.653758 14.29511,-2.210863 35.35307,-8.382687 66.15034,-23.507972"
       id="path17"
       sodipodi:nodetypes="csc" /><ellipse
       style="opacity:1;fill:#bf1266;fill-opacity:1;stroke:#000000;stroke-width:1.2;stroke-linejoin:round;stroke-dasharray:none"
       id="ellipse17"
       cx="147.47565"
       cy="117.80674"
       rx="30.353624"
       ry="24.783598" /><ellipse
       style="opacity:1;fill:#bf1266;fill-opacity:1;stroke:#000000;stroke-width:1.2;stroke-linejoin:round;stroke-dasharray:none"
       id="ellipse18"
       cx="146.97038"
       cy="85.284737"
       rx="21.776766"
       ry="15.307516" /><path
       style="opacity:1;fill:none;fill-opacity:1;stroke:#000000;stroke-width:1.2;stroke-linejoin:round;stroke-dasharray:none"
       d="m 127.03328,165.26642 c 5.14806,-2.41457 6.92482,-4.41913 10.02277,-12.39179 2.15799,-5.55366 4.55581,-10.47836 4.55581,-10.47836"
       id="path18"
       sodipodi:nodetypes="csc" /></g><g
     id="g73"
     inkscape:label="Text"
     style="display:none"
     transform="translate(-12.724337,-27.156404)"><g
       id="g75"
       style="display:inline"><path
         id="path63"
         style="baseline-shift:baseline;display:inline;overflow:visible;vector-effect:none;fill:#000000;stroke-linecap:round;stroke-linejoin:round;enable-background:accumulate;stop-color:#000000"
         d="m 372.58398,312.43359 v 2.22852 h -34.9082 a 0.60000002,0.60000002 0 0 0 -0.59961,0.59961 0.60000002,0.60000002 0 0 0 0.59961,0.59961 h 34.9082 v 2.22851 l 9.79493,-2.82812 z" /><use
         x="0"
         y="0"
         xlink:href="#path63"
         id="use65"
         transform="translate(-174.31394)" /><path
         id="path73"
         style="baseline-shift:baseline;display:inline;overflow:visible;opacity:1;vector-effect:none;stroke-linecap:round;stroke-linejoin:round;enable-background:accumulate;stop-color:#000000;stop-opacity:1"
         d="m 196.50781,296.63086 -4.3164,5.73437 1.48437,0.70508 v 0.002 c -3.0959,5.18473 -8.65362,7.72433 -13.77344,7.31054 -5.29558,-0.42799 -10.11699,-3.92972 -11.41015,-11.15234 a 0.60000002,0.60000002 0 0 0 -0.69727,-0.48438 0.60000002,0.60000002 0 0 0 -0.48437,0.69532 c 1.37408,7.6746 6.7207,11.67206 12.49414,12.13867 5.61468,0.45378 11.63979,-2.34758 14.95703,-7.99024 l 1.48828,0.70704 z" /><use
         x="0"
         y="0"
         xlink:href="#path63"
         id="use64"
         transform="translate(140.29775)" /><use
         x="0"
         y="0"
         xlink:href="#path63"
         id="use66"
         transform="rotate(-141.28072,263.20517,263.04039)" /><path
         id="use69"
         style="baseline-shift:baseline;display:inline;overflow:visible;vector-effect:none;fill:#000000;stroke-linecap:round;stroke-linejoin:round;enable-background:accumulate;stop-color:#000000"
         d="m 282.17207,225.26759 1.82457,-1.27955 20.04333,28.58054 a 0.60000002,0.60000002 0 0 0 0.8352,0.14661 0.60000002,0.60000002 0 0 0 0.1466,-0.83521 l -20.04333,-28.58054 1.82456,-1.27955 -7.93969,-6.39533 z" /><path
         id="use70"
         style="baseline-shift:baseline;display:inline;overflow:visible;vector-effect:none;fill:#000000;stroke-linecap:round;stroke-linejoin:round;enable-background:accumulate;stop-color:#000000"
         d="m 248.07758,109.15582 -0.004,-2.22852 56.86869,-0.0651 c 0.33106,-8.3e-4 0.59889,-0.26966 0.59849,-0.60072 -8.3e-4,-0.33107 -0.26966,-0.5989 -0.60073,-0.5985 l -56.86869,0.0651 -0.004,-2.2285 -9.78964,2.84637 z"
         sodipodi:nodetypes="ccccccccc" /><path
         style="opacity:1;fill:#000000;fill-opacity:1;stroke:#000000;stroke-width:1;stroke-linecap:round;stroke-linejoin:round;stroke-dasharray:none"
         d="M 79.088838,417.85877 92.938497,402.00456"
         id="path70" /><use
         x="0"
         y="0"
         xlink:href="#path70"
         id="use71"
         transform="matrix(-1,0,0,1,242.00455,0)" /><use
         x="0"
         y="0"
         xlink:href="#path70"
         id="use72"
         transform="translate(298.70516,1.2756264)" /><use
         x="0"
         y="0"
         xlink:href="#path70"
         id="use73"
         transform="matrix(-0.98331716,-0.18189935,-0.18189935,0.98331716,627.99879,18.657778)" /><use
         x="0"
         y="0"
         xlink:href="#use70"
         id="use75"
         transform="rotate(-73.601797,260.41996,258.05546)" /></g><text
       xml:space="preserve"
       style="font-size:17.3333px;line-height:0.9;font-family='Liberation Sans,Arial,Helvetica,sans-serif';-inkscape-font-specification:'Liberation Sans, Normal';text-align:center;writing-mode:lr-tb;direction:ltr;text-anchor:middle;display:inline;opacity:1;fill:#000000;fill-opacity:1;stroke:none;stroke-width:1.2;stroke-linejoin:round;stroke-dasharray:none"
       x="428.20758"
       y="180.52512"
       id="text44" /><text
       xml:space="preserve"
       style="font-size:17.3333px;line-height:0.9;font-family='Liberation Sans,Arial,Helvetica,sans-serif';-inkscape-font-specification:'Liberation Sans, Normal';text-align:center;writing-mode:lr-tb;direction:ltr;text-anchor:middle;opacity:1;fill:#000000;fill-opacity:1;stroke:none;stroke-width:1.2;stroke-linejoin:round;stroke-dasharray:none"
       x="428.108"
       y="200.7529"
       id="text46"><tspan
         sodipodi:role="line"
         x="428.108"
         y="200.7529"
         id="tspan46">Sequenz</tspan></text><text
       xml:space="preserve"
       style="font-size:17.3333px;line-height:0.9;font-family='Liberation Sans,Arial,Helvetica,sans-serif';-inkscape-font-specification:'Liberation Sans, Normal';text-align:center;writing-mode:lr-tb;direction:ltr;text-anchor:middle;opacity:1;fill:#000000;fill-opacity:1;stroke:none;stroke-width:1.2;stroke-linejoin:round;stroke-dasharray:none"
       x="428.108"
       y="180.08894"
       id="text73"><tspan
         sodipodi:role="line"
         x="428.108"
         y="180.08894"
         id="tspan73">Signal</tspan></text><text
       xml:space="preserve"
       style="font-size:17.3333px;line-height:0.9;font-family='Liberation Sans,Arial,Helvetica,sans-serif';-inkscape-font-specification:'Liberation Sans, Normal';text-align:start;writing-mode:lr-tb;direction:ltr;text-anchor:start;opacity:1;fill:#000000;fill-opacity:1;stroke:none;stroke-width:1.2;stroke-linejoin:round;stroke-dasharray:none"
       x="280.00626"
       y="198.91893"
       id="text47"><tspan
         sodipodi:role="line"
         id="tspan47"
         x="280.00626"
         y="198.91893">SRP</tspan></text><text
       xml:space="preserve"
       style="font-size:17.3333px;line-height:0.9;font-family='Liberation Sans,Arial,Helvetica,sans-serif';-inkscape-font-specification:'Liberation Sans, Normal';text-align:start;writing-mode:lr-tb;direction:ltr;text-anchor:start;opacity:1;fill:#000000;fill-opacity:1;stroke:none;stroke-width:1.2;stroke-linejoin:round;stroke-dasharray:none"
       x="332.75626"
       y="59.22551"
       id="text15"><tspan
         sodipodi:role="line"
         id="tspan15"
         x="332.75626"
         y="59.22551">Ribosom</tspan></text><text
       xml:space="preserve"
       style="font-size:17.3333px;line-height:0.9;font-family='Liberation Sans,Arial,Helvetica,sans-serif';-inkscape-font-specification:'Liberation Sans, Normal';text-align:start;writing-mode:lr-tb;direction:ltr;text-anchor:start;opacity:1;fill:#000000;fill-opacity:1;stroke:none;stroke-width:1.2;stroke-linejoin:round;stroke-dasharray:none"
       x="476.87613"
       y="74.288261"
       id="text16"><tspan
         sodipodi:role="line"
         id="tspan16"
         x="476.87613"
         y="74.288261">mRNA</tspan></text><text
       xml:space="preserve"
       style="font-size:17.3333px;line-height:0.9;font-family='Liberation Sans,Arial,Helvetica,sans-serif';-inkscape-font-specification:'Liberation Sans, Normal';text-align:start;writing-mode:lr-tb;direction:ltr;text-anchor:start;opacity:1;fill:#000000;fill-opacity:1;stroke:none;stroke-width:1.2;stroke-linejoin:round;stroke-dasharray:none"
       x="571.44873"
       y="131.07722"
       id="text17"><tspan
         sodipodi:role="line"
         id="tspan17"
         x="571.44873"
         y="131.07722">Cytosol</tspan></text><text
       xml:space="preserve"
       style="font-size:17.3333px;line-height:0.9;font-family='Liberation Sans,Arial,Helvetica,sans-serif';-inkscape-font-specification:'Liberation Sans, Normal';text-align:center;writing-mode:lr-tb;direction:ltr;text-anchor:middle;opacity:1;fill:#000000;fill-opacity:1;stroke:none;stroke-width:1.2;stroke-linejoin:round;stroke-dasharray:none"
       x="77.147217"
       y="437.68982"
       id="text48"><tspan
         sodipodi:role="line"
         x="77.147217"
         y="437.68982"
         id="tspan48">Sec61-</tspan></text><text
       xml:space="preserve"
       style="font-size:17.3333px;line-height:0.9;font-family='Liberation Sans,Arial,Helvetica,sans-serif';-inkscape-font-specification:'Liberation Sans, Normal';text-align:center;writing-mode:lr-tb;direction:ltr;text-anchor:middle;opacity:1;fill:#000000;fill-opacity:1;stroke:none;stroke-width:1.2;stroke-linejoin:round;stroke-dasharray:none"
       x="77.412102"
       y="455.83044"
       id="text49"><tspan
         sodipodi:role="line"
         x="77.412102"
         y="455.83044"
         id="tspan49">Komplex</tspan></text><text
       xml:space="preserve"
       style="font-size:17.3333px;line-height:0.9;font-family='Liberation Sans,Arial,Helvetica,sans-serif';-inkscape-font-specification:'Liberation Sans, Normal';text-align:center;writing-mode:lr-tb;direction:ltr;text-anchor:middle;opacity:1;fill:#000000;fill-opacity:1;stroke:none;stroke-width:1.2;stroke-linejoin:round;stroke-dasharray:none"
       x="173.31393"
       y="437.68982"
       id="text50"><tspan
         sodipodi:role="line"
         x="173.31393"
         y="437.68982"
         id="tspan50">SRP-</tspan></text><text
       xml:space="preserve"
       style="font-size:17.3333px;line-height:0.9;font-family='Liberation Sans,Arial,Helvetica,sans-serif';-inkscape-font-specification:'Liberation Sans, Normal';text-align:center;writing-mode:lr-tb;direction:ltr;text-anchor:middle;opacity:1;fill:#000000;fill-opacity:1;stroke:none;stroke-width:1.2;stroke-linejoin:round;stroke-dasharray:none"
       x="174.30775"
       y="455.18411"
       id="text51"><tspan
         sodipodi:role="line"
         x="174.30775"
         y="455.18411"
         id="tspan51">Rezeptor</tspan></text><text
       xml:space="preserve"
       style="font-size:17.3333px;line-height:0.9;font-family='Liberation Sans,Arial,Helvetica,sans-serif';-inkscape-font-specification:'Liberation Sans, Normal';text-align:start;writing-mode:lr-tb;direction:ltr;text-anchor:start;opacity:1;fill:#000000;fill-opacity:1;stroke:none;stroke-width:1.2;stroke-linejoin:round;stroke-dasharray:none"
       x="326.40262"
       y="437.68982"
       id="text52"><tspan
         sodipodi:role="line"
         id="tspan52"
         x="326.40262"
         y="437.68982">SP-Komplex</tspan></text><text
       xml:space="preserve"
       style="font-size:17.3333px;line-height:0.9;font-family='Liberation Sans,Arial,Helvetica,sans-serif';-inkscape-font-specification:'Liberation Sans, Normal';text-align:start;writing-mode:lr-tb;direction:ltr;text-anchor:start;opacity:1;fill:#000000;fill-opacity:1;stroke:none;stroke-width:1.2;stroke-linejoin:round;stroke-dasharray:none"
       x="460.89008"
       y="437.68982"
       id="text53"><tspan
         sodipodi:role="line"
         id="tspan53"
         x="460.89008"
         y="437.68982">TRAM</tspan></text><text
       xml:space="preserve"
       style="font-size:17.3333px;line-height:0.9;font-family='Liberation Sans,Arial,Helvetica,sans-serif';-inkscape-font-specification:'Liberation Sans, Normal';text-align:start;writing-mode:lr-tb;direction:ltr;text-anchor:start;opacity:1;fill:#000000;fill-opacity:1;stroke:none;stroke-width:1.2;stroke-linejoin:round;stroke-dasharray:none"
       x="570.31799"
       y="475.97018"
       id="text54"><tspan
         sodipodi:role="line"
         id="tspan54"
         x="570.31799"
         y="475.97018">ER-Lumen</tspan></text><text
       xml:space="preserve"
       style="font-size:17.3333px;line-height:0.9;font-family='Liberation Sans,Arial,Helvetica,sans-serif';-inkscape-font-specification:'Liberation Sans, Normal';text-align:start;writing-mode:lr-tb;direction:ltr;text-anchor:start;opacity:1;fill:#000000;fill-opacity:1;stroke:none;stroke-width:1.2;stroke-linejoin:round;stroke-dasharray:none"
       x="267.22934"
       y="127.83943"
       id="text55"><tspan
         sodipodi:role="line"
         id="tspan55"
         x="267.22934"
         y="127.83943">1</tspan></text><text
       xml:space="preserve"
       style="font-size:17.3333px;line-height:0.9;font-family='Liberation Sans,Arial,Helvetica,sans-serif';-inkscape-font-specification:'Liberation Sans, Normal';text-align:start;writing-mode:lr-tb;direction:ltr;text-anchor:start;opacity:1;fill:#000000;fill-opacity:1;stroke:none;stroke-width:1.2;stroke-linejoin:round;stroke-dasharray:none"
       x="101.44189"
       y="201.5675"
       id="text56"><tspan
         sodipodi:role="line"
         id="tspan56"
         x="101.44189"
         y="201.5675">2</tspan></text><text
       xml:space="preserve"
       style="font-size:17.3333px;line-height:0.9;font-family='Liberation Sans,Arial,Helvetica,sans-serif';-inkscape-font-specification:'Liberation Sans, Normal';text-align:start;writing-mode:lr-tb;direction:ltr;text-anchor:start;opacity:1;fill:#000000;fill-opacity:1;stroke:none;stroke-width:1.2;stroke-linejoin:round;stroke-dasharray:none"
       x="176.29593"
       y="337.12582"
       id="text57"><tspan
         sodipodi:role="line"
         id="tspan57"
         x="176.29593"
         y="337.12582">3</tspan></text><text
       xml:space="preserve"
       style="font-size:17.3333px;line-height:0.9;font-family='Liberation Sans,Arial,Helvetica,sans-serif';-inkscape-font-specification:'Liberation Sans, Normal';text-align:start;writing-mode:lr-tb;direction:ltr;text-anchor:start;opacity:1;fill:#000000;fill-opacity:1;stroke:none;stroke-width:1.2;stroke-linejoin:round;stroke-dasharray:none"
       x="354.15469"
       y="337.12582"
       id="text58"><tspan
         sodipodi:role="line"
         id="tspan58"
         x="354.15469"
         y="337.12582">4</tspan></text><text
       xml:space="preserve"
       style="font-size:17.3333px;line-height:0.9;font-family='Liberation Sans,Arial,Helvetica,sans-serif';-inkscape-font-specification:'Liberation Sans, Normal';text-align:start;writing-mode:lr-tb;direction:ltr;text-anchor:start;opacity:1;fill:#000000;fill-opacity:1;stroke:none;stroke-width:1.2;stroke-linejoin:round;stroke-dasharray:none"
       x="493.01572"
       y="337.12582"
       id="text59"><tspan
         sodipodi:role="line"
         id="tspan59"
         x="493.01572"
         y="337.12582">5</tspan></text><text
       xml:space="preserve"
       style="font-size:17.3333px;line-height:0.9;font-family='Liberation Sans,Arial,Helvetica,sans-serif';-inkscape-font-specification:'Liberation Sans, Normal';text-align:start;writing-mode:lr-tb;direction:ltr;text-anchor:start;opacity:1;fill:#000000;fill-opacity:1;stroke:none;stroke-width:1.2;stroke-linejoin:round;stroke-dasharray:none"
       x="138.9449"
       y="292.98505"
       id="text60"><tspan
         sodipodi:role="line"
         id="tspan60"
         x="138.9449"
         y="292.98505">GTP</tspan></text><text
       xml:space="preserve"
       style="font-size:17.3333px;line-height:0.9;font-family='Liberation Sans,Arial,Helvetica,sans-serif';-inkscape-font-specification:'Liberation Sans, Normal';text-align:start;writing-mode:lr-tb;direction:ltr;text-anchor:start;opacity:1;fill:#000000;fill-opacity:1;stroke:none;stroke-width:1.2;stroke-linejoin:round;stroke-dasharray:none"
       x="181.35583"
       y="292.98505"
       id="text61"><tspan
         sodipodi:role="line"
         id="tspan61"
         x="181.35583"
         y="292.98505">GDP</tspan></text></g><g
     id="g104"
     inkscape:label="Text als Pfad"
     style="display:inline"
     transform="translate(-12.724337,-27.156404)"
     inkscape:export-filename="Cotranslationaler_Proteintransport.png"
     inkscape:export-xdpi="96"
     inkscape:export-ydpi="96"><g
       id="g84"
       style="display:inline"><path
         id="path76"
         style="baseline-shift:baseline;display:inline;overflow:visible;vector-effect:none;fill:#000000;stroke-linecap:round;stroke-linejoin:round;enable-background:accumulate;stop-color:#000000"
         d="m 372.58398,312.43359 v 2.22852 h -34.9082 a 0.60000002,0.60000002 0 0 0 -0.59961,0.59961 0.60000002,0.60000002 0 0 0 0.59961,0.59961 h 34.9082 v 2.22851 l 9.79493,-2.82812 z" /><use
         x="0"
         y="0"
         xlink:href="#path63"
         id="use77"
         transform="translate(-174.31394)" /><path
         id="path77"
         style="baseline-shift:baseline;display:inline;overflow:visible;opacity:1;vector-effect:none;stroke-linecap:round;stroke-linejoin:round;enable-background:accumulate;stop-color:#000000;stop-opacity:1"
         d="m 196.50781,296.63086 -4.3164,5.73437 1.48437,0.70508 v 0.002 c -3.0959,5.18473 -8.65362,7.72433 -13.77344,7.31054 -5.29558,-0.42799 -10.11699,-3.92972 -11.41015,-11.15234 a 0.60000002,0.60000002 0 0 0 -0.69727,-0.48438 0.60000002,0.60000002 0 0 0 -0.48437,0.69532 c 1.37408,7.6746 6.7207,11.67206 12.49414,12.13867 5.61468,0.45378 11.63979,-2.34758 14.95703,-7.99024 l 1.48828,0.70704 z" /><use
         x="0"
         y="0"
         xlink:href="#path63"
         id="use78"
         transform="translate(140.29775)" /><use
         x="0"
         y="0"
         xlink:href="#path63"
         id="use79"
         transform="rotate(-141.28072,263.20517,263.04039)" /><path
         id="path79"
         style="baseline-shift:baseline;display:inline;overflow:visible;vector-effect:none;fill:#000000;stroke-linecap:round;stroke-linejoin:round;enable-background:accumulate;stop-color:#000000"
         d="m 282.17207,225.26759 1.82457,-1.27955 20.04333,28.58054 a 0.60000002,0.60000002 0 0 0 0.8352,0.14661 0.60000002,0.60000002 0 0 0 0.1466,-0.83521 l -20.04333,-28.58054 1.82456,-1.27955 -7.93969,-6.39533 z" /><path
         id="path80"
         style="baseline-shift:baseline;display:inline;overflow:visible;vector-effect:none;fill:#000000;stroke-linecap:round;stroke-linejoin:round;enable-background:accumulate;stop-color:#000000"
         d="m 248.07758,109.15582 -0.004,-2.22852 56.86869,-0.0651 c 0.33106,-8.3e-4 0.59889,-0.26966 0.59849,-0.60072 -8.3e-4,-0.33107 -0.26966,-0.5989 -0.60073,-0.5985 l -56.86869,0.0651 -0.004,-2.2285 -9.78964,2.84637 z"
         sodipodi:nodetypes="ccccccccc" /><path
         style="opacity:1;fill:#000000;fill-opacity:1;stroke:#000000;stroke-width:1;stroke-linecap:round;stroke-linejoin:round;stroke-dasharray:none"
         d="M 79.088838,417.85877 92.938497,402.00456"
         id="path81" /><use
         x="0"
         y="0"
         xlink:href="#path70"
         id="use81"
         transform="matrix(-1,0,0,1,242.00455,0)" /><use
         x="0"
         y="0"
         xlink:href="#path70"
         id="use82"
         transform="translate(298.70516,1.2756264)" /><use
         x="0"
         y="0"
         xlink:href="#path70"
         id="use83"
         transform="matrix(-0.98331716,-0.18189935,-0.18189935,0.98331716,627.99879,18.657778)" /><use
         x="0"
         y="0"
         xlink:href="#use70"
         id="use84"
         transform="rotate(-73.601797,260.41996,258.05546)" /></g><path
       d="m 404.65981,197.46059 q 0,1.65039 -1.29492,2.55598 -1.28646,0.9056 -3.63086,0.9056 -4.35871,0 -5.05272,-3.02994 l 1.56575,-0.31315 q 0.27083,1.07486 1.15104,1.58268 0.88021,0.49934 2.39518,0.49934 1.56575,0 2.4121,-0.5332 0.85482,-0.54166 0.85482,-1.58268 0,-0.58398 -0.27083,-0.94791 -0.26237,-0.36393 -0.74479,-0.60091 -0.48243,-0.23698 -1.15104,-0.39779 -0.66862,-0.1608 -1.48112,-0.347 -1.41341,-0.31315 -2.14974,-0.6263 -0.72786,-0.31315 -1.15104,-0.69401 -0.42317,-0.38932 -0.65169,-0.9056 -0.22005,-0.51627 -0.22005,-1.18489 0,-1.5319 1.16797,-2.36133 1.17643,-0.82942 3.36002,-0.82942 2.03124,0 3.10611,0.6263 1.07487,0.61784 1.50651,2.11588 l -1.59114,0.2793 q -0.26237,-0.94792 -0.9987,-1.37109 -0.73633,-0.43164 -2.03971,-0.43164 -1.43034,0 -2.18359,0.47395 -0.75325,0.47396 -0.75325,1.41341 0,0.55013 0.28776,0.91406 0.29622,0.35547 0.84635,0.60938 0.55013,0.24544 2.19205,0.60937 0.55013,0.12695 1.0918,0.26237 0.55013,0.12695 1.04947,0.31315 0.49935,0.17773 0.93099,0.42318 0.44011,0.24544 0.76172,0.60091 0.32161,0.35546 0.49935,0.83789 0.1862,0.48242 0.1862,1.13411 z m 3.1315,-0.96484 q 0,1.57421 0.65169,2.42903 0.65169,0.85481 1.90429,0.85481 0.99024,0 1.58268,-0.39778 0.60091,-0.39779 0.8125,-1.00716 l 1.33724,0.38086 q -0.82096,2.16666 -3.73242,2.16666 -2.03124,0 -3.09765,-1.21028 -1.05794,-1.21029 -1.05794,-3.597 0,-2.26823 1.05794,-3.47851 1.06641,-1.21029 3.03841,-1.21029 4.0371,0 4.0371,4.86653 v 0.20313 z m 4.95963,-1.16797 q -0.12696,-1.44726 -0.73633,-2.10742 -0.60938,-0.66862 -1.75195,-0.66862 -1.10872,0 -1.76041,0.74479 -0.64323,0.73633 -0.69401,2.03125 z m 6.44074,5.59439 q -1.74349,0 -2.55599,-1.17643 -0.8125,-1.17643 -0.8125,-3.52929 0,-4.79036 3.36849,-4.79036 1.04101,0 1.71809,0.3724 0.67708,0.36393 1.13412,1.21875 h 0.0169 q 0,-0.25391 0.0339,-0.87175 0.0338,-0.6263 0.0677,-0.66861 h 1.46419 q -0.0592,0.49934 -0.0592,2.49674 v 10.37628 h -1.52343 v -3.71549 l 0.0339,-1.38802 h -0.0169 q -0.45703,0.9056 -1.12565,1.29492 -0.66862,0.38086 -1.74348,0.38086 z m 2.85221,-4.85806 q 0,-1.78581 -0.58399,-2.64909 -0.58398,-0.86328 -1.86197,-0.86328 -1.15951,0 -1.66732,0.86328 -0.50781,0.86328 -0.50781,2.75065 0,1.92122 0.50781,2.75064 0.51628,0.82943 1.65039,0.82943 1.29492,0 1.8789,-0.92252 0.58399,-0.92253 0.58399,-2.75911 z m 5.34895,-4.46875 v 5.80598 q 0,0.9056 0.17773,1.40495 0.17773,0.49935 0.56706,0.7194 0.38932,0.22005 1.14257,0.22005 1.10026,0 1.73502,-0.75325 0.63477,-0.75326 0.63477,-2.09049 v -5.30664 h 1.52343 v 7.20246 q 0,1.59961 0.0508,1.95508 h -1.4388 q -0.008,-0.0423 -0.0169,-0.22852 -0.008,-0.18619 -0.0254,-0.42317 -0.008,-0.24544 -0.0254,-0.91406 h -0.0254 q -0.52474,0.94791 -1.21875,1.3457 -0.68555,0.38932 -1.70963,0.38932 -1.50651,0 -2.20898,-0.74479 -0.69401,-0.75325 -0.69401,-2.47981 v -6.10221 z m 9.31833,4.90039 q 0,1.57421 0.6517,2.42903 0.65169,0.85481 1.90429,0.85481 0.99023,0 1.58268,-0.39778 0.60091,-0.39779 0.8125,-1.00716 l 1.33723,0.38086 q -0.82096,2.16666 -3.73241,2.16666 -2.03125,0 -3.09765,-1.21028 -1.05794,-1.21029 -1.05794,-3.597 0,-2.26823 1.05794,-3.47851 1.0664,-1.21029 3.0384,-1.21029 4.03711,0 4.03711,4.86653 v 0.20313 z m 4.95963,-1.16797 q -0.12695,-1.44726 -0.73633,-2.10742 -0.60937,-0.66862 -1.75195,-0.66862 -1.10872,0 -1.76041,0.74479 -0.64323,0.73633 -0.69401,2.03125 z m 9.32681,5.42512 v -5.80598 q 0,-0.9056 -0.17774,-1.40494 -0.17773,-0.49935 -0.56705,-0.7194 -0.38932,-0.22006 -1.14258,-0.22006 -1.10026,0 -1.73502,0.75326 -0.63477,0.75325 -0.63477,2.09049 v 5.30663 h -1.52343 v -7.20246 q 0,-1.59961 -0.0508,-1.95508 h 1.4388 q 0.008,0.0423 0.0169,0.22852 0.008,0.1862 0.0169,0.43164 0.0169,0.23698 0.0339,0.9056 h 0.0254 q 0.52474,-0.94792 1.21028,-1.33724 0.69401,-0.39779 1.7181,-0.39779 1.5065,0 2.20051,0.75326 0.70248,0.74479 0.70248,2.47135 v 6.1022 z m 3.36002,0 v -1.1595 l 5.12043,-6.82161 h -4.83267 v -1.17643 h 6.6354 v 1.15951 l -5.1289,6.8216 h 5.30663 v 1.17643 z"
       id="text85"
       style="font-size:17.3333px;line-height:0.9;font-family='Liberation Sans,Arial,Helvetica,sans-serif';-inkscape-font-specification:'Liberation Sans, Normal';text-align:center;text-anchor:middle;stroke-width:1.2;stroke-linejoin:round"
       aria-label="Sequenz" /><path
       d="m 414.78218,176.79663 q 0,1.65039 -1.29492,2.55599 -1.28645,0.90559 -3.63085,0.90559 -4.35872,0 -5.05272,-3.02994 l 1.56575,-0.31315 q 0.27083,1.07487 1.15104,1.58268 0.8802,0.49935 2.39517,0.49935 1.56576,0 2.41211,-0.5332 0.85481,-0.54167 0.85481,-1.58268 0,-0.58399 -0.27083,-0.94792 -0.26237,-0.36393 -0.74479,-0.60091 -0.48242,-0.23698 -1.15104,-0.39778 -0.66862,-0.16081 -1.48111,-0.34701 -1.41341,-0.31315 -2.14974,-0.6263 -0.72786,-0.31315 -1.15104,-0.69401 -0.42318,-0.38932 -0.65169,-0.9056 -0.22005,-0.51627 -0.22005,-1.18489 0,-1.5319 1.16796,-2.36132 1.17643,-0.82943 3.36002,-0.82943 2.03125,0 3.10612,0.6263 1.07487,0.61784 1.5065,2.11588 l -1.59114,0.2793 q -0.26237,-0.94791 -0.99869,-1.37109 -0.73633,-0.43164 -2.03971,-0.43164 -1.43034,0 -2.18359,0.47396 -0.75326,0.47395 -0.75326,1.41341 0,0.55013 0.28776,0.91406 0.29623,0.35546 0.84636,0.60937 0.55012,0.24544 2.19205,0.60937 0.55013,0.12696 1.09179,0.26237 0.55013,0.12696 1.04948,0.31315 0.49935,0.17774 0.93099,0.42318 0.4401,0.24544 0.76172,0.60091 0.32161,0.35547 0.49934,0.83789 0.1862,0.48242 0.1862,1.13411 z m 1.95508,-7.81183 v -1.45573 h 1.52343 v 1.45573 z m 0,11.10414 v -9.15753 h 1.52343 v 9.15753 z m 7.32941,3.597 q -1.49805,0 -2.38672,-0.59245 -0.88867,-0.58398 -1.14257,-1.66731 l 1.5319,-0.22005 q 0.15234,0.63476 0.66861,0.9733 0.52474,0.34701 1.3711,0.34701 2.27668,0 2.27668,-2.66601 v -1.47266 h -0.0169 q -0.43164,0.88021 -1.1849,1.32878 -0.75325,0.4401 -1.76041,0.4401 -1.68424,0 -2.47981,-1.11718 -0.78711,-1.11719 -0.78711,-3.51237 0,-2.42903 0.84635,-3.58007 0.85482,-1.1595 2.58984,-1.1595 0.97331,0 1.68424,0.44857 0.7194,0.4401 1.10872,1.26106 h 0.0169 q 0,-0.2539 0.0338,-0.88021 0.0339,-0.6263 0.0677,-0.68554 h 1.44727 q -0.0508,0.45703 -0.0508,1.89583 v 6.99933 q 0,3.85937 -3.83397,3.85937 z m 2.319,-8.17576 q 0,-1.11719 -0.30468,-1.92122 -0.30469,-0.8125 -0.86328,-1.23568 -0.55013,-0.43164 -1.2526,-0.43164 -1.16797,0 -1.70117,0.84635 -0.53321,0.84636 -0.53321,2.74219 0,1.8789 0.49935,2.69986 0.49935,0.82096 1.70963,0.82096 0.7194,0 1.278,-0.42317 0.55859,-0.42318 0.86328,-1.21029 0.30468,-0.79557 0.30468,-1.88736 z m 9.66535,4.57876 v -5.80597 q 0,-0.9056 -0.17773,-1.40495 -0.17774,-0.49935 -0.56706,-0.7194 -0.38932,-0.22005 -1.14258,-0.22005 -1.10025,0 -1.73502,0.75325 -0.63476,0.75326 -0.63476,2.09049 v 5.30663 h -1.52344 v -7.20246 q 0,-1.5996 -0.0508,-1.95507 h 1.4388 q 0.008,0.0423 0.0169,0.22851 0.008,0.1862 0.0169,0.43164 0.0169,0.23698 0.0339,0.9056 h 0.0254 q 0.52474,-0.94791 1.21028,-1.33724 0.69401,-0.39778 1.7181,-0.39778 1.50651,0 2.20052,0.75325 0.70247,0.74479 0.70247,2.47135 v 6.1022 z m 6.16145,0.16927 q -1.37956,0 -2.07357,-0.72786 -0.69401,-0.72786 -0.69401,-1.99739 0,-1.42187 0.93099,-2.18359 0.93945,-0.76172 3.02148,-0.8125 l 2.05664,-0.0339 v -0.49935 q 0,-1.11719 -0.47396,-1.59961 -0.47396,-0.48242 -1.48958,-0.48242 -1.02409,0 -1.48958,0.34701 -0.4655,0.347 -0.55859,1.10872 l -1.59115,-0.14388 q 0.38933,-2.47135 3.67317,-2.47135 1.72656,0 2.59831,0.79557 0.87174,0.78711 0.87174,2.28515 v 3.944 q 0,0.67709 0.17773,1.02409 0.17774,0.33854 0.67708,0.33854 0.22006,0 0.49935,-0.0592 v 0.94791 q -0.57552,0.13542 -1.17643,0.13542 -0.84635,0 -1.23567,-0.4401 -0.38086,-0.44857 -0.43164,-1.39649 h -0.0508 q -0.58399,1.04948 -1.36263,1.48958 -0.77018,0.43164 -1.8789,0.43164 z m 0.347,-1.14257 q 0.83789,0 1.48958,-0.38086 0.65169,-0.38086 1.02409,-1.04101 0.38086,-0.66862 0.38086,-1.3711 v -0.75325 l -1.66732,0.0339 q -1.07487,0.0169 -1.63346,0.22005 -0.55013,0.20312 -0.84635,0.6263 -0.29622,0.42317 -0.29622,1.10872 0,0.74479 0.39778,1.15104 0.40625,0.40625 1.15104,0.40625 z m 6.95702,0.9733 v -12.55987 h 1.52344 v 12.55987 z"
       id="text86"
       style="font-size:17.3333px;line-height:0.9;font-family='Liberation Sans,Arial,Helvetica,sans-serif';-inkscape-font-specification:'Liberation Sans, Normal';text-align:center;text-anchor:middle;stroke-width:1.2;stroke-linejoin:round"
       aria-label="Signal" /><path
       d="m 290.77186,195.62662 q 0,1.65039 -1.29492,2.55598 -1.28646,0.9056 -3.63085,0.9056 -4.35872,0 -5.05273,-3.02994 l 1.56576,-0.31315 q 0.27083,1.07487 1.15104,1.58268 0.8802,0.49935 2.39517,0.49935 1.56576,0 2.41211,-0.53321 0.85481,-0.54166 0.85481,-1.58268 0,-0.58398 -0.27083,-0.94791 -0.26237,-0.36393 -0.74479,-0.60091 -0.48242,-0.23698 -1.15104,-0.39779 -0.66862,-0.1608 -1.48112,-0.347 -1.4134,-0.31315 -2.14973,-0.6263 -0.72786,-0.31315 -1.15104,-0.69401 -0.42318,-0.38932 -0.65169,-0.9056 -0.22005,-0.51627 -0.22005,-1.18489 0,-1.5319 1.16796,-2.36133 1.17643,-0.82942 3.36002,-0.82942 2.03125,0 3.10612,0.6263 1.07486,0.61784 1.5065,2.11588 l -1.59114,0.2793 q -0.26237,-0.94792 -0.99869,-1.37109 -0.73633,-0.43164 -2.03971,-0.43164 -1.43034,0 -2.18359,0.47395 -0.75326,0.47396 -0.75326,1.41341 0,0.55013 0.28776,0.91406 0.29623,0.35547 0.84635,0.60938 0.55013,0.24544 2.19206,0.60937 0.55013,0.12695 1.09179,0.26237 0.55013,0.12695 1.04948,0.31315 0.49935,0.17773 0.93099,0.42318 0.4401,0.24544 0.76171,0.60091 0.32162,0.35547 0.49935,0.83789 0.1862,0.48242 0.1862,1.13411 z m 10.64711,3.29231 -3.09765,-4.95116 h -3.71548 v 4.95116 h -1.61654 v -11.92511 h 5.61132 q 2.01432,0 3.10611,0.9056 1.10026,0.89713 1.10026,2.5052 0,1.32878 -0.77864,2.23437 -0.77018,0.9056 -2.13281,1.14258 l 3.38541,5.13736 z m -0.23697,-8.49738 q 0,-1.04101 -0.71094,-1.58268 -0.70247,-0.55013 -2.03125,-0.55013 h -3.83397 v 4.40104 h 3.90168 q 1.27799,0 1.972,-0.59245 0.70248,-0.60091 0.70248,-1.67578 z m 13.5501,0.16081 q 0,1.6927 -1.10872,2.6914 -1.10026,0.99869 -2.99609,0.99869 h -3.5039 v 4.64648 h -1.61653 v -11.92511 h 5.01887 q 2.00585,0 3.10611,0.93945 1.10026,0.93946 1.10026,2.64909 z m -1.625,0.0169 q 0,-2.31054 -2.77603,-2.31054 h -3.20768 v 4.70572 h 3.27538 q 2.70833,0 2.70833,-2.39518 z"
       id="text87"
       style="font-size:17.3333px;line-height:0.9;font-family='Liberation Sans,Arial,Helvetica,sans-serif';-inkscape-font-specification:'Liberation Sans, Normal';stroke-width:1.2;stroke-linejoin:round"
       aria-label="SRP" /><path
       d="m 342.6078,59.22551 -3.09765,-4.951163 h -3.71549 v 4.951163 h -1.61653 V 47.300403 h 5.61132 q 2.01431,0 3.10611,0.905597 1.10026,0.897133 1.10026,2.505203 0,1.328774 -0.77865,2.234371 -0.77018,0.905597 -2.13281,1.142576 l 3.38541,5.13736 z m -0.23698,-8.49738 q 0,-1.041013 -0.71094,-1.582679 -0.70247,-0.550129 -2.03124,-0.550129 h -3.83398 v 4.401033 h 3.90169 q 1.27799,0 1.972,-0.592447 0.70247,-0.60091 0.70247,-1.675778 z m 4.06249,-2.606765 v -1.455727 h 1.52344 v 1.455727 z m 0,11.104145 v -9.157535 h 1.52344 v 9.157535 z m 11.6035,-4.621085 q 0,4.790355 -3.36849,4.790355 -1.04101,0 -1.73502,-0.372395 -0.68555,-0.380859 -1.11719,-1.218748 h -0.0169 q 0,0.26237 -0.0339,0.804035 -0.0339,0.533202 -0.0508,0.617838 h -1.47265 q 0.0508,-0.457031 0.0508,-1.887366 V 46.665638 h 1.52343 v 3.580071 q 0,0.55013 -0.0338,1.29492 h 0.0338 q 0.42318,-0.880207 1.11719,-1.261066 0.70247,-0.380858 1.73502,-0.380858 1.73503,0 2.54752,1.167966 0.82097,1.167967 0.82097,3.537754 z m -1.59961,0.05078 q 0,-1.92122 -0.50781,-2.750646 -0.50781,-0.829425 -1.65039,-0.829425 -1.28646,0 -1.8789,0.880206 -0.58399,0.880207 -0.58399,2.792964 0,1.802731 0.57552,2.66601 0.57552,0.854816 1.87044,0.854816 1.15104,0 1.65885,-0.846352 0.51628,-0.854816 0.51628,-2.767573 z m 11.23956,-0.01693 q 0,2.403641 -1.05794,3.580071 -1.05794,1.17643 -3.07226,1.17643 -2.00585,0 -3.02994,-1.218747 -1.02409,-1.227212 -1.02409,-3.537754 0,-4.739574 4.10481,-4.739574 2.09896,0 3.08919,1.159503 0.99023,1.151039 0.99023,3.580071 z m -1.5996,0 q 0,-1.89583 -0.56706,-2.750646 -0.55859,-0.863279 -1.88737,-0.863279 -1.33723,0 -1.93814,0.880206 -0.59245,0.871743 -0.59245,2.733719 0,1.811194 0.58398,2.725255 0.59245,0.905597 1.85351,0.905597 1.3711,0 1.95508,-0.880206 0.59245,-0.880207 0.59245,-2.750646 z m 10.36781,2.056637 q 0,1.294919 -0.98177,1.997392 -0.9733,0.702472 -2.73371,0.702472 -1.70964,0 -2.64062,-0.558593 -0.92253,-0.567056 -1.20182,-1.760413 l 1.3457,-0.262369 q 0.19466,0.736327 0.80403,1.083331 0.60938,0.338541 1.69271,0.338541 1.1595,0 1.6927,-0.355468 0.54167,-0.355468 0.54167,-1.066404 0,-0.541666 -0.3724,-0.880207 -0.37239,-0.338541 -1.20182,-0.558592 l -1.09179,-0.28776 q -1.31185,-0.338541 -1.87044,-0.660155 -0.55013,-0.330078 -0.86328,-0.795572 -0.31315,-0.465493 -0.31315,-1.142575 0,-1.252602 0.88867,-1.904294 0.89713,-0.660155 2.60676,-0.660155 1.51497,0 2.40364,0.533203 0.89714,0.533202 1.13412,1.709632 l -1.37109,0.16927 q -0.12696,-0.609374 -0.68555,-0.930988 -0.55013,-0.330077 -1.48112,-0.330077 -1.03255,0 -1.52343,0.31315 -0.49089,0.313151 -0.49089,0.947915 0,0.389322 0.20313,0.643228 0.20312,0.253906 0.60091,0.43164 0.39778,0.177734 1.67578,0.490884 1.21028,0.304687 1.74348,0.567056 0.53321,0.253906 0.83789,0.567057 0.31315,0.31315 0.48242,0.727863 0.16927,0.406249 0.16927,0.930988 z m 9.5384,-2.056637 q 0,2.403641 -1.05794,3.580071 -1.05795,1.17643 -3.07226,1.17643 -2.00586,0 -3.02995,-1.218747 -1.02408,-1.227212 -1.02408,-3.537754 0,-4.739574 4.10481,-4.739574 2.09895,0 3.08918,1.159503 0.99024,1.151039 0.99024,3.580071 z m -1.59961,0 q 0,-1.89583 -0.56706,-2.750646 -0.55859,-0.863279 -1.88736,-0.863279 -1.33724,0 -1.93815,0.880206 -0.59245,0.871743 -0.59245,2.733719 0,1.811194 0.58399,2.725255 0.59244,0.905597 1.85351,0.905597 1.37109,0 1.95507,-0.880206 0.59245,-0.880207 0.59245,-2.750646 z m 8.82746,4.587231 v -5.805979 q 0,-1.328773 -0.36393,-1.836585 -0.36393,-0.507811 -1.31185,-0.507811 -0.9733,0 -1.54036,0.74479 -0.56706,0.74479 -0.56706,2.098954 v 5.306631 h -1.51497 v -7.20246 q 0,-1.599607 -0.0508,-1.955075 h 1.4388 q 0.008,0.04232 0.0169,0.228516 0.008,0.186197 0.0169,0.431639 0.0169,0.236979 0.0339,0.905598 h 0.0254 q 0.49088,-0.973306 1.12565,-1.354165 0.63476,-0.380858 1.54882,-0.380858 1.04102,0 1.64193,0.414713 0.60937,0.414712 0.84635,1.32031 h 0.0254 q 0.47396,-0.922525 1.14258,-1.328774 0.67708,-0.406249 1.63346,-0.406249 1.38801,0 2.01431,0.753254 0.63477,0.753253 0.63477,2.471349 v 6.102202 h -1.50651 v -5.805979 q 0,-1.328773 -0.36393,-1.836585 -0.36393,-0.507811 -1.31185,-0.507811 -0.99869,0 -1.55728,0.74479 -0.55013,0.736327 -0.55013,2.098954 v 5.306631 z"
       id="text88"
       style="font-size:17.3333px;line-height:0.9;font-family='Liberation Sans,Arial,Helvetica,sans-serif';-inkscape-font-specification:'Liberation Sans, Normal';stroke-width:1.2;stroke-linejoin:round"
       aria-label="Ribosom" /><path
       d="m 483.37612,74.288261 v -5.805978 q 0,-1.328773 -0.36394,-1.836585 -0.36393,-0.507811 -1.31184,-0.507811 -0.97331,0 -1.54036,0.74479 -0.56706,0.74479 -0.56706,2.098954 v 5.30663 h -1.51497 v -7.20246 q 0,-1.599606 -0.0508,-1.955074 h 1.4388 q 0.008,0.04232 0.0169,0.228515 0.008,0.186198 0.0169,0.43164 0.0169,0.236979 0.0339,0.905597 h 0.0254 q 0.49088,-0.973305 1.12565,-1.354164 0.63476,-0.380858 1.54882,-0.380858 1.04101,0 1.64192,0.414712 0.60938,0.414713 0.84636,1.32031 h 0.0254 q 0.47396,-0.922524 1.14257,-1.328773 0.67709,-0.406249 1.63346,-0.406249 1.38802,0 2.01432,0.753253 0.63477,0.753254 0.63477,2.47135 v 6.102201 h -1.50651 v -5.805978 q 0,-1.328773 -0.36393,-1.836585 -0.36393,-0.507811 -1.31185,-0.507811 -0.99869,0 -1.55729,0.74479 -0.55013,0.736327 -0.55013,2.098954 v 5.30663 z m 17.79033,0 -3.09765,-4.951162 h -3.71549 v 4.951162 h -1.61653 V 62.363154 h 5.61131 q 2.01432,0 3.10612,0.905598 1.10025,0.897133 1.10025,2.505203 0,1.328774 -0.77864,2.234371 -0.77018,0.905597 -2.13281,1.142576 l 3.38541,5.137359 z m -0.23698,-8.497379 q 0,-1.041014 -0.71094,-1.582679 -0.70247,-0.550129 -2.03124,-0.550129 h -3.83398 v 4.401033 h 3.90168 q 1.278,0 1.97201,-0.592447 0.70247,-0.60091 0.70247,-1.675778 z m 12.06052,8.497379 -6.3815,-10.15623 0.0423,0.820962 0.0423,1.413409 v 7.921859 h -1.4388 V 62.363154 h 1.8789 l 6.44921,10.223939 q -0.10156,-1.658851 -0.10156,-2.403641 v -7.820298 h 1.45572 v 11.925107 z m 13.23695,0 -1.36262,-3.486972 h -5.43359 l -1.37109,3.486972 h -1.67578 l 4.86653,-11.925107 h 1.83659 l 4.79035,11.925107 z m -4.07942,-10.706359 -0.0762,0.236979 q -0.21159,0.702472 -0.6263,1.802731 l -1.52343,3.918612 h 4.46028 L 522.85,65.604685 q -0.23698,-0.583984 -0.47396,-1.32031 z"
       id="text89"
       style="font-size:17.3333px;line-height:0.9;font-family='Liberation Sans,Arial,Helvetica,sans-serif';-inkscape-font-specification:'Liberation Sans, Normal';stroke-width:1.2;stroke-linejoin:round"
       aria-label="mRNA" /><path
       d="m 578.15184,120.29469 q -1.98046,0 -3.08072,1.278 -1.10026,1.26952 -1.10026,3.48697 0,2.19205 1.14258,3.52929 1.15104,1.32877 3.10611,1.32877 2.5052,0 3.76627,-2.47981 l 1.32031,0.66015 q -0.73633,1.54037 -2.07356,2.3444 -1.32878,0.80404 -3.08919,0.80404 -1.80273,0 -3.12304,-0.74479 -1.31185,-0.75326 -2.00586,-2.14128 -0.68554,-1.39648 -0.68554,-3.30077 0,-2.85221 1.54036,-4.46874 1.54036,-1.61654 4.26562,-1.61654 1.90429,0 3.18228,0.74479 1.27799,0.74479 1.8789,2.20898 l -1.53189,0.50782 q -0.41472,-1.04102 -1.33724,-1.59115 -0.91406,-0.55013 -2.17513,-0.55013 z m 7.43098,14.37953 q -0.6263,0 -1.04948,-0.0931 v -1.14257 q 0.32161,0.0508 0.71094,0.0508 1.42187,0 2.25129,-2.09049 l 0.14388,-0.36393 -3.63085,-9.11522 h 1.625 l 1.92968,5.06119 q 0.0423,0.11849 0.10156,0.28776 0.0593,0.16081 0.38086,1.10026 0.32162,0.93945 0.34701,1.04947 l 0.59244,-1.66731 2.00586,-5.83137 h 1.60807 l -3.52083,9.15753 q -0.56705,1.46419 -1.05794,2.17513 -0.49088,0.7194 -1.09179,1.0664 -0.59245,0.35547 -1.3457,0.35547 z m 11.73891,-3.6647 q -0.75326,0.20312 -1.54036,0.20312 -1.82813,0 -1.82813,-2.07356 v -6.11067 h -1.05794 v -1.10872 h 1.11719 l 0.44857,-2.04817 h 1.01562 v 2.04817 h 1.6927 v 1.10872 h -1.6927 v 5.78059 q 0,0.66015 0.21159,0.93099 0.22005,0.26237 0.75325,0.26237 0.30469,0 0.88021,-0.11849 z m 9.03904,-4.51953 q 0,2.40365 -1.05794,3.58008 -1.05794,1.17643 -3.07226,1.17643 -2.00585,0 -3.02994,-1.21875 -1.02409,-1.22721 -1.02409,-3.53776 0,-4.73957 4.10481,-4.73957 2.09896,0 3.08919,1.1595 0.99023,1.15104 0.99023,3.58007 z m -1.59961,0 q 0,-1.89583 -0.56705,-2.75064 -0.55859,-0.86328 -1.88737,-0.86328 -1.33723,0 -1.93814,0.88021 -0.59245,0.87174 -0.59245,2.73371 0,1.8112 0.58398,2.72526 0.59245,0.9056 1.85351,0.9056 1.37109,0 1.95508,-0.88021 0.59244,-0.88021 0.59244,-2.75065 z m 10.36782,2.05664 q 0,1.29492 -0.98177,1.99739 -0.9733,0.70248 -2.73371,0.70248 -1.70964,0 -2.64062,-0.5586 -0.92253,-0.56705 -1.20182,-1.76041 l 1.3457,-0.26237 q 0.19466,0.73633 0.80403,1.08333 0.60937,0.33854 1.69271,0.33854 1.1595,0 1.6927,-0.35547 0.54167,-0.35546 0.54167,-1.0664 0,-0.54167 -0.3724,-0.88021 -0.37239,-0.33854 -1.20182,-0.55859 l -1.09179,-0.28776 q -1.31185,-0.33854 -1.87044,-0.66015 -0.55013,-0.33008 -0.86328,-0.79558 -0.31315,-0.46549 -0.31315,-1.14257 0,-1.2526 0.88867,-1.90429 0.89713,-0.66016 2.60676,-0.66016 1.51497,0 2.40364,0.5332 0.89714,0.5332 1.13412,1.70963 l -1.37109,0.16928 q -0.12696,-0.60938 -0.68555,-0.93099 -0.55013,-0.33008 -1.48112,-0.33008 -1.03255,0 -1.52343,0.31315 -0.49089,0.31315 -0.49089,0.94792 0,0.38932 0.20313,0.64322 0.20312,0.25391 0.60091,0.43164 0.39778,0.17774 1.67578,0.49089 1.21028,0.30468 1.74348,0.56705 0.53321,0.25391 0.83789,0.56706 0.31315,0.31315 0.48242,0.72786 0.16927,0.40625 0.16927,0.93099 z m 9.5384,-2.05664 q 0,2.40365 -1.05795,3.58008 -1.05794,1.17643 -3.07225,1.17643 -2.00586,0 -3.02995,-1.21875 -1.02408,-1.22721 -1.02408,-3.53776 0,-4.73957 4.10481,-4.73957 2.09895,0 3.08918,1.1595 0.99024,1.15104 0.99024,3.58007 z m -1.59961,0 q 0,-1.89583 -0.56706,-2.75064 -0.55859,-0.86328 -1.88736,-0.86328 -1.33724,0 -1.93815,0.88021 -0.59245,0.87174 -0.59245,2.73371 0,1.8112 0.58399,2.72526 0.59244,0.9056 1.85351,0.9056 1.37109,0 1.95507,-0.88021 0.59245,-0.88021 0.59245,-2.75065 z m 3.49544,4.58723 v -12.55987 h 1.52343 v 12.55987 z"
       id="text90"
       style="font-size:17.3333px;line-height:0.9;font-family='Liberation Sans,Arial,Helvetica,sans-serif';-inkscape-font-specification:'Liberation Sans, Normal';stroke-width:1.2;stroke-linejoin:round"
       aria-label="Cytosol" /><path
       d="m 60.452913,434.39751 q 0,1.65039 -1.294919,2.55598 -1.286456,0.9056 -3.630852,0.9056 -4.358716,0 -5.052725,-3.02994 l 1.565752,-0.31315 q 0.270833,1.07487 1.15104,1.58268 0.880206,0.49934 2.395177,0.49934 1.565752,0 2.412105,-0.5332 0.854816,-0.54166 0.854816,-1.58268 0,-0.58398 -0.270833,-0.94791 -0.262369,-0.36393 -0.74479,-0.60091 -0.482421,-0.23698 -1.151039,-0.39779 -0.668619,-0.1608 -1.481117,-0.347 -1.413409,-0.31315 -2.149736,-0.6263 -0.727863,-0.31315 -1.151039,-0.69401 -0.423176,-0.38932 -0.651692,-0.9056 -0.220051,-0.51627 -0.220051,-1.18489 0,-1.5319 1.167966,-2.36133 1.17643,-0.82942 3.36002,-0.82942 2.031246,0 3.106113,0.6263 1.074868,0.61784 1.506508,2.11588 l -1.591143,0.2793 q -0.262369,-0.94792 -0.998696,-1.37109 -0.736326,-0.43164 -2.039709,-0.43164 -1.430336,0 -2.18359,0.47395 -0.753254,0.47396 -0.753254,1.41341 0,0.55013 0.28776,0.91406 0.296224,0.35547 0.846353,0.60938 0.550129,0.24544 2.192053,0.60937 0.550129,0.12695 1.091795,0.26237 0.550129,0.12695 1.049477,0.31315 0.499348,0.17773 0.930988,0.42318 0.440103,0.24544 0.761717,0.60091 0.321614,0.35546 0.499348,0.83789 0.186197,0.48242 0.186197,1.13411 z m 3.131505,-0.96484 q 0,1.57421 0.651691,2.42903 0.651691,0.85481 1.904293,0.85481 0.990233,0 1.582679,-0.39778 0.600911,-0.39779 0.812499,-1.00716 l 1.337237,0.38086 q -0.820962,2.16666 -3.732415,2.16666 -2.031246,0 -3.09765,-1.21028 -1.057941,-1.21029 -1.057941,-3.597 0,-2.26823 1.057941,-3.47851 1.066404,-1.21029 3.038405,-1.21029 4.037102,0 4.037102,4.86653 v 0.20313 z m 4.959625,-1.16797 q -0.126953,-1.44726 -0.736326,-2.10742 -0.609374,-0.66862 -1.75195,-0.66862 -1.108722,0 -1.760413,0.74479 -0.643228,0.73633 -0.694009,2.03125 z m 4.671866,0.80403 q 0,1.82813 0.575519,2.70833 0.57552,0.88021 1.735023,0.88021 0.812498,0 1.354164,-0.4401 0.550129,-0.44011 0.677082,-1.35417 l 1.540362,0.10156 q -0.177734,1.32031 -1.125649,2.10742 -0.947915,0.78711 -2.403641,0.78711 -1.921221,0 -2.936844,-1.21028 -1.007159,-1.21875 -1.007159,-3.54622 0,-2.31054 1.015623,-3.52083 1.015623,-1.21875 2.911453,-1.21875 1.404945,0 2.327469,0.72787 0.930988,0.72786 1.167966,2.00585 l -1.565752,0.11849 q -0.118489,-0.76171 -0.60091,-1.21028 -0.482421,-0.44857 -1.371091,-0.44857 -1.210284,0 -1.75195,0.80404 -0.541665,0.80403 -0.541665,2.70832 z m 15.217419,0.7194 q 0,1.88737 -1.024087,2.97917 -1.024086,1.09179 -2.826817,1.09179 -2.014319,0 -3.080723,-1.49804 -1.066404,-1.49805 -1.066404,-4.35872 0,-3.09765 1.108721,-4.7565 1.108722,-1.65885 3.156895,-1.65885 2.699865,0 3.402337,2.42903 l -1.455726,0.26237 q -0.448567,-1.45573 -1.963538,-1.45573 -1.303383,0 -2.022782,1.21875 -0.710936,1.21028 -0.710936,3.51236 0.414712,-0.77018 1.167966,-1.16796 0.753254,-0.40625 1.726559,-0.40625 1.650388,0 2.615229,1.03255 0.973306,1.03255 0.973306,2.77603 z m -1.548825,0.0677 q 0,-1.29492 -0.634765,-1.99739 -0.634764,-0.70247 -1.768876,-0.70247 -1.066405,0 -1.72656,0.6263 -0.651691,0.61784 -0.651691,1.70963 0,1.37956 0.677082,2.25976 0.685546,0.88021 1.75195,0.88021 1.100258,0 1.726559,-0.73633 0.626301,-0.74479 0.626301,-2.03971 z m 3.630852,3.83398 v -1.29492 h 3.038406 v -9.17446 l -2.691401,1.92122 v -1.4388 l 2.818354,-1.93815 h 1.404945 v 10.63019 h 2.902989 v 1.29492 z m 9.089825,-3.92708 v -1.35416 h 4.23176 v 1.35416 z"
       id="text91"
       style="font-size:17.3333px;line-height:0.9;font-family='Liberation Sans,Arial,Helvetica,sans-serif';-inkscape-font-specification:'Liberation Sans, Normal';text-align:center;text-anchor:middle;stroke-width:1.2;stroke-linejoin:round"
       aria-label="Sec61-" /><path
       d="m 53.054076,455.83044 -4.764965,-5.75519 -1.557288,1.18489 v 4.5703 H 45.11529 v -11.9251 h 1.616533 v 5.97525 l 5.746733,-5.97525 h 1.904294 l -5.078115,5.17967 5.755197,6.74543 z m 11.112609,-4.58723 q 0,2.40364 -1.057941,3.58007 -1.057941,1.17643 -3.07226,1.17643 -2.005855,0 -3.029942,-1.21874 -1.024086,-1.22721 -1.024086,-3.53776 0,-4.73957 4.10481,-4.73957 2.098954,0 3.089186,1.1595 0.990233,1.15104 0.990233,3.58007 z m -1.599607,0 q 0,-1.89583 -0.567056,-2.75064 -0.558592,-0.86328 -1.887366,-0.86328 -1.337237,0 -1.938147,0.88021 -0.592447,0.87174 -0.592447,2.73371 0,1.8112 0.583983,2.72526 0.592447,0.9056 1.853512,0.9056 1.371091,0 1.955075,-0.88021 0.592446,-0.88021 0.592446,-2.75065 z m 8.827457,4.58723 v -5.80597 q 0,-1.32878 -0.363932,-1.83659 -0.363932,-0.50781 -1.311846,-0.50781 -0.973306,0 -1.540362,0.74479 -0.567056,0.74479 -0.567056,2.09895 v 5.30663 h -1.514971 v -7.20246 q 0,-1.5996 -0.05078,-1.95507 h 1.438799 q 0.0085,0.0423 0.01693,0.22852 0.0085,0.18619 0.01693,0.43164 0.01693,0.23697 0.03385,0.90559 h 0.02539 q 0.490884,-0.9733 1.125649,-1.35416 0.634764,-0.38086 1.548825,-0.38086 1.041013,0 1.641924,0.41471 0.609373,0.41472 0.846352,1.32031 h 0.02539 q 0.473957,-0.92252 1.142576,-1.32877 0.677082,-0.40625 1.63346,-0.40625 1.388018,0 2.014319,0.75325 0.634764,0.75326 0.634764,2.47135 v 6.1022 h -1.506507 v -5.80597 q 0,-1.32878 -0.363932,-1.83659 -0.363931,-0.50781 -1.311846,-0.50781 -0.998696,0 -1.557289,0.74479 -0.550129,0.73633 -0.550129,2.09895 v 5.30663 z m 16.850878,-4.62108 q 0,4.79035 -3.368483,4.79035 -2.115881,0 -2.843744,-1.59114 h -0.04232 q 0.03385,0.0677 0.03385,1.4388 v 3.58007 h -1.523434 v -10.88409 q 0,-1.41341 -0.05078,-1.87044 h 1.472653 q 0.0085,0.0338 0.02539,0.24544 0.01693,0.20313 0.03385,0.63477 0.02539,0.43164 0.02539,0.59244 h 0.03385 q 0.40625,-0.84635 1.074868,-1.23567 0.668619,-0.39779 1.760413,-0.39779 1.692705,0 2.530594,1.13412 0.837889,1.13411 0.837889,3.56314 z m -1.599606,0.0338 q 0,-1.91275 -0.516275,-2.73371 -0.516275,-0.82097 -1.641924,-0.82097 -0.905597,0 -1.421872,0.38086 -0.507812,0.38086 -0.778644,1.19336 -0.26237,0.80403 -0.26237,2.09895 0,1.80273 0.57552,2.65755 0.57552,0.85482 1.870439,0.85482 1.134113,0 1.650388,-0.82943 0.524738,-0.83789 0.524738,-2.80143 z m 3.495438,4.58723 v -12.55987 h 1.523435 v 12.55987 z m 5.018869,-4.25715 q 0,1.57422 0.651692,2.42903 0.651691,0.85482 1.904293,0.85482 0.990232,0 1.582679,-0.39779 0.60091,-0.39778 0.812502,-1.00716 l 1.33723,0.38086 q -0.82096,2.16666 -3.732411,2.16666 -2.031246,0 -3.09765,-1.21028 -1.057941,-1.21028 -1.057941,-3.597 0,-2.26822 1.057941,-3.47851 1.066404,-1.21028 3.038405,-1.21028 4.037106,0 4.037106,4.86653 v 0.20312 z m 4.959626,-1.16797 q -0.126953,-1.44726 -0.736327,-2.10741 -0.609373,-0.66862 -1.751949,-0.66862 -1.108722,0 -1.760414,0.74479 -0.643228,0.73633 -0.694009,2.03124 z m 9.12368,5.42512 -2.46288,-3.7578 -2.47982,3.7578 h -1.64192 l 3.25846,-4.70572 -3.10612,-4.45181 h 1.68424 l 2.28516,3.56314 2.26822,-3.56314 h 1.70117 l -3.10611,4.43489 3.30077,4.72264 z"
       id="text92"
       style="font-size:17.3333px;line-height:0.9;font-family='Liberation Sans,Arial,Helvetica,sans-serif';-inkscape-font-specification:'Liberation Sans, Normal';text-align:center;text-anchor:middle;stroke-width:1.2;stroke-linejoin:round"
       aria-label="Komplex" /><path
       d="m 163.37352,434.39751 q 0,1.65039 -1.29492,2.55598 -1.28645,0.9056 -3.63085,0.9056 -4.35871,0 -5.05272,-3.02994 l 1.56575,-0.31315 q 0.27083,1.07487 1.15104,1.58268 0.88021,0.49934 2.39518,0.49934 1.56575,0 2.4121,-0.5332 0.85482,-0.54166 0.85482,-1.58268 0,-0.58398 -0.27084,-0.94791 -0.26236,-0.36393 -0.74479,-0.60091 -0.48242,-0.23698 -1.15103,-0.39779 -0.66862,-0.1608 -1.48112,-0.347 -1.41341,-0.31315 -2.14974,-0.6263 -0.72786,-0.31315 -1.15104,-0.69401 -0.42317,-0.38932 -0.65169,-0.9056 -0.22005,-0.51627 -0.22005,-1.18489 0,-1.5319 1.16797,-2.36133 1.17643,-0.82942 3.36002,-0.82942 2.03124,0 3.10611,0.6263 1.07487,0.61784 1.50651,2.11588 l -1.59115,0.2793 q -0.26236,-0.94792 -0.99869,-1.37109 -0.73633,-0.43164 -2.03971,-0.43164 -1.43034,0 -2.18359,0.47395 -0.75325,0.47396 -0.75325,1.41341 0,0.55013 0.28776,0.91406 0.29622,0.35547 0.84635,0.60938 0.55013,0.24544 2.19205,0.60937 0.55013,0.12695 1.0918,0.26237 0.55013,0.12695 1.04947,0.31315 0.49935,0.17773 0.93099,0.42318 0.4401,0.24544 0.76172,0.60091 0.32161,0.35546 0.49935,0.83789 0.18619,0.48242 0.18619,1.13411 z m 10.64712,3.29231 -3.09765,-4.95116 h -3.71549 v 4.95116 h -1.61653 v -11.92511 h 5.61131 q 2.01432,0 3.10612,0.9056 1.10026,0.89713 1.10026,2.5052 0,1.32878 -0.77865,2.23437 -0.77018,0.9056 -2.13281,1.14258 l 3.38541,5.13736 z m -0.23698,-8.49738 q 0,-1.04101 -0.71094,-1.58268 -0.70247,-0.55013 -2.03124,-0.55013 h -3.83398 v 4.40103 h 3.90169 q 1.27799,0 1.972,-0.59244 0.70247,-0.60091 0.70247,-1.67578 z m 13.5501,0.16081 q 0,1.6927 -1.10872,2.6914 -1.10026,0.99869 -2.99609,0.99869 h -3.5039 v 4.64648 h -1.61653 v -11.92511 h 5.01887 q 2.00586,0 3.10611,0.93945 1.10026,0.93945 1.10026,2.64909 z m -1.62499,0.0169 q 0,-2.31054 -2.77604,-2.31054 h -3.20768 v 4.70572 h 3.27539 q 2.70833,0 2.70833,-2.39518 z m 3.30923,4.39257 v -1.35416 h 4.23177 v 1.35416 z"
       id="text93"
       style="font-size:17.3333px;line-height:0.9;font-family='Liberation Sans,Arial,Helvetica,sans-serif';-inkscape-font-specification:'Liberation Sans, Normal';text-align:center;text-anchor:middle;stroke-width:1.2;stroke-linejoin:round"
       aria-label="SRP-" /><path
       d="m 148.99335,455.18411 -3.09765,-4.95116 h -3.71549 v 4.95116 h -1.61653 v -11.9251 h 5.61132 q 2.01432,0 3.10611,0.90559 1.10026,0.89714 1.10026,2.50521 0,1.32877 -0.77865,2.23437 -0.77018,0.90559 -2.1328,1.14257 l 3.38541,5.13736 z m -0.23698,-8.49738 q 0,-1.04101 -0.71093,-1.58268 -0.70248,-0.55013 -2.03125,-0.55013 h -3.83398 v 4.40104 h 3.90169 q 1.27799,0 1.972,-0.59245 0.70247,-0.60091 0.70247,-1.67578 z m 5.23892,4.24023 q 0,1.57422 0.65169,2.42903 0.6517,0.85482 1.9043,0.85482 0.99023,0 1.58268,-0.39779 0.60091,-0.39778 0.8125,-1.00716 l 1.33723,0.38086 q -0.82096,2.16666 -3.73241,2.16666 -2.03125,0 -3.09765,-1.21028 -1.05794,-1.21029 -1.05794,-3.597 0,-2.26822 1.05794,-3.47851 1.0664,-1.21028 3.0384,-1.21028 4.03711,0 4.03711,4.86652 v 0.20313 z m 4.95963,-1.16797 q -0.12695,-1.44726 -0.73633,-2.10741 -0.60937,-0.66862 -1.75195,-0.66862 -1.10872,0 -1.76041,0.74479 -0.64323,0.73632 -0.69401,2.03124 z m 3.04687,5.42512 v -1.1595 l 5.12043,-6.8216 h -4.83267 v -1.17643 h 6.6354 v 1.1595 l -5.12889,6.8216 h 5.30663 v 1.17643 z m 10.30011,-4.25715 q 0,1.57422 0.65169,2.42903 0.65169,0.85482 1.90429,0.85482 0.99023,0 1.58268,-0.39779 0.60091,-0.39778 0.8125,-1.00716 l 1.33724,0.38086 q -0.82096,2.16666 -3.73242,2.16666 -2.03124,0 -3.09765,-1.21028 -1.05794,-1.21029 -1.05794,-3.597 0,-2.26822 1.05794,-3.47851 1.06641,-1.21028 3.03841,-1.21028 4.0371,0 4.0371,4.86652 v 0.20313 z m 4.95962,-1.16797 q -0.12695,-1.44726 -0.73632,-2.10741 -0.60938,-0.66862 -1.75195,-0.66862 -1.10872,0 -1.76042,0.74479 -0.64322,0.73632 -0.69401,2.03124 z m 11.25649,0.80404 q 0,4.79035 -3.36848,4.79035 -2.11588,0 -2.84374,-1.59114 h -0.0423 q 0.0339,0.0677 0.0339,1.4388 v 3.58007 h -1.52343 v -10.88409 q 0,-1.41341 -0.0508,-1.87044 h 1.47265 q 0.008,0.0338 0.0254,0.24544 0.0169,0.20313 0.0339,0.63476 0.0254,0.43164 0.0254,0.59245 h 0.0339 q 0.40625,-0.84635 1.07487,-1.23567 0.66862,-0.39779 1.76041,-0.39779 1.69271,0 2.5306,1.13411 0.83788,1.13412 0.83788,3.56315 z m -1.5996,0.0338 q 0,-1.91275 -0.51628,-2.73372 -0.51627,-0.82096 -1.64192,-0.82096 -0.9056,0 -1.42187,0.38086 -0.50781,0.38086 -0.77865,1.19336 -0.26237,0.80403 -0.26237,2.09895 0,1.80273 0.57552,2.65755 0.57552,0.85481 1.87044,0.85481 1.13411,0 1.65039,-0.82942 0.52474,-0.83789 0.52474,-2.80143 z m 7.01626,4.51952 q -0.75325,0.20313 -1.54036,0.20313 -1.82812,0 -1.82812,-2.07356 v -6.11067 h -1.05794 v -1.10872 h 1.11718 l 0.44857,-2.04817 h 1.01562 v 2.04817 h 1.69271 v 1.10872 h -1.69271 v 5.78059 q 0,0.66015 0.21159,0.93099 0.22005,0.26236 0.75325,0.26236 0.30469,0 0.88021,-0.11848 z m 9.03904,-4.51952 q 0,2.40364 -1.05794,3.58007 -1.05794,1.17643 -3.07226,1.17643 -2.00585,0 -3.02994,-1.21874 -1.02408,-1.22722 -1.02408,-3.53776 0,-4.73957 4.10481,-4.73957 2.09895,0 3.08918,1.1595 0.99023,1.15104 0.99023,3.58007 z m -1.5996,0 q 0,-1.89583 -0.56706,-2.75064 -0.55859,-0.86328 -1.88736,-0.86328 -1.33724,0 -1.93815,0.8802 -0.59245,0.87175 -0.59245,2.73372 0,1.8112 0.58398,2.72526 0.59245,0.90559 1.85352,0.90559 1.37109,0 1.95507,-0.8802 0.59245,-0.88021 0.59245,-2.75065 z m 3.52929,4.58723 v -7.02472 q 0,-0.96485 -0.0508,-2.13281 h 1.43879 q 0.0677,1.55729 0.0677,1.87044 h 0.0339 q 0.36393,-1.17643 0.83789,-1.60807 0.47395,-0.43164 1.33723,-0.43164 0.30469,0 0.61784,0.0846 v 1.39648 q -0.30469,-0.0846 -0.8125,-0.0846 -0.94791,0 -1.44726,0.82096 -0.49935,0.8125 -0.49935,2.33593 v 4.77343 z"
       id="text94"
       style="font-size:17.3333px;line-height:0.9;font-family='Liberation Sans,Arial,Helvetica,sans-serif';-inkscape-font-specification:'Liberation Sans, Normal';text-align:center;text-anchor:middle;stroke-width:1.2;stroke-linejoin:round"
       aria-label="Rezeptor" /><path
       d="m 337.16822,434.39751 q 0,1.65039 -1.29492,2.55598 -1.28645,0.9056 -3.63085,0.9056 -4.35871,0 -5.05272,-3.02994 l 1.56575,-0.31315 q 0.27083,1.07487 1.15104,1.58268 0.8802,0.49934 2.39518,0.49934 1.56575,0 2.4121,-0.5332 0.85482,-0.54166 0.85482,-1.58268 0,-0.58398 -0.27084,-0.94791 -0.26237,-0.36393 -0.74479,-0.60091 -0.48242,-0.23698 -1.15104,-0.39779 -0.66861,-0.1608 -1.48111,-0.347 -1.41341,-0.31315 -2.14974,-0.6263 -0.72786,-0.31315 -1.15104,-0.69401 -0.42317,-0.38932 -0.65169,-0.9056 -0.22005,-0.51627 -0.22005,-1.18489 0,-1.5319 1.16797,-2.36133 1.17643,-0.82942 3.36001,-0.82942 2.03125,0 3.10612,0.6263 1.07487,0.61784 1.50651,2.11588 l -1.59115,0.2793 q -0.26237,-0.94792 -0.99869,-1.37109 -0.73633,-0.43164 -2.03971,-0.43164 -1.43034,0 -2.18359,0.47395 -0.75326,0.47396 -0.75326,1.41341 0,0.55013 0.28776,0.91406 0.29623,0.35547 0.84636,0.60938 0.55013,0.24544 2.19205,0.60937 0.55013,0.12695 1.09179,0.26237 0.55013,0.12695 1.04948,0.31315 0.49935,0.17773 0.93099,0.42318 0.4401,0.24544 0.76172,0.60091 0.32161,0.35546 0.49934,0.83789 0.1862,0.48242 0.1862,1.13411 z m 11.44269,-5.04426 q 0,1.6927 -1.10872,2.6914 -1.10026,0.99869 -2.99609,0.99869 h -3.5039 v 4.64648 h -1.61653 v -11.92511 h 5.01887 q 2.00585,0 3.10611,0.93945 1.10026,0.93945 1.10026,2.64909 z m -1.625,0.0169 q 0,-2.31054 -2.77603,-2.31054 h -3.20768 v 4.70572 h 3.27538 q 2.70833,0 2.70833,-2.39518 z m 3.30924,4.39257 v -1.35416 h 4.23176 v 1.35416 z m 14.3626,3.92708 -4.76496,-5.7552 -1.55729,1.1849 v 4.5703 h -1.61654 v -11.92511 h 1.61654 v 5.97525 l 5.74673,-5.97525 h 1.90429 l -5.07811,5.17968 5.7552,6.74543 z m 11.11261,-4.58723 q 0,2.40364 -1.05794,3.58007 -1.05794,1.17643 -3.07226,1.17643 -2.00585,0 -3.02994,-1.21875 -1.02409,-1.22721 -1.02409,-3.53775 0,-4.73958 4.10481,-4.73958 2.09896,0 3.08919,1.15951 0.99023,1.15104 0.99023,3.58007 z m -1.59961,0 q 0,-1.89583 -0.56705,-2.75065 -0.55859,-0.86328 -1.88737,-0.86328 -1.33723,0 -1.93815,0.88021 -0.59244,0.87174 -0.59244,2.73372 0,1.81119 0.58398,2.72525 0.59245,0.9056 1.85351,0.9056 1.37109,0 1.95508,-0.88021 0.59244,-0.8802 0.59244,-2.75064 z m 8.82746,4.58723 v -5.80598 q 0,-1.32877 -0.36393,-1.83658 -0.36393,-0.50782 -1.31185,-0.50782 -0.9733,0 -1.54036,0.74479 -0.56706,0.74479 -0.56706,2.09896 v 5.30663 h -1.51497 v -7.20246 q 0,-1.59961 -0.0508,-1.95507 h 1.4388 q 0.008,0.0423 0.0169,0.22851 0.008,0.1862 0.0169,0.43164 0.0169,0.23698 0.0339,0.9056 h 0.0254 q 0.49088,-0.97331 1.12565,-1.35417 0.63476,-0.38086 1.54882,-0.38086 1.04102,0 1.64193,0.41472 0.60937,0.41471 0.84635,1.32031 h 0.0254 q 0.47396,-0.92253 1.14258,-1.32878 0.67708,-0.40625 1.63346,-0.40625 1.38802,0 2.01432,0.75326 0.63476,0.75325 0.63476,2.47135 v 6.1022 h -1.50651 v -5.80598 q 0,-1.32877 -0.36393,-1.83658 -0.36393,-0.50782 -1.31185,-0.50782 -0.99869,0 -1.55728,0.74479 -0.55013,0.73633 -0.55013,2.09896 v 5.30663 z m 16.85088,-4.62109 q 0,4.79036 -3.36848,4.79036 -2.11589,0 -2.84375,-1.59114 h -0.0423 q 0.0339,0.0677 0.0339,1.4388 v 3.58007 h -1.52344 v -10.8841 q 0,-1.4134 -0.0508,-1.87043 h 1.47266 q 0.008,0.0339 0.0254,0.24544 0.0169,0.20312 0.0338,0.63476 0.0254,0.43164 0.0254,0.59245 h 0.0339 q 0.40625,-0.84635 1.07487,-1.23568 0.66862,-0.39778 1.76042,-0.39778 1.6927,0 2.53059,1.13411 0.83789,1.13411 0.83789,3.56314 z m -1.59961,0.0339 q 0,-1.91276 -0.51627,-2.73372 -0.51628,-0.82096 -1.64193,-0.82096 -0.90559,0 -1.42187,0.38086 -0.50781,0.38086 -0.77864,1.19335 -0.26237,0.80404 -0.26237,2.09896 0,1.80273 0.57552,2.65754 0.57552,0.85482 1.87044,0.85482 1.13411,0 1.65038,-0.82942 0.52474,-0.83789 0.52474,-2.80143 z m 3.49544,4.58723 v -12.55987 h 1.52343 v 12.55987 z m 5.01887,-4.25715 q 0,1.57421 0.65169,2.42903 0.65169,0.85481 1.90429,0.85481 0.99024,0 1.58268,-0.39778 0.60091,-0.39779 0.8125,-1.00716 l 1.33724,0.38086 q -0.82096,2.16666 -3.73242,2.16666 -2.03124,0 -3.09765,-1.21028 -1.05794,-1.21029 -1.05794,-3.597 0,-2.26823 1.05794,-3.47851 1.06641,-1.21029 3.03841,-1.21029 4.0371,0 4.0371,4.86653 v 0.20313 z m 4.95963,-1.16797 q -0.12696,-1.44726 -0.73633,-2.10742 -0.60938,-0.66862 -1.75195,-0.66862 -1.10872,0 -1.76041,0.74479 -0.64323,0.73633 -0.69401,2.03125 z m 9.12367,5.42512 -2.46288,-3.75781 -2.47981,3.75781 h -1.64193 l 3.25846,-4.70572 -3.10612,-4.45181 h 1.68425 l 2.28515,3.56314 2.26822,-3.56314 h 1.70117 l -3.10611,4.43488 3.30077,4.72265 z"
       id="text95"
       style="font-size:17.3333px;line-height:0.9;font-family='Liberation Sans,Arial,Helvetica,sans-serif';-inkscape-font-specification:'Liberation Sans, Normal';stroke-width:1.2;stroke-linejoin:round"
       aria-label="SP-Komplex" /><path
       d="m 466.98381,427.08502 v 10.6048 h -1.60807 v -10.6048 h -4.09634 v -1.32031 h 9.80076 v 1.32031 z m 14.34568,10.6048 -3.09765,-4.95116 h -3.71549 v 4.95116 h -1.61653 v -11.92511 h 5.61131 q 2.01432,0 3.10612,0.9056 1.10026,0.89713 1.10026,2.5052 0,1.32878 -0.77865,2.23437 -0.77018,0.9056 -2.13281,1.14258 l 3.38541,5.13736 z m -0.23698,-8.49738 q 0,-1.04101 -0.71094,-1.58268 -0.70247,-0.55013 -2.03124,-0.55013 h -3.83398 v 4.40103 h 3.90169 q 1.27799,0 1.972,-0.59244 0.70247,-0.60091 0.70247,-1.67578 z m 12.77992,8.49738 -1.36262,-3.48697 h -5.43359 l -1.37109,3.48697 h -1.67578 l 4.86653,-11.92511 h 1.83658 l 4.79036,11.92511 z m -4.07942,-10.70636 -0.0762,0.23698 q -0.21159,0.70247 -0.6263,1.80273 l -1.52343,3.91861 h 4.46027 l -1.53189,-3.93554 q -0.23698,-0.58398 -0.47396,-1.32031 z m 17.32484,10.70636 v -7.95571 q 0,-1.32031 0.0762,-2.53906 -0.41471,1.51497 -0.74479,2.36979 l -3.08072,8.12498 h -1.13411 l -3.12304,-8.12498 -0.47396,-1.4388 -0.2793,-0.93099 0.0254,0.93945 0.0339,1.59961 v 7.95571 h -1.4388 v -11.92511 h 2.12434 l 3.17382,8.26887 q 0.16927,0.49934 0.32162,1.07486 0.1608,0.56706 0.21159,0.82097 0.0677,-0.33854 0.27929,-1.02409 0.22005,-0.69401 0.29623,-0.87174 l 3.11457,-8.26887 h 2.07357 v 11.92511 z"
       id="text96"
       style="font-size:17.3333px;line-height:0.9;font-family='Liberation Sans,Arial,Helvetica,sans-serif';-inkscape-font-specification:'Liberation Sans, Normal';stroke-width:1.2;stroke-linejoin:round"
       aria-label="TRAM" /><path
       d="m 571.73987,475.97018 v -11.9251 h 9.0475 v 1.32031 h -7.43097 v 3.82551 h 6.92316 v 1.30338 h -6.92316 v 4.15559 h 7.77798 v 1.32031 z m 19.99084,0 -3.09765,-4.95116 h -3.71549 v 4.95116 h -1.61653 v -11.9251 h 5.61132 q 2.01432,0 3.10611,0.90559 1.10026,0.89714 1.10026,2.50521 0,1.32877 -0.77864,2.23437 -0.77019,0.9056 -2.13281,1.14257 l 3.38541,5.13736 z m -0.23698,-8.49737 q 0,-1.04102 -0.71093,-1.58268 -0.70248,-0.55013 -2.03125,-0.55013 h -3.83398 v 4.40103 h 3.90169 q 1.27799,0 1.972,-0.59245 0.70247,-0.60091 0.70247,-1.67577 z m 3.67317,4.5703 v -1.35417 h 4.23176 v 1.35417 z m 6.42382,3.92707 v -11.9251 h 1.61653 v 10.60479 h 6.02603 v 1.32031 z m 10.87563,-9.15753 v 5.80598 q 0,0.9056 0.17773,1.40494 0.17773,0.49935 0.56706,0.7194 0.38932,0.22005 1.14257,0.22005 1.10026,0 1.73503,-0.75325 0.63476,-0.75325 0.63476,-2.09049 v -5.30663 h 1.52343 v 7.20246 q 0,1.59961 0.0508,1.95507 h -1.4388 q -0.008,-0.0423 -0.0169,-0.22851 -0.008,-0.1862 -0.0254,-0.42318 -0.008,-0.24544 -0.0254,-0.91406 h -0.0254 q -0.52474,0.94792 -1.21875,1.3457 -0.68555,0.38932 -1.70963,0.38932 -1.50651,0 -2.20898,-0.74479 -0.69401,-0.75325 -0.69401,-2.47981 v -6.1022 z m 13.48239,9.15753 v -5.80597 q 0,-1.32878 -0.36393,-1.83659 -0.36393,-0.50781 -1.31184,-0.50781 -0.97331,0 -1.54037,0.74479 -0.56705,0.74479 -0.56705,2.09895 v 5.30663 h -1.51497 v -7.20246 q 0,-1.5996 -0.0508,-1.95507 h 1.4388 q 0.008,0.0423 0.0169,0.22852 0.008,0.18619 0.0169,0.43164 0.0169,0.23697 0.0339,0.90559 h 0.0254 q 0.49089,-0.9733 1.12565,-1.35416 0.63477,-0.38086 1.54883,-0.38086 1.04101,0 1.64192,0.41471 0.60938,0.41472 0.84636,1.32031 h 0.0254 q 0.47395,-0.92252 1.14257,-1.32877 0.67708,-0.40625 1.63346,-0.40625 1.38802,0 2.01432,0.75325 0.63477,0.75326 0.63477,2.47135 v 6.1022 h -1.50651 v -5.80597 q 0,-1.32878 -0.36393,-1.83659 -0.36394,-0.50781 -1.31185,-0.50781 -0.9987,0 -1.55729,0.74479 -0.55013,0.73633 -0.55013,2.09895 v 5.30663 z m 10.27472,-4.25715 q 0,1.57422 0.6517,2.42903 0.65169,0.85482 1.90429,0.85482 0.99023,0 1.58268,-0.39779 0.60091,-0.39778 0.8125,-1.00716 l 1.33723,0.38086 q -0.82096,2.16666 -3.73241,2.16666 -2.03125,0 -3.09765,-1.21028 -1.05794,-1.21028 -1.05794,-3.597 0,-2.26822 1.05794,-3.47851 1.0664,-1.21028 3.0384,-1.21028 4.03711,0 4.03711,4.86653 v 0.20312 z m 4.95963,-1.16797 q -0.12695,-1.44726 -0.73633,-2.10741 -0.60937,-0.66862 -1.75195,-0.66862 -1.10872,0 -1.76041,0.74479 -0.64323,0.73633 -0.69401,2.03124 z m 9.32681,5.42512 v -5.80597 q 0,-0.9056 -0.17774,-1.40495 -0.17773,-0.49935 -0.56705,-0.7194 -0.38933,-0.22005 -1.14258,-0.22005 -1.10026,0 -1.73502,0.75325 -0.63477,0.75326 -0.63477,2.09049 v 5.30663 h -1.52343 v -7.20246 q 0,-1.5996 -0.0508,-1.95507 h 1.4388 q 0.008,0.0423 0.0169,0.22852 0.008,0.18619 0.0169,0.43164 0.0169,0.23697 0.0339,0.90559 h 0.0254 q 0.52473,-0.94791 1.21028,-1.33723 0.69401,-0.39779 1.7181,-0.39779 1.5065,0 2.20051,0.75325 0.70248,0.74479 0.70248,2.47135 v 6.1022 z"
       id="text97"
       style="font-size:17.3333px;line-height:0.9;font-family='Liberation Sans,Arial,Helvetica,sans-serif';-inkscape-font-specification:'Liberation Sans, Normal';stroke-width:1.2;stroke-linejoin:round"
       aria-label="ER-Lumen" /><path
       d="m 268.54965,127.83943 v -1.29492 h 3.03841 v -9.17446 l -2.69141,1.92122 v -1.4388 l 2.81836,-1.93815 h 1.40494 v 10.63019 h 2.90299 v 1.29492 z"
       id="text98"
       style="font-size:17.3333px;line-height:0.9;font-family='Liberation Sans,Arial,Helvetica,sans-serif';-inkscape-font-specification:'Liberation Sans, Normal';stroke-width:1.2;stroke-linejoin:round"
       aria-label="1" /><path
       d="m 102.31363,201.5675 v -1.07486 q 0.43164,-0.99024 1.04948,-1.74349 0.6263,-0.76172 1.31184,-1.37109 0.68555,-0.61784 1.35417,-1.14258 0.67708,-0.52473 1.21875,-1.04947 0.54166,-0.52474 0.87174,-1.10026 0.33854,-0.57552 0.33854,-1.30338 0,-0.98177 -0.57552,-1.52344 -0.57552,-0.54166 -1.59961,-0.54166 -0.9733,0 -1.60807,0.5332 -0.6263,0.52474 -0.73632,1.48111 l -1.55729,-0.14388 q 0.16927,-1.43033 1.21028,-2.27668 1.04948,-0.84636 2.6914,-0.84636 1.80273,0 2.76758,0.85482 0.9733,0.84635 0.9733,2.4121 0,0.69401 -0.32161,1.37956 -0.31315,0.68554 -0.93945,1.37109 -0.6263,0.68555 -2.39518,2.12435 -0.97331,0.79557 -1.54883,1.43879 -0.57552,0.63477 -0.82942,1.22722 h 6.22069 v 1.29491 z"
       id="text99"
       style="font-size:17.3333px;line-height:0.9;font-family='Liberation Sans,Arial,Helvetica,sans-serif';-inkscape-font-specification:'Liberation Sans, Normal';stroke-width:1.2;stroke-linejoin:round"
       aria-label="2" /><path
       d="m 185.17417,333.83351 q 0,1.65039 -1.04948,2.55599 -1.04948,0.90559 -2.99609,0.90559 -1.81119,0 -2.89452,-0.81249 -1.07487,-0.82097 -1.278,-2.42057 l 1.57422,-0.14388 q 0.30469,2.11588 2.5983,2.11588 1.15104,0 1.80273,-0.56706 0.66016,-0.56705 0.66016,-1.68424 0,-0.9733 -0.75326,-1.51497 -0.74479,-0.55013 -2.15819,-0.55013 h -0.86328 v -1.32031 h 0.82942 q 1.2526,0 1.93815,-0.54166 0.69401,-0.55013 0.69401,-1.51498 0,-0.95637 -0.56706,-1.5065 -0.55859,-0.5586 -1.66731,-0.5586 -1.00716,0 -1.63346,0.51628 -0.61784,0.51627 -0.7194,1.45573 l -1.5319,-0.11849 q 0.16927,-1.46419 1.21028,-2.28516 1.04948,-0.82096 2.6914,-0.82096 1.79427,0 2.7845,0.83789 0.9987,0.82943 0.9987,2.31901 0,1.14257 -0.64323,1.86197 -0.63476,0.71094 -1.85351,0.96485 v 0.0338 q 1.33724,0.14388 2.08203,0.89713 0.74479,0.75326 0.74479,1.89583 z"
       id="text100"
       style="font-size:17.3333px;line-height:0.9;font-family='Liberation Sans,Arial,Helvetica,sans-serif';-inkscape-font-specification:'Liberation Sans, Normal';stroke-width:1.2;stroke-linejoin:round"
       aria-label="3" /><path
       d="m 361.61106,334.42596 v 2.69986 h -1.4388 v -2.69986 h -5.61978 v -1.18489 l 5.45897,-8.04035 h 1.59961 v 8.02342 h 1.67578 v 1.20182 z m -1.4388,-7.50715 q -0.0169,0.0508 -0.23698,0.44857 -0.22005,0.39779 -0.33008,0.55859 l -3.05533,4.5026 -0.45703,0.6263 -0.13542,0.16927 h 4.21484 z"
       id="text101"
       style="font-size:17.3333px;line-height:0.9;font-family='Liberation Sans,Arial,Helvetica,sans-serif';-inkscape-font-specification:'Liberation Sans, Normal';stroke-width:1.2;stroke-linejoin:round"
       aria-label="4" /><path
       d="m 501.92781,333.24107 q 0,1.88736 -1.12565,2.97069 -1.11719,1.08333 -3.10611,1.08333 -1.66732,0 -2.69141,-0.72786 -1.02408,-0.72786 -1.29491,-2.10742 l 1.54036,-0.17773 q 0.48242,1.76888 2.47981,1.76888 1.22721,0 1.92122,-0.73633 0.69401,-0.74479 0.69401,-2.03971 0,-1.12565 -0.70247,-1.81966 -0.69401,-0.69401 -1.87891,-0.69401 -0.61783,0 -1.15104,0.19466 -0.5332,0.19467 -1.0664,0.66016 h -1.48958 l 0.39779,-6.41535 h 6.77928 v 1.29492 h -5.39127 l -0.22851,3.78319 q 0.99023,-0.76172 2.46288,-0.76172 1.76042,0 2.80143,1.03255 1.04948,1.03255 1.04948,2.69141 z"
       id="text102"
       style="font-size:17.3333px;line-height:0.9;font-family='Liberation Sans,Arial,Helvetica,sans-serif';-inkscape-font-specification:'Liberation Sans, Normal';stroke-width:1.2;stroke-linejoin:round"
       aria-label="5" /><path
       d="m 139.81664,286.96748 q 0,-2.90299 1.55729,-4.49413 1.55729,-1.59114 4.37564,-1.59114 1.98047,0 3.21614,0.66861 1.23568,0.66862 1.9043,2.14128 l -1.54036,0.45703 q -0.50782,-1.01563 -1.40495,-1.48112 -0.88867,-0.46549 -2.21744,-0.46549 -2.0651,0 -3.1569,1.2526 -1.09179,1.24414 -1.09179,3.51236 0,2.25976 1.1595,3.57161 1.1595,1.30338 3.20768,1.30338 1.16796,0 2.17512,-0.35547 1.01563,-0.35547 1.64193,-0.96484 v -2.14973 h -3.56315 v -1.35417 h 5.05273 v 4.11327 q -0.94792,0.96485 -2.32747,1.49805 -1.37109,0.52474 -2.97916,0.52474 -1.87044,0 -3.22461,-0.74479 -1.35416,-0.74479 -2.07356,-2.14128 -0.71094,-1.40494 -0.71094,-3.30077 z m 18.70439,-4.58723 v 10.6048 h -1.60806 v -10.6048 h -4.09635 v -1.32031 h 9.80076 v 1.32031 z m 15.14125,2.26822 q 0,1.69271 -1.10872,2.69141 -1.10026,0.99869 -2.99609,0.99869 h -3.5039 v 4.64648 h -1.61653 v -11.92511 h 5.01887 q 2.00586,0 3.10611,0.93945 1.10026,0.93945 1.10026,2.64908 z m -1.62499,0.0169 q 0,-2.31054 -2.77604,-2.31054 h -3.20768 v 4.70572 h 3.27539 q 2.70833,0 2.70833,-2.39518 z"
       id="text103"
       style="font-size:17.3333px;line-height:0.9;font-family='Liberation Sans,Arial,Helvetica,sans-serif';-inkscape-font-specification:'Liberation Sans, Normal';stroke-width:1.2;stroke-linejoin:round"
       aria-label="GTP" /><path
       d="m 182.22758,286.96748 q 0,-2.90299 1.55729,-4.49413 1.55729,-1.59114 4.37564,-1.59114 1.98046,0 3.21614,0.66861 1.23567,0.66862 1.90429,2.14128 l -1.54036,0.45703 q -0.50781,-1.01563 -1.40494,-1.48112 -0.88867,-0.46549 -2.21745,-0.46549 -2.0651,0 -3.15689,1.2526 -1.0918,1.24414 -1.0918,3.51236 0,2.25976 1.1595,3.57161 1.15951,1.30338 3.20768,1.30338 1.16797,0 2.17513,-0.35547 1.01562,-0.35547 1.64192,-0.96484 v -2.14973 h -3.56314 v -1.35417 h 5.05272 v 4.11327 q -0.94791,0.96485 -2.32747,1.49805 -1.37109,0.52474 -2.97916,0.52474 -1.87044,0 -3.2246,-0.74479 -1.35417,-0.74479 -2.07357,-2.14128 -0.71093,-1.40494 -0.71093,-3.30077 z m 24.29878,-0.0677 q 0,1.84505 -0.7194,3.23307 -0.7194,1.37955 -2.03971,2.11588 -1.32031,0.73633 -3.04687,0.73633 h -4.46028 v -11.92511 h 3.94401 q 3.02994,0 4.67186,1.52343 1.65039,1.51497 1.65039,4.3164 z m -1.625,0 q 0,-2.21744 -1.21875,-3.37694 -1.21028,-1.16797 -3.51236,-1.16797 h -2.29361 v 9.33527 h 2.65754 q 1.31185,0 2.30208,-0.57552 0.9987,-0.57552 1.5319,-1.65885 0.5332,-1.08333 0.5332,-2.55599 z m 13.10154,-2.2513 q 0,1.69271 -1.10872,2.69141 -1.10026,0.99869 -2.99609,0.99869 h -3.5039 v 4.64648 h -1.61653 v -11.92511 h 5.01887 q 2.00585,0 3.10611,0.93945 1.10026,0.93945 1.10026,2.64908 z m -1.625,0.0169 q 0,-2.31054 -2.77603,-2.31054 h -3.20768 v 4.70572 h 3.27539 q 2.70832,0 2.70832,-2.39518 z"
       id="text104"
       style="font-size:17.3333px;line-height:0.9;font-family='Liberation Sans,Arial,Helvetica,sans-serif';-inkscape-font-specification:'Liberation Sans, Normal';stroke-width:1.2;stroke-linejoin:round"
       aria-label="GDP" /></g></svg>
