<?xml version="1.0" encoding="UTF-8" standalone="no"?>
<!-- Generator: Adobe Illustrator 25.2.1, SVG Export Plug-In . SVG Version: 6.00 Build 0)  -->

<svg
   version="1.1"
   x="0px"
   y="0px"
   width="495"
   height="256"
   viewBox="0 0 495 256"
   xml:space="preserve"
   id="svg393"
   sodipodi:docname="Histones.svg"
   inkscape:version="1.4.4 (dcaf3e7d9e, 2026-05-05)"
   inkscape:export-filename="Histones.png"
   inkscape:export-xdpi="96"
   inkscape:export-ydpi="96"
   xmlns:inkscape="http://www.inkscape.org/namespaces/inkscape"
   xmlns:sodipodi="http://sodipodi.sourceforge.net/DTD/sodipodi-0.dtd"
   xmlns="http://www.w3.org/2000/svg"
   xmlns:svg="http://www.w3.org/2000/svg"><defs
   id="defs393" /><sodipodi:namedview
   id="namedview393"
   pagecolor="#ffffff"
   bordercolor="#000000"
   borderopacity="0.25"
   inkscape:showpageshadow="2"
   inkscape:pageopacity="0.0"
   inkscape:pagecheckerboard="0"
   inkscape:deskcolor="#d1d1d1"
   inkscape:zoom="1.107411"
   inkscape:cx="327.79157"
   inkscape:cy="235.23334"
   inkscape:window-width="1854"
   inkscape:window-height="1131"
   inkscape:window-x="0"
   inkscape:window-y="0"
   inkscape:window-maximized="1"
   inkscape:current-layer="DNA1" />
<style
   type="text/css"
   id="style1">
	.st0{fill:#441745;}
	.st1{fill:#FFFFFF;}
	.st2{fill:#001E37;}
	.st3{fill:#000020;}
	.st4{opacity:0.4;fill:#91BDA9;}
	.st5{fill:#56978D;}
	.st6{fill:#EC998C;stroke:#AB5C50;stroke-width:0.6;stroke-miterlimit:10;}
	.st7{fill:#B36161;}
	.st8{fill:#E87B6F;}
	.st9{opacity:0.5;fill:#FFFFFF;}
	.st10{fill:#E87B6F;stroke:#AB5C50;stroke-width:0.6;stroke-miterlimit:10;}
	.st11{fill:none;stroke:#231F20;stroke-width:0.3;stroke-linecap:round;stroke-linejoin:round;stroke-miterlimit:10;}
	.st12{fill:none;stroke:#FBB03B;stroke-width:0.3;stroke-miterlimit:10;}
	.st13{opacity:0.5;fill:#91BDA9;}
	.st14{fill:url(#SVGID_1_);}
	.st15{fill:url(#SVGID_2_);}
	.st16{fill:url(#SVGID_3_);}
	.st17{fill:url(#SVGID_4_);}
	.st18{fill:#EE9395;}
	.st19{fill:#84B59F;}
	.st20{fill:#E86C6F;}
	.st21{opacity:0.9;fill:#FFFFFF;}
	.st22{fill:none;stroke:#FFFFFF;stroke-miterlimit:10;}
	.st23{fill:#1B94DA;stroke:#0071BC;stroke-width:0.6;stroke-miterlimit:10;}
	.st24{fill:none;stroke:#EE9395;stroke-miterlimit:10;}
</style>



<g
   id="_nexus"
   transform="translate(-8.0210149,-168.81129)">
	<path
   class="st2"
   d="m 173.19339,326.08704 6.2095,1.16733 c 0,0 3.33206,0.49698 8.93668,-6.44202 5.69734,-7.0538 9.76639,-8.86539 12.39221,-8.77417 l -5.1609,-0.17923 c 0,0 -4.28424,-1.0127 -10.62587,6.52054 -6.57532,7.81094 -9.07263,7.8222 -11.75162,7.70755 z"
   id="path1"
   style="fill:#470827;fill-opacity:1" />
	<path
   class="st3"
   d="m 195.63553,328.38712 6.70251,-0.24069 c 0,0 3.36806,-0.0756 7.71388,-7.86511 4.41771,-7.9183 7.92073,-10.40408 10.52396,-10.7598 l -5.06129,0.88739 c 0,0 -5.0024,0.89594 -9.22084,8.0509 -5.1855,8.79523 -7.99863,9.58569 -10.65822,9.92731 z"
   id="path2"
   style="fill:#610933;fill-opacity:1" />
	<path
   class="st3"
   d="m 216.3203,326.64587 5.5041,-0.98383 c 0,0 2.92836,-1.35663 6.13817,-9.77637 2.87161,-7.53262 5.67735,-11.04382 8.50856,-12.14749 l -5.21858,2.20853 c 0,0 -4.41248,2.10373 -7.69519,9.82239 -4.03527,9.48813 -4.63933,10.21198 -7.23706,10.87677 z"
   id="path3"
   style="fill:#610933;fill-opacity:1" />
	<path
   class="st3"
   d="m 238.23918,320.70325 4.7832,-2.21033 c 0,0 3.45789,-1.65176 3.04652,-10.48535 -0.5015,-10.76929 0.50716,-11.7565 2.8927,-14.23584 l -4.56093,4.30411 c 0,0 -3.07707,2.20938 -2.61996,10.96835 0.47329,9.06876 -0.60392,9.70151 -3.54153,11.65906 z"
   id="path4"
   style="fill:#610933;fill-opacity:1" />
	<path
   class="st2"
   d="m 396.50739,297.28806 -3.83466,-2.65582 c 0,0 -2.68369,-2.1217 -11.2399,0.43503 -8.55624,2.55676 -13.6106,3.30966 -15.94302,1.69427 l 4.14084,2.08401 c 0,0 3.3363,2.7865 13.21066,0.35358 9.87433,-2.43293 10.74463,-3.01383 13.66608,-1.91107 z"
   id="path5"
   style="fill:#470827;fill-opacity:1" />
	<path
   class="st2"
   d="m 340.54642,270.89932 -6.2095,-1.16733 c 0,0 -3.33203,-0.49698 -8.93668,6.44202 -5.69733,7.0538 -9.76639,8.86536 -12.39221,8.77417 l 5.16092,0.17923 c 0,0 4.28424,1.0127 10.62585,-6.52054 6.57532,-7.81094 9.07263,-7.8222 11.75162,-7.70755 z"
   id="path6"
   style="fill:#470827;fill-opacity:1" />
	<path
   class="st3"
   d="m 315.91229,268.53192 -6.01779,0.20044 c 0,0 -3.93973,0.15509 -6.45859,7.5947 -2.56052,7.56268 -6.12332,9.99902 -8.76404,10.36194 l 5.08279,-0.89148 c 0,0 5.01865,-0.89908 7.57034,-7.73486 3.13664,-8.4029 5.88365,-9.18073 8.58729,-9.53074 z"
   id="path7"
   style="fill:#610933;fill-opacity:1" />
	<path
   class="st3"
   d="m 298.25894,269.82236 -5.65314,0.85315 c 0,0 -3.45398,0.43585 -6.66376,8.85559 -2.87164,7.53262 -5.98795,11.42178 -8.81915,12.52545 l 4.64508,-1.9184 c 0,0 4.85394,-1.5058 8.13666,-9.22446 4.03525,-9.48812 5.75659,-10.42654 8.35431,-11.09133 z"
   id="path8"
   style="fill:#610933;fill-opacity:1" />
	<path
   class="st3"
   d="m 279.24234,274.20068 -4.59595,1.49615 c 0,0 -4.24933,1.78308 -4.6022,11.44107 -0.28311,7.74811 -0.80814,9.03223 -3.20862,11.41156 l 4.0285,-2.83661 c 0,0 2.81979,-1.79514 2.97742,-8.48608 0.23456,-9.95446 2.55243,-11.29153 5.40085,-13.02609 z"
   id="path9"
   style="fill:#610933;fill-opacity:1" />
	<path
   class="st3"
   d="m 259.67877,283.15594 -3.8423,3.45258 c 0,0 -3.27318,2.53354 -0.3343,12.08948 2.82327,9.18002 0.45657,10.69684 -1.01138,12.39764 l 3.51495,-3.15509 c 0,0 3.7099,-3.33392 1.31424,-11.00864 -3.07965,-9.86587 -1.72534,-11.49395 0.35879,-13.77597 z"
   id="path10"
   style="fill:#610933;fill-opacity:1" />
	<path
   class="st2"
   d="m 379.16763,285.52075 -4.84366,-2.73325 c 0,0 -2.68491,-1.00137 -10.32391,3.11685 -7.98135,4.30276 -11.00015,6.12424 -13.39972,5.05405 l 5.7048,1.81973 c 0,0 1.97592,0.92538 9.95801,-3.20618 8.74515,-4.52654 9.9075,-5.12703 12.90448,-4.0512 z"
   id="path11"
   style="display:inline;fill:#470827;fill-opacity:1" />
	<path
   class="st4"
   d="m 400.03802,300.02231 -18.96964,-13.15558 c -43.83041,-28.80228 -106.59137,-19.8056 -127.68265,1.81934 -1.77022,1.815 -3.34656,3.62387 -4.74397,5.42267 l -2.73164,2.57202 c -15.39508,14.57068 -46.43686,19.37125 -77.03156,11.59235 l 0.96909,17.54596 c 35.62941,7.30579 72.24777,-1.28806 88.08676,-17.86081 1.38693,-1.4512 2.68167,-2.87036 3.84766,-4.29779 l 0.54977,-0.52414 c 0.92035,-1.06143 1.94376,-2.12 3.07819,-3.17276 22.14188,-20.54807 78.71109,-21.74622 117.8259,7.7171 l 17.92175,12.61349 z"
   id="path12"
   style="display:none" />
	<path
   class="st5"
   d="m 200.22363,328.18872 -4.76723,0.19968 c 0,0 -3.12567,0.12759 -8.25783,-7.30627 -6.96823,-10.09344 -7.79732,-10.54779 -10.10011,-10.99103 l 5.63771,0.7959 c 0,0 2.05502,-0.29755 6.38332,6.03943 4.8895,7.15865 7.91561,10.60577 11.10414,11.26229 z"
   id="path13"
   style="fill:#bf1266;fill-opacity:1" />
	<path
   class="st5"
   d="m 221.99048,325.77286 -5.51579,0.86935 c 0,0 -3.88017,0.90619 -9.89464,-5.54788 -8.16621,-8.76312 -9.0481,-9.03696 -11.54733,-9.23672 l 6.06044,0.14655 c 0,0 2.53378,-0.0987 7.25961,5.03827 5.72822,6.22655 10.17422,8.41393 13.63771,8.73043 z"
   id="path14"
   style="fill:#bf1266;fill-opacity:1" />
	<path
   class="st5"
   d="m 241.77159,319.01523 -3.77582,1.82321 c 0,0 -3.98004,1.59097 -10.52066,-3.63834 -9.18332,-7.34225 -10.47314,-6.87601 -12.82591,-6.54523 l 5.62579,-1.13022 c 0,0 2.31444,-0.6279 7.88264,3.36838 6.74928,4.84391 10.34412,6.54209 13.61396,6.1222 z"
   id="path15"
   style="fill:#bf1266;fill-opacity:1" />
	<path
   class="st5"
   d="m 257.50458,308.40903 -3.12263,2.79803 c 0,0 -2.84966,2.18887 -10.40656,-1.52432 -10.55255,-5.18509 -10.45799,-4.57156 -12.68298,-3.73825 l 4.88211,-2.10913 c 0,0 2.4917,-1.45923 7.97054,1.6792 7.20865,4.1293 10.25866,4.01373 13.35952,2.89447 z"
   id="path16"
   style="fill:#bf1266;fill-opacity:1" />
	<path
   class="st5"
   d="m 271.35599,295.21054 -3.55023,2.60458 c 0,0 -2.47647,3.14255 -9.43402,1.0296 -8.26932,-2.51129 -11.42677,-2.49591 -12.92517,-1.49356 l 3.67302,-3.80591 c 0,0 1.54852,-1.40979 7.62395,0.70273 6.6346,2.30698 12.39861,3.28132 14.61245,0.96256 z"
   id="path17"
   style="fill:#bf1266;fill-opacity:1" />
	<path
   class="st5"
   d="m 350.90573,273.36093 6.37137,1.91119 c 0,0 3.5549,0.9812 6.93274,10.88531 3.02725,8.87619 4.40482,11.88876 6.40479,13.19034 l -4.9263,-2.43723 c 0,0 -2.74725,-1.45145 -6.61688,-12.55957 -3.53355,-10.14336 -6.90485,-10.31331 -8.16572,-10.99004 z"
   id="path18"
   style="fill:#bf1266;fill-opacity:1" />
	<path
   class="st5"
   d="m 374.40366,282.90137 4.5307,2.42773 c 0,0 4.2865,2.45236 4.3165,10.26395 0.029,7.56378 -0.0535,12.38867 2.11887,13.70938 l -3.71378,-2.58551 c 0,0 -2.24731,-1.83096 -2.15277,-10.41821 0.0945,-8.58725 -3.46427,-12.64811 -5.09952,-13.39734 z"
   id="path19"
   style="fill:#bf1266;fill-opacity:1" />
	<path
   class="st5"
   d="m 335.54813,270.08871 4.98346,0.77759 c 0,0 3.28787,0.41418 7.36484,8.93506 5.53555,11.56937 6.32327,12.18002 8.65268,13.03632 l -5.7529,-1.79962 c 0,0 -2.56564,-0.76123 -5.62534,-7.30865 -3.83756,-8.21198 -6.62873,-12.63957 -9.62274,-13.6407 z"
   id="path20"
   style="fill:#bf1266;fill-opacity:1" />
	<path
   class="st5"
   d="m 311.11536,268.77026 4.76721,-0.19965 c 0,0 3.12567,-0.12762 8.25781,7.30624 6.96826,10.09344 7.79733,10.54779 10.10013,10.99106 l -5.6377,-0.7959 c 0,0 -2.05502,0.29755 -6.38333,-6.03946 -4.88949,-7.15862 -7.91559,-10.60573 -11.10412,-11.26229 z"
   id="path21"
   style="fill:#bf1266;fill-opacity:1" />
	<path
   class="st5"
   d="m 292.68423,270.68314 5.51581,-0.86935 c 0,0 2.94525,-0.37582 8.95972,6.07825 8.16623,8.76312 9.0481,9.03696 11.54733,9.23672 l -6.06042,-0.14658 c 0,0 -2.53378,0.0987 -7.25961,-5.03824 -5.72825,-6.22659 -9.23932,-8.94431 -12.70283,-9.2608 z"
   id="path22"
   style="fill:#bf1266;fill-opacity:1" />
	<path
   class="st5"
   d="m 275.12869,275.69113 4.33704,-1.60599 c 0,0 3.39465,-1.33365 9.49359,4.20667 8.28094,7.52243 9.09744,7.63721 11.34479,7.36478 l -5.41055,1.01111 c 0,0 -2.24356,0.58865 -7.04337,-3.83276 -5.8179,-5.35929 -9.60248,-7.48023 -12.7215,-7.14381 z"
   id="path23"
   style="fill:#bf1266;fill-opacity:1" />
	<path
   class="st5"
   d="m 256.2963,286.3728 3.17316,-2.87155 c 0,0 5.24011,-3.63586 11.87854,0.73325 9.0134,5.93222 9.80927,5.88004 11.91272,5.13852 l -5.01147,2.14615 c 0,0 -2.29242,1.02863 -7.28644,-2.4386 -6.28413,-4.36295 -10.85292,-5.8418 -14.66651,-2.70777 z"
   id="path24"
   style="fill:#bf1266;fill-opacity:1" />
</g>
<g
   id="Layer_5"
   transform="translate(-8.0210149,-168.81129)">
	<path
   class="st6"
   d="m 287.94186,358.45624 c 5.52664,-2.63043 12.98785,-4.16592 22.60324,-4.73608 18.2905,-1.08438 21.33517,-8.86847 21.36093,-8.94662 0.31064,-0.95541 1.33911,-1.47726 2.29327,-1.16507 0.9548,0.31143 1.4769,1.33829 1.16507,2.29327 -0.13464,0.41574 -3.56027,10.20233 -24.60403,11.44995 -20.2952,1.20419 -29.69043,6.4787 -31.41891,17.63647 -0.15445,0.9942 -1.08386,1.67255 -2.07629,1.51971 -0.99304,-0.15405 -1.67255,-1.08386 -1.51913,-2.07611 1.13696,-7.34054 5.04729,-12.57379 12.19585,-15.97552 z"
   id="path25"
   style="fill:#f49ec4;fill-opacity:1;stroke:#c27d9c;stroke-opacity:1" />
	<path
   class="st6"
   d="m 307.57498,386.69821 c 0.38257,-0.18204 0.8309,-0.23209 1.2709,-0.1095 0.16357,0.0461 16.5759,4.51111 32.76865,-0.8017 7.55963,-2.47794 12.3475,-7.9404 16.57031,-12.75674 4.73703,-5.40186 9.21033,-10.50217 16.03909,-8.1803 0.95081,0.32367 1.45944,1.35742 1.13577,2.3082 -0.32248,0.9512 -1.35721,1.45981 -2.3078,1.13657 -4.31799,-1.46918 -7.27502,1.59393 -12.13113,7.13412 -4.30652,4.91125 -9.66504,11.02252 -18.17261,13.81531 -17.27338,5.66718 -34.17255,1.04727 -34.884,0.84824 -0.96628,-0.27151 -1.53018,-1.27457 -1.25943,-2.24146 0.14673,-0.52676 0.51227,-0.93478 0.97025,-1.15274 z"
   id="path26"
   style="fill:#f49ec4;fill-opacity:1;stroke:#c27d9c;stroke-opacity:1" />
	<path
   class="st6"
   d="m 252.79744,277.05191 c 7.3062,-3.47772 15.54378,1.23831 24.95384,6.62399 2.56812,1.46924 5.22302,2.98862 8.05203,4.47284 12.95966,6.79657 27.61124,-7.8053 27.75735,-7.953 0.70322,-0.71335 1.85654,-0.72266 2.57184,-0.0174 0.71509,0.70483 0.72446,1.85519 0.0194,2.57089 -0.16638,0.16916 -4.15353,4.18677 -10.01605,7.29376 -7.9978,4.23819 -15.6044,4.69296 -22.02188,1.32748 -2.88882,-1.5148 -5.57361,-3.05145 -8.17017,-4.53714 -9.97803,-5.71103 -17.18533,-9.84122 -23.10251,-5.59225 -0.81938,0.58908 -1.95335,0.39932 -2.53854,-0.41702 -0.586,-0.81595 -0.39977,-1.95215 0.4162,-2.53815 0.68399,-0.49123 1.37751,-0.90044 2.07848,-1.234 z"
   id="path27"
   style="fill:#f49ec4;fill-opacity:1;stroke:#c27d9c;stroke-opacity:1" />
	<path
   class="st6"
   d="m 291.08023,315.75558 c 4.42905,-0.45773 11.07346,-2.21085 17.38806,-7.99771 23.3074,-21.35974 44.48508,-11.30951 44.69772,-11.20471 0.89966,0.44449 1.99091,0.074 2.43512,-0.82834 0.44437,-0.90097 0.0735,-1.99173 -0.82791,-2.43561 -0.23422,-0.11462 -23.64163,-11.23566 -48.76306,11.78601 -9.2998,8.52274 -19.44196,7.09894 -19.54266,7.08347 -0.99243,-0.15005 -1.92017,0.53214 -2.07101,1.52554 -0.15082,0.99338 0.53177,1.92065 1.52518,2.07147 0.195,0.0294 2.17409,0.30863 5.15856,-1.2e-4 z"
   id="path28"
   style="fill:#f49ec4;fill-opacity:1;stroke:#c27d9c;stroke-opacity:1" />
	<path
   class="st6"
   d="m 261.19897,271.15222 c -6.12068,4.3e-4 -13.51775,-1.81906 -22.44521,-5.43588 -16.98181,-6.88013 -23.07585,-1.15958 -23.13271,-1.10007 -0.69102,0.72925 -1.84393,0.75854 -2.57138,0.0666 -0.72835,-0.69147 -0.75854,-1.84305 -0.0666,-2.57138 0.30022,-0.31754 7.59869,-7.68263 27.13678,0.23315 18.84351,7.63333 29.5936,6.90765 35.94876,-2.42484 0.56668,-0.83136 1.69739,-1.04453 2.52786,-0.48007 0.83051,0.5658 1.04456,1.69739 0.47964,2.5274 -4.1808,6.13981 -9.96043,9.18507 -17.87712,9.18507 z"
   id="path29"
   style="fill:#f49ec4;fill-opacity:1;stroke:#c27d9c;stroke-opacity:1" />
	<path
   class="st6"
   d="m 256.35287,241.21223 c -0.42368,0 -0.85002,-0.14745 -1.19464,-0.44722 -0.1279,-0.11192 -13.02925,-11.19597 -29.93378,-13.35655 -7.89091,-1.01079 -14.56142,1.86436 -20.44408,4.3989 -6.59856,2.84229 -12.82939,5.52559 -17.99792,0.49474 -0.71945,-0.70081 -0.73454,-1.85283 -0.0337,-2.57228 0.69991,-0.72034 1.85281,-0.735 2.57227,-0.0346 3.26775,3.18204 7.25406,1.68672 14.01961,-1.22929 5.99901,-2.58426 13.46358,-5.80005 22.34573,-4.66624 18.03256,2.30492 31.30696,13.73804 31.86388,14.22345 0.75586,0.66039 0.83401,1.80841 0.17407,2.56517 -0.35882,0.41257 -0.86422,0.62396 -1.3714,0.62396 z"
   id="path30"
   style="fill:#f49ec4;fill-opacity:1;stroke:#c27d9c;stroke-opacity:1" />
	<path
   class="st6"
   d="m 255.97894,375.04596 c -8.09164,9.2e-4 -13.50356,-7.79718 -19.68642,-16.70377 -1.68762,-2.43018 -3.43207,-4.94293 -5.34885,-7.49878 -8.78178,-11.70581 -28.28613,-4.81635 -28.48154,-4.74573 -0.94151,0.34195 -1.98694,-0.14523 -2.32979,-1.08942 -0.34285,-0.94373 0.14301,-1.98648 1.08717,-2.32977 0.22295,-0.0813 5.54958,-1.99582 12.17833,-2.28229 9.04294,-0.39035 16.10692,2.46747 20.45563,8.26398 1.95763,2.60913 3.72162,5.1503 5.42789,7.60757 6.55592,9.4444 11.28922,16.27078 18.45801,14.97665 0.99304,-0.17987 1.93542,0.47873 2.11307,1.46732 0.17853,0.98859 -0.47784,1.93454 -1.46643,2.11307 -0.8287,0.14967 -1.63076,0.22117 -2.40707,0.22117 z"
   id="path31"
   style="fill:#f49ec4;fill-opacity:1;stroke:#c27d9c;stroke-opacity:1" />
	<path
   class="st6"
   d="m 256.8121,334.21735 c -4.45264,4.3e-4 -11.24217,-1.05966 -18.11873,-6.16602 -25.38167,-18.84793 -45.41272,-6.67181 -45.61346,-6.54568 -0.84914,0.5347 -1.97272,0.27844 -2.50743,-0.57336 -0.5347,-0.85046 -0.27802,-1.9736 0.57291,-2.50787 0.22116,-0.13812 22.35995,-13.6088 49.71701,6.7056 10.12744,7.52051 20.06924,5.06061 20.16782,5.03485 0.97171,-0.25137 1.96475,0.33176 2.21701,1.30435 0.25226,0.97259 -0.3313,1.96518 -1.30392,2.21744 -0.19096,0.0493 -2.13084,0.53069 -5.13121,0.53069 z"
   id="path32"
   style="fill:#f49ec4;fill-opacity:1;stroke:#c27d9c;stroke-opacity:1" />
	<g
   id="g33">
		<circle
   class="st7"
   cx="155.38103"
   cy="303.43988"
   r="37.205009"
   id="circle32"
   style="fill:#8f5c73;fill-opacity:1" />
		
	</g>
	<g
   id="g34">
		<circle
   class="st6"
   cx="89.100288"
   cy="287.69235"
   r="37.205009"
   id="circle33"
   style="fill:#f49ec4;fill-opacity:1;stroke:#c27d9c;stroke-opacity:1" />
		
	</g>
	<g
   id="g35">
		<circle
   class="st6"
   cx="165.60519"
   cy="235.16133"
   r="37.205009"
   id="circle34"
   style="fill:#f49ec4;fill-opacity:1;stroke:#c27d9c;stroke-opacity:1" />
		
		
			
	</g>
	<g
   id="g36">
		<circle
   class="st6"
   cx="100.49963"
   cy="221.05904"
   r="37.205009"
   id="circle35"
   style="fill:#f49ec4;fill-opacity:1;stroke:#c27d9c;stroke-opacity:1" />
		
	</g>
	<g
   id="g37">
		<circle
   class="st6"
   cx="180.58887"
   cy="330.88058"
   r="37.205009"
   id="circle36"
   style="fill:#f49ec4;fill-opacity:1;stroke:#c27d9c;stroke-opacity:1" />
		
	</g>
	<g
   id="g38">
		<circle
   class="st6"
   cx="111.48766"
   cy="321.009"
   r="37.205009"
   id="circle37"
   style="fill:#f49ec4;fill-opacity:1;stroke:#c27d9c;stroke-opacity:1" />
		
	</g>
	<g
   id="g39">
		<circle
   class="st6"
   cx="193.57472"
   cy="261.42682"
   r="37.205009"
   id="circle38"
   style="fill:#f49ec4;fill-opacity:1;stroke:#c27d9c;stroke-opacity:1" />
		
	</g>
	<g
   id="g41">
		<circle
   class="st6"
   cx="124.47352"
   cy="251.55524"
   r="37.205009"
   id="circle39"
   style="fill:#f49ec4;fill-opacity:1;stroke:#c27d9c;stroke-opacity:1" />
		
		
			
		
			
	</g>
	<g
   id="g42">
		<circle
   class="st7"
   cx="376.49896"
   cy="299.52554"
   r="37.205009"
   id="circle41"
   style="fill:#8f5c73;fill-opacity:1" />
		
			
	</g>
	<g
   id="g43">
		<circle
   class="st6"
   cx="444.20847"
   cy="292.00565"
   r="37.205009"
   id="circle42"
   style="fill:#f49ec4;fill-opacity:1;stroke:#c27d9c;stroke-opacity:1" />
		
		
			
	</g>
	<g
   id="g44">
		<circle
   class="st6"
   cx="389.89243"
   cy="367.25375"
   r="37.205009"
   id="circle43"
   style="fill:#f49ec4;fill-opacity:1;stroke:#c27d9c;stroke-opacity:1" />
		
		
			
	</g>
	<g
   id="g45">
		<circle
   class="st6"
   cx="455.94083"
   cy="358.58115"
   r="37.205009"
   id="circle44"
   style="fill:#f49ec4;fill-opacity:1;stroke:#c27d9c;stroke-opacity:1" />
		
		
			
	</g>
	<g
   id="g46">
		<circle
   class="st6"
   cx="343.51569"
   cy="282.18973"
   r="37.205009"
   id="circle45"
   style="fill:#f49ec4;fill-opacity:1;stroke:#c27d9c;stroke-opacity:1" />
		
		
			
	</g>
	<g
   id="g47">
		<circle
   class="st6"
   cx="411.89954"
   cy="268.18704"
   r="37.205009"
   id="circle46"
   style="fill:#f49ec4;fill-opacity:1;stroke:#c27d9c;stroke-opacity:1" />
		
		
			
	</g>
	<g
   id="g48">
		<circle
   class="st6"
   cx="354.70532"
   cy="351.95541"
   r="37.205009"
   id="circle47"
   style="fill:#f49ec4;fill-opacity:1;stroke:#c27d9c;stroke-opacity:1" />
		
		
			
	</g>
	<g
   id="g49">
		<circle
   class="st6"
   cx="423.08914"
   cy="337.9527"
   r="37.205009"
   id="circle48"
   style="fill:#f49ec4;fill-opacity:1;stroke:#c27d9c;stroke-opacity:1" />
		
		
			
	</g>
	<g
   id="g50">
		<path
   class="st6"
   d="m 84.31329,306.26825 c -0.83999,1.33536 -3.18715,1.41022 -3.18715,1.41022 -0.0053,3.1e-4 -0.01064,6.1e-4 -0.01596,8.9e-4 -0.1261,0.004 -12.93404,0.76166 -23.42233,-5.50656 -16.99622,-10.15845 -25.65545,-13.18637 -37.05932,-12.95966 -1.02646,0.0189 -1.80232,0.85101 -1.78292,1.85474 0.02033,1.00461 0.85099,1.80234 1.85516,1.78247 10.605,-0.21048 18.80996,2.69727 35.12109,12.44562 11.09138,6.62866 22.96473,6.11243 24.35612,6.03375 0,0 1.83529,-0.65753 2.69498,1.80942"
   id="path49"
   style="fill:#f49ec4;fill-opacity:1;stroke:#c27d9c;stroke-opacity:1" />
	</g>
	<path
   class="st6"
   d="m 69.96173,266.33997 c -1.14626,0.59805 -2.72212,-0.33667 -2.72212,-0.33667 -0.59244,-0.59778 -1.25504,-1.32257 -2.02247,-2.16238 -5.52204,-6.0412 -14.76481,-16.15353 -28.6121,-12.74722 -18.36209,4.51569 -24.62757,-5.58377 -24.89581,-6.03455 -0.50628,-0.86334 -1.61478,-1.15779 -2.48079,-0.65594 -0.86956,0.50273 -1.16712,1.61522 -0.66439,2.48523 0.30643,0.53116 7.75679,12.94263 28.90966,7.73769 11.74488,-2.88847 19.75837,5.87157 25.05835,11.66939 0.76031,0.8327 1.47888,1.61877 2.12283,2.26849 0,0 1.31985,1.36426 0.87131,2.6102"
   id="path50"
   style="fill:#f49ec4;fill-opacity:1;stroke:#c27d9c;stroke-opacity:1" />
	<g
   id="g51">
		
	</g>
	
	
		
	
		
</g>
<g
   id="DNA2"
   transform="translate(-8.0210149,-168.81129)">
	<path
   class="st2"
   d="m 132.40298,201.91405 c 1.2339,-3.06989 2.76796,-5.41365 3.95029,-6.32565 l -4.31825,2.69983 c 0,0 -0.54129,0.36783 -1.29031,1.11693 0.58357,0.81382 1.14042,1.64788 1.65827,2.50889 z"
   id="path53"
   style="fill:#470827;fill-opacity:1" />
	<path
   class="st2"
   d="m 185.2988,328.42505 3.86855,-5.42392 c 0,0 1.64528,-2.91229 -2.41544,-11.58755 -4.24269,-9.064 -4.53653,-13.68539 -3.20728,-16.26276 l -2.32974,4.74173 c 0,0 -3.01857,3.8804 1.50847,13.76129 4.69395,10.24502 3.9532,12.15185 2.57544,14.77121 z"
   id="path54"
   style="fill:#470827;fill-opacity:1" />
	<path
   class="st2"
   d="m 195.30299,312.91168 3.37358,-6.10333 c 0,0 1.67465,-3.31992 -3.65671,-11.59641 -5.41954,-8.41339 -5.90906,-13.30508 -4.90422,-16.02536 l -1.97493,5.34656 c 0,0 -2.54483,4.13925 3.15407,13.39389 5.909,9.59571 5.05605,12.21677 4.00821,14.98465 z"
   id="path55"
   style="fill:#470827;fill-opacity:1" />
	<path
   class="st2"
   d="m 206.3447,287.6821 2.0687,-7.10757 c 0,0 1.08699,-3.55594 -5.57152,-10.80768 -6.76866,-7.37173 -8.16075,-11.90366 -7.63211,-14.75504 l -0.82263,5.61154 c 0,0 -0.79326,5.55276 5.24442,12.45129 7.4218,8.48005 7.27609,11.70191 6.71314,14.60746 z"
   id="path56"
   style="fill:#470827;fill-opacity:1" />
	<path
   class="st2"
   d="m 211.07483,268.96719 1.06346,-6.21994 c 0,0 0.73926,-3.77069 -6.97319,-10.05013 -6.89984,-5.61784 -9.89658,-10.23047 -10.07286,-13.57976 l 0.40199,5.53236 c 0,0 -0.10271,5.60835 6.84975,11.72145 8.54629,7.51451 8.93367,9.64342 8.73085,12.59602 z"
   id="path57"
   style="fill:#470827;fill-opacity:1" />
	<path
   class="st2"
   d="m 213.13142,240.64511 -0.7766,-7.29871 c 0,0 -0.91322,-3.89729 -10.41733,-6.82713 -8.50273,-2.62115 -12.51804,-4.60254 -14.07268,-7.7327 l 2.08286,3.89319 c 0,0 2.24808,5.39983 11.00438,8.47325 10.76368,3.77801 11.53301,6.14281 12.17937,9.4921 z"
   id="path58"
   style="fill:#470827;fill-opacity:1" />
	<path
   class="st3"
   d="m 209.17603,220.60081 -2.28781,-5.22229 c 0,0 -1.89757,-3.42239 -12.9124,-4.0838 -12.72144,-0.76387 -12.33951,-0.35255 -15.21872,-2.23285 l 2.73232,2.14471 c 0,0 4.14255,4.55386 13.01524,4.70076 11.40588,0.18885 13.0015,1.71908 14.67137,4.69347 z"
   id="path59"
   style="fill:#610933;fill-opacity:1" />
	<path
   class="st3"
   d="m 195.45872,199.65814 -4.34744,-3.71434 c 0,0 -4.42383,-2.98 -14.71925,3.39337 -8.32916,5.15614 -9.38684,5.34711 -11.7666,5.11208 l 5.20023,0.92546 c 0,0 3.37692,1.19496 9.65125,-2.77638 9.63887,-6.10099 13.22087,-5.02394 15.98181,-2.94019 z"
   id="path60"
   style="fill:#610933;fill-opacity:1" />
	<path
   class="st3"
   d="m 178.90399,189.58308 -5.84657,-1.38084 c 0,0 -5.17084,-1.38086 -11.07617,8.05005 -5.19882,8.3026 -6.84549,8.43199 -10.10663,9.5778 l 6.6692,-1.08705 c 0,0 4.31882,-0.29379 7.38528,-5.45561 5.82624,-9.80739 9.56892,-10.3078 12.97489,-9.70435 z"
   id="path61"
   style="fill:#610933;fill-opacity:1" />
	<path
   class="st2"
   d="m 166.30008,348.26318 4.84766,-4.06909 c 0,0 1.97917,-2.46704 0.30849,-11.8988 -1.74554,-9.85443 -2.60913,-13.64886 -0.65665,-15.79306 l -3.88252,5.34854 c 0,0 -1.65404,1.75034 -0.0881,11.54626 1.71558,10.73236 1.63645,12.09787 -0.52883,14.86615 z"
   id="path62"
   style="fill:#470827;fill-opacity:1" />
	<path
   class="st2"
   d="m 149.68085,357.6376 4.30859,-1.69418 c 0,0 3.55634,-1.68802 4.14175,-11.22787 0.79488,-12.95288 1.3329,-13.76379 3.24516,-15.55826 l -4.86424,4.05606 c 0,0 -2.26318,1.82828 -2.55705,9.10922 -0.36979,9.1619 -1.65083,12.79358 -4.27421,15.31503 z"
   id="path63"
   style="fill:#470827;fill-opacity:1" />
	<path
   class="st3"
   d="m 132.18687,351.92563 c -1.68094,5.15845 -3.7034,8.03729 -7.15219,8.98105 l 4.14676,0.29105 c 0,0 4.33162,-10e-4 7.13689,-8.29065 0.89328,-2.6398 1.59833,-4.71823 2.21252,-6.36154 -1.90634,2.01815 -4.03025,3.82796 -6.34398,5.38009 z"
   id="path64"
   style="fill:#610933;fill-opacity:1" />
	<path
   class="st2"
   d="m 154.00394,189.15755 1.47713,-0.30893 c -0.51917,0.0648 -1.00666,0.16356 -1.47713,0.30893 z"
   id="path65"
   style="fill:#470827;fill-opacity:1" />
	<path
   class="st2"
   d="m 137.64673,210.62891 c -0.21559,0.1976 -0.4545,0.3969 -0.74117,0.60707 l 0.36548,-0.17352 c 0.1241,-0.14564 0.2495,-0.28989 0.37569,-0.43355 z"
   id="path66"
   style="fill:#470827;fill-opacity:1" />
	<path
   class="st3"
   d="m 145.0089,204.17862 c 0.35539,-0.77443 0.71906,-1.65265 1.08531,-2.68202 3.19655,-8.98503 5.24205,-11.51501 7.90973,-12.33905 l -5.26559,1.10129 c 0,0 -4.71555,1.5865 -7.63222,10.56041 -1.80399,5.55013 -1.6651,7.49495 -2.75381,9.02534 1.98658,-2.13765 4.21901,-4.04237 6.65658,-5.66597 z"
   id="path67"
   style="fill:#610933;fill-opacity:1" />
	<path
   class="st13"
   d="m 206.60918,215.40787 c -25.61917,-49.35797 -75.21231,-17.62782 -75.21231,-17.62782 0,0 -0.44141,0.32916 -1.13951,0.94728 2.83157,3.76709 4.96059,8.09026 6.20261,12.77504 1.71954,-0.91614 2.92831,-1.26532 2.92831,-1.26532 0,0 36.10286,-19.68086 51.23822,13.86729 14.76633,32.72998 -10.6163,101.91699 -47.86169,117.04163 -5.86449,9.08975 -15.57675,15.45535 -26.83801,16.7952 24.47285,10.582 48.37549,-8.09146 48.37549,-8.09146 45.36232,-35.96086 57.66635,-104.84994 42.30689,-134.44184 z"
   id="path68"
   style="display:none" />
	<path
   class="st2"
   d="m 432.35962,387.36102 c -0.12668,3.30615 -0.78076,6.02988 -1.5864,7.28711 l 3.15524,-3.99759 c 0,0 0.38559,-0.52881 0.8382,-1.48657 -0.82376,-0.56943 -1.62921,-1.16693 -2.40704,-1.80295 z"
   id="path69"
   style="fill:#470827;fill-opacity:1" />
	<path
   class="st2"
   d="M 339.90933,286.08942 338.09586,292.5 c 0,0 -0.56711,3.29648 6.1806,10.09485 7.05008,7.10303 8.88474,11.35477 8.50223,14.2294 l 0.59476,-5.24957 c 0,0 1.53363,-4.6709 -6.05957,-12.44708 -7.87308,-8.06278 -7.81858,-10.1077 -7.40455,-13.03818 z"
   id="path70"
   style="fill:#470827;fill-opacity:1" />
	<path
   class="st2"
   d="m 335.72092,304.06729 -1.11844,6.88339 c 0,0 -0.45734,3.69016 7.35217,9.68472 7.93872,6.09372 10.04871,10.534 10.01981,13.43381 l 0.0568,-5.6994 c 0,0 1.00037,-4.75485 -7.48499,-11.54639 -8.79809,-7.0418 -8.87872,-9.79702 -8.82537,-12.75613 z"
   id="path71"
   style="fill:#470827;fill-opacity:1" />
	<path
   class="st2"
   d="m 333.83139,331.54239 0.44861,7.38892 c 0,0 0.17548,3.71423 8.88901,8.29663 8.85764,4.6582 11.69611,8.45551 12.1597,11.31815 l -1.11737,-5.56033 c 0,0 -1.12521,-5.49515 -9.13513,-9.95432 -9.84623,-5.48142 -10.79527,-8.56382 -11.24482,-11.48905 z"
   id="path72"
   style="fill:#470827;fill-opacity:1" />
	<path
   class="st2"
   d="m 335.68759,350.75635 1.09576,6.21436 c 0,0 0.57526,3.79916 9.95319,7.11087 8.38989,2.96277 12.76627,6.29504 14.06137,9.38882 l -2.24362,-5.07294 c 0,0 -1.79407,-5.31467 -10.40042,-8.72595 -10.57935,-4.19333 -11.66177,-6.06702 -12.46628,-8.91516 z"
   id="path73"
   style="fill:#470827;fill-opacity:1" />
	<path
   class="st2"
   d="m 343.29977,378.11371 3.19177,6.60962 c 0,0 2.17365,3.36124 12.1091,2.91541 8.88864,-0.39886 13.33685,0.11285 15.85577,2.53561 l -3.27344,-2.96307 c 0,0 -3.93695,-4.32578 -13.21677,-4.26724 -11.40721,0.072 -12.92875,-1.895 -14.66643,-4.83033 z"
   id="path74"
   style="fill:#470827;fill-opacity:1" />
	<path
   class="st3"
   d="m 353.78122,395.65106 3.91449,4.14526 c 0,0 2.94028,2.58231 13.53323,-0.50851 12.23422,-3.56967 11.73596,-3.82812 15.08054,-3.02859 l -3.29541,-1.09799 c 0,0 -5.4353,-2.89069 -13.83807,-0.0377 -10.80182,3.66751 -12.81992,2.76483 -15.39478,0.52752 z"
   id="path75"
   style="fill:#610933;fill-opacity:1" />
	<path
   class="st3"
   d="m 373.75595,410.7431 5.34515,2.03122 c 0,0 5.16949,1.31412 12.71353,-8.15707 6.10321,-7.66232 7.03458,-8.1987 9.35428,-8.77972 l -5.20779,0.8819 c 0,0 -3.58209,0.0135 -8.15021,5.86761 -7.01776,8.9934 -10.75317,9.18704 -14.05496,8.15606 z"
   id="path76"
   style="fill:#610933;fill-opacity:1" />
	<path
   class="st3"
   d="m 392.73816,414.64716 5.96982,-0.67105 c 0,0 5.33365,-0.44327 7.71378,-11.31293 2.0954,-9.56924 3.60202,-10.24622 6.28595,-12.42438 l -5.91226,3.27182 c 0,0 -3.96695,1.7326 -5.11368,7.62607 -2.17875,11.19745 -5.53361,12.93033 -8.94361,13.51047 z"
   id="path77"
   style="fill:#610933;fill-opacity:1" />
	<path
   class="st2"
   d="m 351.1077,261.00754 -3.19202,5.46518 c 0,0 -1.03159,2.98987 3.72107,11.30621 4.96561,8.68903 7.05786,11.97018 5.94257,14.64709 l 1.85205,-6.34436 c 0,0 0.96713,-2.20547 -3.80966,-10.89999 -5.2334,-9.52566 -5.61924,-10.83792 -4.51401,-14.17413 z"
   id="path78"
   style="fill:#470827;fill-opacity:1" />
	<path
   class="st2"
   d="m 363.59357,246.57903 -3.4852,3.04756 c 0,0 -2.77905,2.78815 -0.11398,11.96689 3.6185,12.46252 3.38538,13.40738 2.19003,15.74146 l 3.21204,-5.45847 c 0,0 1.51431,-2.48425 -0.66367,-9.43805 -2.74066,-8.75017 -2.75897,-12.60114 -1.13922,-15.85939 z"
   id="path79"
   style="fill:#470827;fill-opacity:1" />
	<path
   class="st3"
   d="m 381.98907,246.05878 c -0.15659,-5.42317 0.77695,-8.81531 3.70566,-10.86652 l -4.00214,1.12399 c 0,0 -4.07761,1.46144 -3.92398,10.21138 0.049,2.78642 0.0859,4.98087 0.0617,6.73503 1.11435,-2.54269 2.50379,-4.9626 4.15878,-7.20388 z"
   id="path80"
   style="fill:#610933;fill-opacity:1" />
	<path
   class="st2"
   d="m 416.32394,406.65314 -1.2865,0.78882 c 0.46692,-0.23603 0.89258,-0.49335 1.2865,-0.78882 z"
   id="path81"
   style="fill:#470827;fill-opacity:1" />
	<path
   class="st2"
   d="m 424.4848,380.92419 c 0.13635,-0.2587 0.29407,-0.52689 0.49313,-0.82138 l -0.28561,0.28656 c -0.0677,0.17896 -0.13714,0.35703 -0.20752,0.53482 z"
   id="path82"
   style="fill:#470827;fill-opacity:1" />
	<path
   class="st2"
   d="m 419.72827,389.47891 c -0.0735,0.84891 -0.11981,1.79831 -0.11758,2.8909 0.0197,9.53668 -1.05307,12.60815 -3.28674,14.28333 l 4.58603,-2.81204 c 0,0 3.90463,-3.08337 3.62512,-12.51523 -0.17276,-5.83337 -0.95917,-7.61755 -0.45013,-9.42538 -1.14964,2.68224 -2.60923,5.22808 -4.3567,7.57842 z"
   id="path83"
   style="fill:#470827;fill-opacity:1" />
	<path
   class="st13"
   d="m 357.94849,399.67462 c 40.75961,37.8313 76.75208,-8.7608 76.75208,-8.7608 0,0 0.3046,-0.45871 0.75345,-1.276 -3.93582,-2.59192 -7.39767,-5.94424 -10.14639,-9.93604 -1.31003,1.44223 -2.33029,2.17847 -2.33029,2.17847 0,0 -27.35419,30.7002 -52.9137,4.21872 -24.93625,-25.83563 -24.36493,-99.52957 5.60095,-126.32544 2.4567,-10.53471 9.45432,-19.80199 19.60458,-24.85997 -26.60767,-1.71185 -42.81549,23.92683 -42.81549,23.92683 -30.58304,49.14875 -18.9419,118.15293 5.49481,140.83423 z"
   id="path84"
   style="display:none" />
	<path
   class="st5"
   d="m 197.88332,307.95416 -2.54056,4.9534 c 0,0 -1.5726,3.30231 -11.91428,4.62439 -14.04156,1.79507 -14.9543,2.40915 -16.65833,4.55386 l 3.87813,-5.40588 c 0,0 1.68619,-2.4252 9.60741,-3.36456 9.93501,-1.17816 15.54167,-2.57013 17.62763,-5.36121 z"
   id="path85"
   style="fill:#bf1266;fill-opacity:1" />
	<path
   class="st5"
   d="m 207.72554,282.80508 -1.44153,5.06519 c 0,0 -0.94861,3.31992 -10.51648,6.12424 -12.99091,3.80762 -13.75415,4.51917 -15.01608,6.77902 l 2.78632,-5.63275 c 0,0 0.39977,-2.25671 8.53975,-4.59842 9.1954,-2.64533 13.85586,-4.62302 15.64802,-7.73728 z"
   id="path86"
   style="fill:#bf1266;fill-opacity:1" />
	<path
   class="st5"
   d="m 212.10312,262.82684 -0.9989,6.0816 c 0,0 -0.62601,3.2168 -9.47256,7.28506 -12.01155,5.52374 -12.60391,6.35315 -13.6787,8.90317 l 2.25218,-6.3006 c 0,0 0.77394,-2.68961 7.79395,-5.86346 8.50903,-3.84707 12.57302,-6.58563 14.10403,-10.10577 z"
   id="path87"
   style="fill:#bf1266;fill-opacity:1" />
	<path
   class="st5"
   d="m 212.60258,235.85622 0.49945,4.81828 c 0,0 0.23601,4.09274 -7.45605,9.76581 -10.44402,7.7027 -10.83267,8.59488 -11.30074,11.17514 l 0.76363,-6.28722 c 0,0 0.1434,-2.64296 6.25963,-7.09464 7.41354,-5.39593 10.54185,-8.80517 11.23408,-12.37737 z"
   id="path88"
   style="fill:#bf1266;fill-opacity:1" />
	<path
   class="st5"
   d="m 207.25546,216.31866 1.88031,4.2307 c 0,0 1.34874,3.69833 -4.92938,10.90504 -8.52422,9.78502 -8.71007,10.7403 -8.60719,13.36064 l -0.61855,-6.30315 c 0,0 -0.3291,-2.89073 4.5714,-8.28368 6.16647,-6.7861 7.80266,-10.27225 7.70341,-13.90955 z"
   id="path89"
   style="fill:#bf1266;fill-opacity:1" />
	<path
   class="st5"
   d="m 191.99268,196.69299 3.15833,2.70293 c 0,0 3.08487,3.04082 -0.7345,10.91458 -3.82291,7.88107 -5.10034,10.54149 -4.28944,12.67737 l -2.24438,-4.41417 c 0,0 -1.49483,-2.50955 1.65475,-8.11768 3.43946,-6.12429 4.52651,-10.19339 2.45524,-13.76303 z"
   id="path90"
   style="fill:#bf1266;fill-opacity:1" />
	<path
   class="st5"
   d="m 173.96819,188.34914 4.58325,1.14581 c 0,0 4.67139,1.38084 3.70184,8.57889 -1.15065,8.54276 -1.00188,11.89145 0.36537,13.64172 l -4.24855,-2.94273 c 0,0 -1.9097,-0.94908 -0.60262,-8.91751 1.11686,-6.80877 -0.15418,-10.47901 -3.79929,-11.50618 z"
   id="path91"
   style="fill:#bf1266;fill-opacity:1" />
	<path
   class="st5"
   d="m 149.58299,190.08253 5.87556,-1.28688 c 0,0 4.52547,-1.12863 7.58232,5.45981 5.31578,11.45711 5.34515,10.19379 9.39957,11.13394 l -7.57997,-0.91078 c 0,0 -2.11536,-0.17627 -4.75365,-6.39075 -3.11866,-7.34596 -6.86865,-8.99604 -10.52383,-8.00534 z"
   id="path92"
   style="fill:#bf1266;fill-opacity:1" />
	<path
   class="st5"
   d="m 189.35088,322.81311 -3.60765,5.17722 c 0,0 -2.11969,3.2049 -12.02074,2.2655 -8.85786,-0.84042 -14.22981,0.34232 -16.70595,2.60452 l 4.16902,-3.65894 c 0,0 3.86284,-4.06729 13.10574,-3.54276 11.36182,0.64485 13.13187,-0.59984 15.05958,-2.84554 z"
   id="path93"
   style="fill:#bf1266;fill-opacity:1" />
	<path
   class="st5"
   d="m 123.14914,356.33899 c -1.15169,0.38 -2.32799,0.70459 -3.52628,0.97208 2.22498,3.1286 4.25817,3.51071 4.25817,3.51071 l 5.70374,0.40509 c -2.25535,-0.29807 -4.45663,-1.17493 -6.43563,-4.88788 z"
   id="path94"
   style="fill:#bf1266;fill-opacity:1" />
	<path
   class="st5"
   d="m 140.30893,348.98193 c -0.76488,-0.729 -1.52504,-1.36069 -2.27211,-1.918 -1.06267,1.08255 -2.19225,2.0976 -3.37967,3.04434 0.62886,0.55408 1.29333,1.13788 2.03792,1.78836 8.31081,7.25919 12.06435,6.15292 12.06435,6.15292 l 5.2948,-2.11456 c -3.27706,0.94691 -5.48763,0.91718 -13.74529,-6.95306 z"
   id="path95"
   style="fill:#bf1266;fill-opacity:1" />
	<path
   class="st5"
   d="m 155.60149,342.64633 c -5.97392,-2.81516 -10.41365,-2.47751 -12.48508,-2.04892 -0.32149,0.51819 -0.65582,1.02734 -1.00166,1.52811 2.70865,0.539 6.15038,2.02817 10.93674,4.51331 8.82658,4.58292 12.21228,2.44757 12.21228,2.44757 l 5.67546,-4.6543 c -2.81104,1.93228 -5.01873,3.07696 -15.33774,-1.78577 z"
   id="path96"
   style="fill:#bf1266;fill-opacity:1" />
	<path
   class="st5"
   d="m 143.20752,205.81538 -2.57722,2.23001 c 0.81579,-0.39591 1.51612,-1.10502 2.57722,-2.23001 z"
   id="path97"
   style="fill:#bf1266;fill-opacity:1" />
	<path
   class="st5"
   d="m 135.38026,208.09717 c 0.39363,1.05875 0.73621,2.14177 1.03375,3.24359 0.4232,-0.0688 0.57977,-0.14883 0.57977,-0.14883 l 3.63651,-3.14653 c -1.11582,0.54154 -2.45785,0.48852 -5.25003,0.0518 z"
   id="path98"
   style="fill:#bf1266;fill-opacity:1" />
	<path
   class="st5"
   d="m 132.38531,198.08806 5.11951,-3.24467 c 0,0 4.07286,-2.35663 8.62439,2.63834 7.91496,8.68613 7.63377,7.54535 11.76062,7.18253 l -7.50797,1.43721 c 0,0 -2.07616,0.47089 -6.13383,-4.31342 -4.79646,-5.65539 -8.59248,-5.67433 -11.86272,-3.69999 z"
   id="path99"
   style="fill:#bf1266;fill-opacity:1" />
	<path
   class="st5"
   d="m 334.96301,309.60452 0.72186,-5.51993 c 0,0 0.36722,-3.63916 9.65771,-8.37036 12.61435,-6.42389 13.26663,-7.30972 14.14783,-9.90338 l -1.82858,6.39685 c 0,0 -0.76984,2.85172 -7.91064,6.40659 -8.95618,4.45862 -13.76532,7.6593 -14.78818,10.99023 z"
   id="path100"
   style="fill:#bf1266;fill-opacity:1" />
	<path
   class="st5"
   d="m 334.1756,336.59946 -0.35052,-5.25467 c 0,0 -0.22617,-3.44537 7.83612,-9.31116 10.94669,-7.96439 11.42535,-8.8916 11.85156,-11.44458 l -0.72421,6.24231 c 0,0 0.38446,2.2594 -6.48953,7.20828 -7.76524,5.59055 -11.48609,9.02365 -12.12342,12.55982 z"
   id="path101"
   style="fill:#bf1266;fill-opacity:1" />
	<path
   class="st5"
   d="m 336.78964,356.88391 -1.10989,-6.06232 c 0,0 -0.49515,-3.23953 6.46198,-10.05209 9.44611,-9.24991 9.72415,-10.23044 9.87631,-12.99353 l 0.004,6.69104 c 0,0 0.17813,2.79306 -5.36087,8.1478 -6.7139,6.49054 -9.61673,10.43887 -9.87134,14.2691 z"
   id="path102"
   style="fill:#bf1266;fill-opacity:1" />
	<path
   class="st5"
   d="m 345.41214,382.44397 -2.09464,-4.36783 c 0,0 -1.60199,-3.77356 3.72717,-11.70776 7.23575,-10.7728 7.30087,-11.74377 6.87161,-14.33078 l 1.40073,6.17657 c 0,0 0.75604,2.53659 -3.50131,8.78964 -5.1604,7.57941 -6.95617,11.84372 -6.40356,15.44016 z"
   id="path103"
   style="fill:#bf1266;fill-opacity:1" />
	<path
   class="st5"
   d="m 357.03299,399.03503 -3.19653,-3.34909 c 0,0 -2.51663,-3.02713 0.96432,-11.9285 4.72632,-12.08597 4.57922,-13.048 3.59897,-15.48026 l 2.70734,5.72562 c 0,0 1.28442,2.61053 -1.51105,9.33987 -3.51764,8.46779 -3.88272,12.30146 -2.56305,15.69236 z"
   id="path104"
   style="fill:#bf1266;fill-opacity:1" />
	<path
   class="st5"
   d="m 378.01874,412.36615 -3.88467,-1.47992 c 0,0 -3.92944,-1.82278 -2.98819,-10.52322 0.94211,-8.70853 1.24786,-11.64386 -0.23566,-13.38132 l 3.60117,3.39911 c 0,0 2.25339,1.85867 1.17886,8.20032 -1.1734,6.92529 -0.82499,11.12268 2.32849,13.78503 z"
   id="path105"
   style="fill:#bf1266;fill-opacity:1" />
	<path
   class="st5"
   d="m 397.80099,414.14487 -4.7012,0.46643 c 0,0 -4.86343,0.27487 -6.37738,-6.82864 -1.79675,-8.43057 -3.0658,-11.53305 -4.94305,-12.71991 l 4.99191,1.3381 c 0,0 2.11786,0.24973 3.57373,8.19229 1.24399,6.78671 3.67798,9.81357 7.45599,9.55173 z"
   id="path106"
   style="fill:#bf1266;fill-opacity:1" />
	<path
   class="st5"
   d="m 420.17422,404.29184 -5.09775,3.19241 c 0,0 -3.88004,2.58823 -8.9791,-2.58392 -8.86719,-8.99423 -8.46893,-7.79498 -12.60294,-7.3132 l 7.44327,-1.69803 c 0,0 2.05093,-0.54718 6.62988,4.414 5.41271,5.8645 9.49944,6.15375 12.60664,3.98874 z"
   id="path107"
   style="fill:#bf1266;fill-opacity:1" />
	<path
   class="st5"
   d="m 337.98648,292.73889 1.651,-6.09039 c 0,0 0.91513,-3.7319 10.55322,-6.18549 8.62265,-2.19507 13.28137,-5.1196 14.84988,-8.08417 l -2.69144,4.85025 c 0,0 -2.26547,5.13147 -11.1441,7.75372 -10.91402,3.2234 -12.16082,4.99195 -13.21856,7.75608 z"
   id="path108"
   style="fill:#bf1266;fill-opacity:1" />
	<path
   class="st5"
   d="m 389.0098,238.85686 c 0.95615,-0.74603 1.95416,-1.44818 2.99213,-2.104 -3.14948,-2.19533 -5.19247,-1.86961 -5.19247,-1.86961 l -5.50638,1.54156 c 2.22378,-0.47974 4.59182,-0.39634 7.70672,2.43205 z"
   id="path109"
   style="fill:#bf1266;fill-opacity:1" />
	<path
   class="st5"
   d="m 375.33493,251.56836 c 0.96585,0.42847 1.89447,0.76688 2.78571,1.03972 0.6355,-1.37747 1.35672,-2.71388 2.15546,-4.00554 -0.77884,-0.3096 -1.60123,-0.63524 -2.52151,-0.9966 -10.27161,-4.03236 -13.43243,-1.72542 -13.43243,-1.72542 l -4.27191,3.77582 c 2.76594,-1.99626 4.8571,-2.71355 15.28468,1.91202 z"
   id="path110"
   style="fill:#bf1266;fill-opacity:1" />
	<path
   class="st5"
   d="m 363.07358,262.68872 c 6.57327,0.63632 10.63925,-1.17838 12.44492,-2.28021 0.12799,-0.59622 0.27109,-1.18829 0.42786,-1.77634 -2.73178,0.40573 -6.47406,0.16409 -11.81805,-0.56192 -9.85489,-1.3389 -12.32248,1.8129 -12.32248,1.8129 l -3.77408,6.2952 c 1.99501,-2.76685 3.68755,-4.58881 15.04183,-3.48963 z"
   id="path111"
   style="fill:#bf1266;fill-opacity:1" />
	<path
   class="st5"
   d="m 420.87238,387.33066 1.67453,-2.96832 c -0.63456,0.64776 -1.05484,1.55148 -1.67453,2.96832 z"
   id="path112"
   style="fill:#bf1266;fill-opacity:1" />
	<path
   class="st5"
   d="m 427.47211,382.54364 c -0.72751,-0.86407 -1.41516,-1.76819 -2.06674,-2.7052 -0.37524,0.20743 -0.49567,0.33557 -0.49567,0.33557 l -2.36279,4.18832 c 0.86792,-0.88601 2.14926,-1.28854 4.9252,-1.81869 z"
   id="path113"
   style="fill:#bf1266;fill-opacity:1" />
	<path
   class="st5"
   d="m 433.66617,390.95706 -3.72592,4.7807 c 0,0 -3.03992,3.59177 -9.00894,0.42368 -10.38,-5.50919 -9.73068,-4.53 -13.49359,-2.79712 l 6.58386,-3.88428 c 0,0 1.79587,-1.14325 7.22894,1.99298 6.42227,3.70725 10.00247,2.44531 12.41565,-0.51596 z"
   id="path114"
   style="fill:#bf1266;fill-opacity:1" />
</g>
<g
   id="DNA1">
	<path
   class="st3"
   d="m 64.498215,193.47991 3.7252,-2.80814 c 0,0 2.77203,-1.87427 2.8959,-11.09891 0.12954,-9.64737 0.57397,-13.91077 2.83982,-15.6188 l -4.11317,2.95267 c 0,0 -2.99673,2.70294 -3.17586,12.59634 -0.1897,10.4783 -0.23242,11.51624 -2.17189,13.97684 z"
   id="path115"
   style="fill:#610933;fill-opacity:1" />
	<path
   class="st3"
   d="m 39.535965,212.29686 4.15187,-3.12976 c 0,0 3.18266,-2.10025 3.51467,-11.98923 0.33201,-9.88901 3.18644,-16.62891 5.85415,-18.40738 l -5.83655,4.27228 c 0,0 -3.93785,2.96841 -4.86614,14.20352 -0.9283,11.23508 -0.62424,12.35081 -2.818,15.05057 z"
   id="path116"
   style="fill:#610933;fill-opacity:1" />
	<path
   class="st3"
   d="m 25.928725,222.55425 4.09703,-3.08844 c 0,0 3.14252,-2.07001 3.40895,-11.90955 0.26643,-9.83954 2.40211,-15.8548 4.89412,-17.73331 l -4.96641,3.66599 c 0,0 -3.88584,2.9292 -4.73499,14.10464 -0.84914,11.17542 -0.54056,12.28776 -2.6987,14.96067 z"
   id="path117"
   style="fill:#610933;fill-opacity:1" />
	<path
   class="st2"
   d="m 78.668525,182.79812 4.11117,-3.09909 c 0,0 3.15286,-2.07782 3.4362,-11.93008 0.28334,-9.85229 1.2445,-15.41 3.7451,-17.29501 l -3.61795,3.61795 c 0,0 -4.07552,2.53159 -4.94507,13.72238 -0.86955,11.19082 -0.56213,12.30401 -2.72945,14.98385 z"
   id="path118"
   style="fill:#470827;fill-opacity:1" />
	<path
   class="st2"
   d="m 115.69781,148.80199 3.86855,-5.42392 c 0,0 1.64529,-2.91229 -2.41544,-11.58752 -4.2427,-9.06403 -4.53653,-13.68539 -3.20728,-16.26276 l -2.32974,4.7417 c 0,0 -3.01858,3.88043 1.50847,13.76129 4.69395,10.24503 3.9532,12.15189 2.57544,14.77121 z"
   id="path119"
   style="fill:#470827;fill-opacity:1" />
	<path
   class="st2"
   d="m 125.702,133.28866 3.37358,-6.10336 c 0,0 1.67465,-3.31992 -3.65671,-11.59641 -5.41954,-8.41339 -5.90905,-13.30505 -4.90422,-16.025358 l -1.97493,5.346588 c 0,0 -2.54483,4.13922 3.15407,13.39386 5.90899,9.5957 5.05606,12.21679 4.00821,14.98468 z"
   id="path120"
   style="fill:#470827;fill-opacity:1" />
	<path
   class="st2"
   d="m 136.7437,108.05907 2.0687,-7.1076 c 0,0 1.08699,-3.555938 -5.57152,-10.807678 -6.76866,-7.3717 -8.16075,-11.90366 -7.63211,-14.75502 l -0.82263,5.61154 c 0,0 -0.79326,5.55278 5.24442,12.45131 7.4218,8.480008 7.2761,11.701898 6.71314,14.607448 z"
   id="path121"
   style="fill:#470827;fill-opacity:1" />
	<path
   class="st2"
   d="m 141.47383,89.344172 1.06346,-6.21994 c 0,0 0.73926,-3.77069 -6.97318,-10.05014 -6.89986,-5.61784 -9.89659,-10.23047 -10.07288,-13.57976 l 0.40201,5.53236 c 0,0 -0.10272,5.60835 6.84973,11.72144 8.54631,7.51449 8.93368,9.6434 8.73086,12.59604 z"
   id="path122"
   style="fill:#470827;fill-opacity:1" />
	<path
   class="st2"
   d="m 143.53043,61.022072 -0.7766,-7.29871 c 0,0 -0.91322,-3.89729 -10.41731,-6.82713 -8.50275,-2.62115 -12.51804,-4.60254 -14.07269,-7.7327 l 2.08286,3.89319 c 0,0 2.24809,5.39983 11.00438,8.47325 10.76366,3.778 11.533,6.14281 12.17936,9.4921 z"
   id="path123"
   style="fill:#470827;fill-opacity:1" />
	<path
   class="st2"
   d="m 139.57503,40.977772 -2.28781,-5.22231 c 0,0 -1.89757,-3.42238 -12.9124,-4.08379 -12.72144,-0.76387 -12.3395,-0.35255 -15.21872,-2.23285 l 2.73232,2.14471 c 0,0 4.14255,4.55386 13.01524,4.70076 11.40588,0.18886 13.00151,1.71909 14.67137,4.69348 z"
   id="path124"
   style="fill:#470827;fill-opacity:1" />
	<path
   class="st3"
   d="m 125.85773,20.035102 -4.34744,-3.71434 c 0,0 -4.42383,-2.98 -14.71925,3.39337 -8.329165,5.15614 -9.386835,5.34711 -11.766595,5.11208 l 5.200225,0.92546 c 0,0 3.37693,1.19496 9.65125,-2.77638 9.63887,-6.10099 13.22088,-5.02395 15.98181,-2.94019 z"
   id="path125"
   style="fill:#610933;fill-opacity:1" />
	<path
   class="st3"
   d="m 109.303,9.9600422 -5.84657,-1.38084 c 0,0 -5.170845,-1.38086 -11.076175,8.0500498 -5.19882,8.3026 -6.84549,8.43199 -10.10664,9.5778 l 6.66921,-1.08705 c 0,0 4.31882,-0.29379 7.38528,-5.45561 C 102.15435,9.8570022 105.89702,9.3565922 109.303,9.9600422 Z"
   id="path126"
   style="fill:#610933;fill-opacity:1" />
	<path
   class="st2"
   d="m 97.005035,168.70073 4.541695,-4.1297 c 0,0 1.97917,-2.46701 0.30849,-11.8988 -1.74555,-9.85443 -2.609135,-13.64886 -0.65665,-15.79303 l -3.882535,5.34854 c 0,0 -1.65404,1.75031 -0.08814,11.54623 1.71561,10.73237 1.94244,12.15848 -0.22286,14.92676 z"
   id="path127"
   style="fill:#470827;fill-opacity:1" />
	<path
   class="st3"
   d="m 85.879975,9.2255422 -6.74265,1.4102298 c 0,0 -4.71545,1.5865 -7.63219,10.56039 -2.36002,7.26102 -1.38716,8.35367 -4.20052,10.41676 l 4.36289,-2.07127 c 0,0 2.37976,-0.79326 4.82563,-7.66812 3.7604,-10.56974 5.92456,-12.2158398 9.38684,-12.6479898 z"
   id="path128"
   style="fill:#610933;fill-opacity:1" />
	<path
   class="st3"
   d="m 55.970895,45.078362 c -0.17619,-0.32274 -0.76003,-0.99265 -0.96162,-1.30223 -3.70196,-5.68501 -3.52563,-8.85799 -2.55603,-12.25134 l -2.15952,6.25792 c 0,0 -1.27802,4.89168 1.41022,8.63762 1.05404,1.46873 2.26097,2.93721 3.6153,4.02705 0.08706,-1.82787 0.30999,-3.61962 0.65165,-5.36902 z"
   id="path129"
   style="fill:#610933;fill-opacity:1" />
	<path
   class="st3"
   d="m 60.652015,32.969242 c -0.03443,-7.63168 3.73599,-15.18025 6.10024,-17.00388 l -4.31825,2.69983 c 0,0 -5.73685,3.87148 -5.79419,12.37485 -0.02592,3.83018 0.51026,6.67551 0.96384,8.23155 0.82142,-2.20677 1.84286,-4.31634 3.04836,-6.30235 z"
   id="path130"
   style="fill:#610933;fill-opacity:1" />
	<path
   class="st13"
   d="m 78.04327,199.42531 c 0,0 -16.45267,4.70076 -14.57236,25.61916 l 0.94015,4.70076 c -16.68771,-26.32426 5.64091,-42.77693 5.64091,-42.77693 0,0 49.59304,-31.73015 75.21219,17.62785 15.3596,29.5919 3.0555,98.48097 -42.30685,134.44179 l -82.73341,62.2851 -6.34603,-17.86288 66.51578,-49.358 c 44.4222,-30.79001 62.75517,-90.48967 48.88792,-120.80959 -15.30788,-33.46979 -51.2383,-13.86726 -51.2383,-13.86726"
   id="path131"
   style="display:none" />
	<path
   class="st3"
   d="m 426.64797,47.372752 -2.56042,3.89961 c 0,0 -1.97784,2.69911 1.01547,11.42545 3.13049,9.12625 4.14941,13.2899 2.59207,15.66183 l 2.87692,-4.16649 c 0,0 1.91003,-3.55501 -1.25671,-12.92958 -3.35401,-9.92883 -3.6637,-10.92043 -2.66733,-13.89082 z"
   id="path132"
   style="fill:#610933;fill-opacity:1" />
	<path
   class="st3"
   d="m 443.80501,21.241762 -2.85367,4.34627 c 0,0 -2.28827,3.05029 0.73309,12.47227 3.02133,9.42197 2.60626,16.72964 0.69431,19.30338 l 4.05453,-5.98988 c 0,0 2.70657,-4.12222 -0.20721,-15.01253 -2.91378,-10.89031 -3.5762,-11.83821 -2.42105,-15.11951 z"
   id="path133"
   style="fill:#610933;fill-opacity:1" />
	<path
   class="st3"
   d="m 453.15752,6.9974322 -2.81598,4.2888598 c 0,0 -2.26068,3.00827 0.80576,12.3616 3.06641,9.35333 3.08371,15.73643 1.37088,18.34512 l 3.43973,-5.12572 c 0,0 2.67084,-4.06778 -0.29736,-14.87523 -2.96818,-10.80745 -3.63371,-11.75062 -2.50303,-14.9946298 z"
   id="path134"
   style="fill:#610933;fill-opacity:1" />
	<path
   class="st2"
   d="m 416.90843,62.206492 -2.82568,4.30367 c 0,0 -2.26779,3.0191 0.78702,12.39014 3.05478,9.37103 4.02359,14.9274 2.30487,17.5451 l 2.18643,-4.62589 c 0,0 2.98343,-3.75739 0.0293,-14.5862 -2.95416,-10.82881 -3.61887,-11.77319 -2.48191,-15.02682 z"
   id="path135"
   style="fill:#470827;fill-opacity:1" />
	<path
   class="st2"
   d="m 393.50823,106.69619 -1.81348,6.41061 c 0,0 -0.56714,3.29648 6.18057,10.09482 7.05011,7.10303 8.88477,11.3548 8.50226,14.2294 l 0.59476,-5.24954 c 0,0 1.53363,-4.6709 -6.05957,-12.44708 -7.87311,-8.06278 -7.81858,-10.10773 -7.40454,-13.03821 z"
   id="path136"
   style="fill:#470827;fill-opacity:1" />
	<path
   class="st2"
   d="m 389.31981,124.67409 -1.11844,6.88339 c 0,0 -0.45737,3.69012 7.35217,9.68469 7.93869,6.09375 10.04871,10.53403 10.01981,13.43381 l 0.0568,-5.69937 c 0,0 1.00037,-4.75488 -7.48495,-11.54642 -8.7981,-7.0418 -8.87875,-9.79699 -8.82538,-12.7561 z"
   id="path137"
   style="fill:#470827;fill-opacity:1" />
	<path
   class="st2"
   d="m 387.43025,152.14919 0.44864,7.38892 c 0,0 0.17548,3.71423 8.88898,8.2966 8.85767,4.6582 11.69614,8.45551 12.15973,11.31818 l -1.11737,-5.56036 c 0,0 -1.12521,-5.49512 -9.13516,-9.95428 -9.8462,-5.48143 -10.79523,-8.56383 -11.24482,-11.48906 z"
   id="path138"
   style="fill:#470827;fill-opacity:1" />
	<path
   class="st2"
   d="m 389.28649,171.36315 1.09576,6.21432 c 0,0 0.57526,3.79916 9.95319,7.11087 8.38986,2.96277 12.76624,6.29507 14.06137,9.38885 l -2.24362,-5.07297 c 0,0 -1.79407,-5.31464 -10.40042,-8.72595 -10.57938,-4.19329 -11.66181,-6.06698 -12.46628,-8.91512 z"
   id="path139"
   style="fill:#470827;fill-opacity:1" />
	<path
   class="st2"
   d="m 396.89864,198.72051 3.19177,6.60962 c 0,0 2.17368,3.36124 12.10913,2.91541 8.88861,-0.39886 13.33685,0.11282 15.85577,2.53561 l -3.27347,-2.96307 c 0,0 -3.93692,-4.32581 -13.21677,-4.26724 -11.40722,0.072 -12.92876,-1.89503 -14.66643,-4.83033 z"
   id="path140"
   style="fill:#470827;fill-opacity:1" />
	<path
   class="st2"
   d="m 407.38008,216.25783 3.91449,4.14529 c 0,0 2.94028,2.58228 13.53326,-0.50851 12.23419,-3.56967 11.73596,-3.82816 15.08054,-3.02859 l -3.29541,-1.09802 c 0,0 -5.4353,-2.89066 -13.83807,-0.0377 -10.80182,3.66754 -12.81992,2.76483 -15.39481,0.52752 z"
   id="path141"
   style="fill:#470827;fill-opacity:1" />
	<path
   class="st3"
   d="m 427.35481,231.34987 5.34515,2.03125 c 0,0 5.16953,1.31409 12.71353,-8.15707 6.10324,-7.66235 7.03461,-8.1987 9.35428,-8.77972 l -5.20776,0.8819 c 0,0 -3.58212,0.0135 -8.15024,5.86761 -7.01772,8.99337 -10.75314,9.18701 -14.05496,8.15603 z"
   id="path142"
   style="fill:#610933;fill-opacity:1" />
	<path
   class="st3"
   d="m 446.33702,235.25396 5.96985,-0.67108 c 0,0 5.33365,-0.44324 7.71378,-11.31293 2.09537,-9.56921 3.60202,-10.24619 6.28595,-12.42438 l -5.91229,3.27182 c 0,0 -3.96692,1.73264 -5.11365,7.62607 -2.17875,11.19745 -5.5336,12.93036 -8.94364,13.5105 z"
   id="path143"
   style="fill:#610933;fill-opacity:1" />
	<path
   class="st2"
   d="m 404.39809,81.660422 -2.88354,5.41908 c 0,0 -1.03159,2.98985 3.72107,11.30623 4.96564,8.689028 7.05789,11.970178 5.9426,14.647058 l 1.85205,-6.34433 c 0,0 0.9671,-2.20551 -3.80966,-10.900018 -5.23341,-9.52566 -5.92775,-10.79181 -4.82252,-14.12802 z"
   id="path144"
   style="fill:#470827;fill-opacity:1" />
	<path
   class="st3"
   d="m 468.6364,228.04876 5.8725,-3.60086 c 0,0 3.90451,-3.08337 3.62509,-12.51523 -0.22607,-7.63156 -1.51035,-8.33224 0.44275,-11.22305 l -3.40918,3.4209 c 0,0 -1.97299,1.5491 -1.95792,8.84607 0.0232,11.21871 -1.45932,13.49807 -4.57324,15.07217 z"
   id="path145"
   style="fill:#610933;fill-opacity:1" />
	<path
   class="st2"
   d="m 484.70729,184.21151 c 0.27469,0.24445 1.0502,0.67828 1.34436,0.90179 5.40186,4.10416 6.30557,7.15082 6.53674,10.67239 l -0.0767,-6.6196 c 0,0 -0.44595,-5.03616 -4.23972,-7.65652 -1.48749,-1.0274 -3.11884,-2.00302 -4.76129,-2.57245 0.53428,1.75022 0.92848,3.51221 1.19657,5.27439 z"
   id="path146"
   style="fill:#470827;fill-opacity:1" />
	<path
   class="st3"
   d="m 484.38265,197.18987 c 2.60532,7.17331 1.60049,15.55109 -0.0105,18.06503 l 3.15524,-3.99762 c 0,0 4.09579,-5.57892 1.28299,-13.60379 -1.26688,-3.61469 -2.73093,-6.11267 -3.68256,-7.42471 -0.0294,2.35452 -0.27978,4.68494 -0.74514,6.96109 z"
   id="path147"
   style="fill:#610933;fill-opacity:1" />
	<path
   class="st13"
   d="m 484.37601,371.37753 c 0,0 13.90466,-9.97232 5.08215,-29.03217 l -2.46991,-4.10858 c 24.58557,19.15714 9.1109,42.17435 9.1109,42.17435 0,0 -35.9924,46.59207 -76.75198,8.76074 -24.43683,-22.68121 -36.07791,-91.68542 -5.49484,-140.8342 l 56.89148,-86.53098 11.9967,14.67769 -45.98148,68.89316 c -31.44119,43.96367 -28.5741,106.34901 -5.29681,130.21877 25.69553,26.34952 52.91379,-4.21878 52.91379,-4.21878"
   id="path148"
   style="display:none" />
	<linearGradient
   id="SVGID_1_"
   gradientUnits="userSpaceOnUse"
   x1="14.29342"
   y1="376.02203"
   x2="70.188438"
   y2="376.02203">
		<stop
   offset="0.19219"
   style="stop-color:#441745"
   id="stop148" />
		<stop
   offset="1"
   style="stop-color:#441745;stop-opacity:0"
   id="stop149" />
	</linearGradient>
	
	
		<linearGradient
   id="SVGID_2_"
   gradientUnits="userSpaceOnUse"
   x1="581.56128"
   y1="241.59903"
   x2="637.4563"
   y2="241.59903"
   gradientTransform="rotate(130.467,548.63598,179.21874)">
		<stop
   offset="0.19219"
   style="stop-color:#441745"
   id="stop150" />
		<stop
   offset="1"
   style="stop-color:#441745;stop-opacity:0"
   id="stop151" />
	</linearGradient>
	
	<path
   class="st6"
   d="m 93.971635,63.104662 c 0.39978,-1.26338 -0.77406,-2.55429 -1.36949,-3.36852 -0.12013,-0.16429 -3.96151,-7.54726 -22.13815,-6.86031 -22.0735,0.83333 -33.37439,-4.48503 -36.64128,-17.24457 -0.24955,-0.97307 0.338,-1.96414 1.31113,-2.21324 0.97327,-0.24823 1.96451,0.33749 2.21325,1.31113 2.80104,10.9381 12.66443,15.27788 32.97954,14.51099 21.0597,-0.79539 25.38953,8.62834 25.59818,9.01343 0.2625,0.48448 0.82962,1.73308 2.49056,1.14676"
   id="path151"
   style="fill:#f49ec4;fill-opacity:1;stroke:#c27d9c;stroke-opacity:1" />
	
	
	<path
   class="st5"
   d="m 81.718445,180.49907 -4.57139,3.44598 c 0,0 -2.76292,2.24222 -12.29789,-0.0695 -9.96226,-2.41525 -14.57246,-3.07129 -17.03609,-1.21417 l 4.80691,-3.68909 c 0,0 3.16447,-2.38541 14.07446,-0.0743 10.90999,2.3112 11.89052,2.917 15.024,1.60099 z"
   id="path154"
   style="fill:#bf1266;fill-opacity:1" />
	<path
   class="st5"
   d="m 68.251975,190.65032 -4.78907,3.61011 c 0,0 -2.89814,2.34412 -12.66972,0.21082 -10.20947,-2.22888 -14.98002,-2.82959 -17.56096,-0.88403 l 5.07269,-3.82388 c 0,0 3.13298,-2.22479 14.32135,-0.12344 11.18836,2.1013 12.36696,2.42088 15.62571,1.01042 z"
   id="path155"
   style="fill:#bf1266;fill-opacity:1" />
	<path
   class="st5"
   d="m 119.53503,143.29284 -4.20918,6.01541 c 0,0 -2.25928,3.38577 -13.80849,3.49622 -10.350575,0.0989 -13.984775,0.49945 -16.041355,2.14471 l 4.26006,-4.31882 c 0,0 2.47244,-2.37656 15.453765,-2.58542 11.85387,-0.19076 13.19938,-3.66504 14.3452,-4.7521 z"
   id="path156"
   style="fill:#bf1266;fill-opacity:1" />
	<path
   class="st5"
   d="m 101.39984,164.6151 -4.113175,3.90753 c 0,0 -4.05441,3.64307 -12.25135,0.96951 -7.9369,-2.58875 -12.96484,-4.34598 -15.10119,-2.52664 l 3.99563,-2.99673 c 0,0 2.69704,-1.72119 11.66376,1.35147 8.96674,3.07263 14.454855,0.74918 15.806325,-0.70514 z"
   id="path157"
   style="fill:#bf1266;fill-opacity:1" />
	<path
   class="st5"
   d="m 128.28232,128.33111 -2.54056,4.95343 c 0,0 -1.5726,3.30228 -11.91428,4.62439 -14.041565,1.79507 -14.954305,2.40912 -16.658335,4.55386 l 3.878135,-5.40588 c 0,0 1.68619,-2.42523 9.60741,-3.36456 9.93503,-1.17817 15.54168,-2.57017 17.62763,-5.36124 z"
   id="path158"
   style="fill:#bf1266;fill-opacity:1" />
	<path
   class="st5"
   d="m 138.12454,103.18203 -1.44153,5.06522 c 0,0 -0.94861,3.31992 -10.51646,6.12424 -12.99091,3.80759 -13.75416,4.51917 -15.01609,6.77899 l 2.78631,-5.63272 c 0,0 0.39977,-2.25671 8.53975,-4.59842 9.1954,-2.64533 13.85586,-4.62306 15.64802,-7.73731 z"
   id="path159"
   style="fill:#bf1266;fill-opacity:1" />
	<path
   class="st5"
   d="m 142.50214,83.203792 -0.99892,6.0816 c 0,0 -0.62601,3.2168 -9.47256,7.28506 -12.01155,5.523768 -12.6039,6.353148 -13.67869,8.903198 l 2.25217,-6.300628 c 0,0 0.77394,-2.68958 7.79395,-5.86346 8.50903,-3.84708 12.57303,-6.5856 14.10405,-10.10577 z"
   id="path160"
   style="fill:#bf1266;fill-opacity:1" />
	<path
   class="st5"
   d="m 143.00159,56.233172 0.49945,4.81828 c 0,0 0.23601,4.09274 -7.45605,9.76581 -10.44402,7.70268 -10.83267,8.59489 -11.30072,11.17516 l 0.76361,-6.28723 c 0,0 0.1434,-2.64296 6.25963,-7.09464 7.41355,-5.39593 10.54185,-8.80519 11.23408,-12.37738 z"
   id="path161"
   style="fill:#bf1266;fill-opacity:1" />
	<path
   class="st5"
   d="m 137.65447,36.695622 1.88031,4.2307 c 0,0 1.34874,3.69833 -4.92938,10.90504 -8.52422,9.78502 -8.71005,10.7403 -8.60719,13.36064 l -0.61855,-6.30315 c 0,0 -0.3291,-2.89073 4.5714,-8.28368 6.16646,-6.7861 7.80265,-10.27225 7.70341,-13.90955 z"
   id="path162"
   style="fill:#bf1266;fill-opacity:1" />
	<path
   class="st5"
   d="m 122.39168,17.069952 3.15833,2.70293 c 0,0 3.08488,3.04082 -0.7345,10.91458 -3.82289,7.88107 -5.10034,10.54149 -4.28944,12.67737 l -2.24438,-4.41417 c 0,0 -1.49483,-2.50955 1.65476,-8.11768 3.43945,-6.1243 4.5265,-10.19339 2.45523,-13.76303 z"
   id="path163"
   style="fill:#bf1266;fill-opacity:1" />
	<path
   class="st5"
   d="m 104.3672,8.7260922 4.58324,1.14581 c 0,0 4.67139,1.3808398 3.70185,8.5788898 -1.15066,8.54276 -1.00188,11.89145 0.36537,13.64172 l -4.24856,-2.94273 c 0,0 -1.90969,-0.94908 -0.60261,-8.91751 1.11686,-6.80876 -0.15418,-10.4789998 -3.79929,-11.5061798 z"
   id="path164"
   style="fill:#bf1266;fill-opacity:1" />
	<path
   class="st5"
   d="m 79.981995,10.459492 5.87556,-1.2868798 c 0,0 4.52547,-1.12863 7.58232,5.4598098 5.31578,11.45711 5.34516,10.19379 9.399575,11.13394 l -7.579985,-0.91078 c 0,0 -2.11534,-0.17627 -4.75364,-6.39075 -3.11866,-7.34596 -6.86864,-8.9960398 -10.52383,-8.00534 z"
   id="path165"
   style="fill:#bf1266;fill-opacity:1" />
	<path
   class="st5"
   d="m 62.784315,18.465022 5.11951,-3.24467 c 0,0 4.07286,-2.35663 8.62438,2.63834 7.91497,8.68613 7.63378,7.54535 11.76062,7.18253 l -7.50796,1.43721 c 0,0 -2.07616,0.47089 -6.13383,-4.31342 -4.79646,-5.65539 -8.59249,-5.67433 -11.86272,-3.69999 z"
   id="path166"
   style="fill:#bf1266;fill-opacity:1" />
	<path
   class="st5"
   d="m 50.602235,37.209772 1.80685,-5.59683 c 0,0 2.20348,-5.02394 9.47498,-3.78999 8.62708,1.46399 8.65585,1.6203 11.72253,-1.63058 l -6.21382,5.3765 c 0,0 -1.05379,0.54773 -5.20879,0.009 -5.50014,-0.71371 -10.17153,0.96095 -11.58175,5.63232 z"
   id="path167"
   style="fill:#bf1266;fill-opacity:1" />
	<path
   class="st5"
   d="m 43.148975,209.57341 -4.78907,3.61011 c 0,0 -2.89814,2.34412 -12.66972,0.21082 -10.20947,-2.22888 -14.98002,-2.82959 -17.5609599,-0.88403 l 5.0726899,-3.82388 c 0,0 3.13299,-2.22479 14.32135,-0.12344 11.18836,2.10131 12.36697,2.42086 15.62571,1.01042 z"
   id="path168"
   style="fill:#bf1266;fill-opacity:1" />
	<path
   class="st5"
   d="m 414.81215,65.399172 3.142,-4.78543 c 0,0 1.84525,-3.04242 11.60135,-4.08064 10.1933,-1.08476 14.75479,-2.02138 16.44809,-4.60036 l -3.2818,5.09367 c 0,0 -2.17499,3.31264 -13.22546,4.8149 -11.05045,1.50226 -12.17783,1.2625 -14.68418,3.55786 z"
   id="path169"
   style="fill:#bf1266;fill-opacity:1" />
	<path
   class="st5"
   d="m 424.06792,51.302192 3.2916,-5.01331 c 0,0 1.9382,-3.18396 11.85693,-4.46989 10.36322,-1.34354 15.05698,-2.38631 16.83093,-5.0881 l -3.48657,5.3102 c 0,0 -2.19952,3.15077 -13.44131,4.94444 -11.24179,1.79367 -12.45914,1.89016 -15.05158,4.31666 z"
   id="path170"
   style="fill:#bf1266;fill-opacity:1" />
	<path
   class="st5"
   d="m 391.75298,113.17647 1.93475,-7.08231 c 0,0 0.98557,-3.94925 11.82141,-7.946838 9.71124,-3.58267 12.99765,-5.18494 14.37918,-7.42725 l -2.55466,5.5022 c 0,0 -1.52649,3.07095 -13.6774,7.644068 -11.0956,4.17592 -11.19103,7.90043 -11.90328,9.31013 z"
   id="path171"
   style="fill:#bf1266;fill-opacity:1" />
	<path
   class="st5"
   d="m 401.63799,86.988502 2.55502,-5.06544 c 0,0 2.58884,-4.79669 11.20724,-5.04312 8.345,-0.23862 13.67102,-0.27934 15.06894,-2.71239 l -2.7514,4.16837 c 0,0 -1.95886,2.52968 -11.43655,2.6599 -9.47769,0.13022 -13.86118,4.1679 -14.64325,5.99268 z"
   id="path172"
   style="fill:#bf1266;fill-opacity:1" />
	<path
   class="st5"
   d="m 388.56188,130.21132 0.72186,-5.51996 c 0,0 0.36722,-3.63913 9.65775,-8.37036 12.61432,-6.42389 13.26663,-7.30969 14.14783,-9.90335 l -1.82858,6.39685 c 0,0 -0.76984,2.85172 -7.91064,6.40659 -8.95622,4.45862 -13.76534,7.6593 -14.78822,10.99023 z"
   id="path173"
   style="fill:#bf1266;fill-opacity:1" />
	<path
   class="st5"
   d="m 387.77446,157.20623 -0.35049,-5.25467 c 0,0 -0.2262,-3.44534 7.83612,-9.31116 10.94669,-7.96436 11.42535,-8.89157 11.85153,-11.44458 l -0.72418,6.24234 c 0,0 0.38443,2.25937 -6.48953,7.20825 -7.76526,5.59055 -11.48612,9.02368 -12.12345,12.55982 z"
   id="path174"
   style="fill:#bf1266;fill-opacity:1" />
	<path
   class="st5"
   d="m 390.38851,177.49071 -1.10986,-6.06235 c 0,0 -0.49515,-3.2395 6.46194,-10.05209 9.44611,-9.24988 9.72418,-10.23041 9.87634,-12.99353 l 0.004,6.69107 c 0,0 0.17813,2.79303 -5.3609,8.1478 -6.71389,6.49054 -9.6167,10.43887 -9.87133,14.2691 z"
   id="path175"
   style="fill:#bf1266;fill-opacity:1" />
	<path
   class="st5"
   d="m 399.01103,203.05077 -2.09464,-4.36783 c 0,0 -1.60199,-3.77359 3.72717,-11.70779 7.23575,-10.77277 7.30084,-11.74377 6.87161,-14.33078 l 1.40073,6.17661 c 0,0 0.75601,2.53656 -3.50134,8.78964 -5.16036,7.57937 -6.95614,11.84368 -6.40353,15.44015 z"
   id="path176"
   style="fill:#bf1266;fill-opacity:1" />
	<path
   class="st5"
   d="m 410.63188,219.6418 -3.19653,-3.34909 c 0,0 -2.51663,-3.02713 0.96432,-11.9285 4.72632,-12.08597 4.57922,-13.04797 3.59897,-15.48022 l 2.70734,5.72559 c 0,0 1.28439,2.61057 -1.51108,9.3399 -3.51761,8.46778 -3.88272,12.30142 -2.56302,15.69232 z"
   id="path177"
   style="fill:#bf1266;fill-opacity:1" />
	<path
   class="st5"
   d="m 431.6176,232.97292 -3.88467,-1.47992 c 0,0 -3.92944,-1.82275 -2.98819,-10.52322 0.94214,-8.7085 1.24786,-11.64386 -0.23563,-13.38129 l 3.60117,3.39908 c 0,0 2.25336,1.85867 1.17886,8.20032 -1.1734,6.92532 -0.82498,11.12268 2.32846,13.78503 z"
   id="path178"
   style="fill:#bf1266;fill-opacity:1" />
	<path
   class="st5"
   d="m 451.39989,234.75164 -4.70123,0.46643 c 0,0 -4.86343,0.27487 -6.37735,-6.82861 -1.79678,-8.43057 -3.0658,-11.53305 -4.94308,-12.71991 l 4.99194,1.3381 c 0,0 2.11786,0.24969 3.57373,8.19229 1.24398,6.78668 3.67797,9.81354 7.45599,9.5517 z"
   id="path179"
   style="fill:#bf1266;fill-opacity:1" />
	<path
   class="st5"
   d="m 473.77309,224.89864 -5.09772,3.19238 c 0,0 -3.88004,2.58826 -8.97913,-2.58389 -8.86716,-8.99426 -8.4689,-7.79498 -12.60291,-7.3132 l 7.44327,-1.69803 c 0,0 2.05093,-0.54721 6.62988,4.414 5.41267,5.86447 9.49943,6.15372 12.60661,3.98874 z"
   id="path180"
   style="fill:#bf1266;fill-opacity:1" />
	<path
   class="st5"
   d="m 487.26503,211.56386 -3.72589,4.78067 c 0,0 -3.03995,3.59177 -9.00897,0.42371 -10.37997,-5.50922 -9.73068,-4.53003 -13.49359,-2.79715 l 6.58389,-3.88425 c 0,0 1.79587,-1.14325 7.22894,1.99295 6.42227,3.70728 10.00244,2.44532 12.41562,-0.51593 z"
   id="path181"
   style="fill:#bf1266;fill-opacity:1" />
	<path
   class="st5"
   d="m 492.41445,189.80947 0.18579,5.87836 c 0,0 -0.38074,5.47269 -7.64252,6.76245 -8.6156,1.53018 -8.69537,1.39273 -10.48654,5.48718 l 4.03745,-7.15665 c 0,0 0.80743,-0.87091 4.90097,-1.76413 5.41872,-1.18237 9.25207,-4.33386 9.00485,-9.20721 z"
   id="path182"
   style="fill:#bf1266;fill-opacity:1" />
	<path
   class="st5"
   d="m 441.32167,25.023842 3.29163,-5.01331 c 0,0 1.93817,-3.18396 11.8569,-4.46988 10.36322,-1.34355 15.05701,-2.38632 16.83093,-5.08812 l -3.48657,5.3102 c 0,0 -2.19949,3.15077 -13.44131,4.94444 -11.24179,1.79367 -12.45911,1.89017 -15.05158,4.31667 z"
   id="path183"
   style="fill:#bf1266;fill-opacity:1" />
	<path
   class="st6"
   d="m 72.043625,39.487072 c -0.68378,-1.2308 -2.33031,-1.45872 -3.19099,-1.45872 -8.65211,8.9e-4 -13.75308,-8.30353 -20.72025,-18.34036 -1.84127,-2.65132 -3.74472,-5.39325 -5.83736,-8.18314 -9.65313,-12.8666998 -31.03516,-5.3106498 -31.25011,-5.2320398 -0.94062,0.34241 -1.9869399,-0.14478 -2.3297899,-1.0894 -0.34285,-0.94373 0.143,-1.9865 1.08718,-2.32979 0.9796999,-0.35661 24.1292799,-8.56195 35.4025199,6.46799 2.1335,2.8431898 4.05648,5.6130798 5.91552,8.2919498 7.18656,10.35172 12.38884,17.82828 20.29574,16.40135 0,0 1.0378,-0.18044 1.85834,-0.81862"
   id="path184"
   style="fill:#f49ec4;fill-opacity:1;stroke:#c27d9c;stroke-opacity:1" />
</g>


</svg>
