<?xml version="1.0" encoding="UTF-8" standalone="no"?>
<svg
   version="1.1"
   width="560"
   height="411"
   id="svg509"
   sodipodi:docname="1-s2.0-S0168952520301256-gr1.svg"
   inkscape:version="1.4.4 (dcaf3e7d9e, 2026-05-05)"
   xmlns:inkscape="http://www.inkscape.org/namespaces/inkscape"
   xmlns:sodipodi="http://sodipodi.sourceforge.net/DTD/sodipodi-0.dtd"
   xmlns="http://www.w3.org/2000/svg"
   xmlns:svg="http://www.w3.org/2000/svg">
  <defs
     id="defs509" />
  <sodipodi:namedview
     id="namedview509"
     pagecolor="#ffffff"
     bordercolor="#000000"
     borderopacity="0.25"
     inkscape:showpageshadow="2"
     inkscape:pageopacity="0.0"
     inkscape:pagecheckerboard="0"
     inkscape:deskcolor="#d1d1d1"
     inkscape:zoom="4.2924807"
     inkscape:cx="66.395173"
     inkscape:cy="269.42462"
     inkscape:window-width="1854"
     inkscape:window-height="1131"
     inkscape:window-x="0"
     inkscape:window-y="0"
     inkscape:window-maximized="1"
     inkscape:current-layer="svg509"
     showguides="false">
    <inkscape:page
       x="0"
       y="0"
       width="560"
       height="411"
       id="page2"
       margin="0"
       bleed="0" />
  </sodipodi:namedview>
  <path
     d="m 123.2563,261.99961 c -4.49226,0.0732 -4.52204,-10.2165 -4.97012,-11.49159 C 117.83811,249.23294 115,244 115,244 l 13,1.00534 c 0,0 -0.25144,16.92112 -4.7437,16.99427 z"
     fill="#b5cae9"
     id="path124-3-2"
     sodipodi:nodetypes="zzccz"
     style="stroke-width:1.00267" />
  <path
     d="m 528.46817,125.53545 c 9.26545,0.0774 12.5593,117.56211 12.5593,117.56211 h -27 c 0,0 6.57725,-19.71609 6.91908,-28.90652 0.27299,-7.33955 -3.83616,-88.75043 7.52162,-88.65559 z"
     fill="#ead19a"
     id="path8-0"
     sodipodi:nodetypes="sccss"
     style="fill:#88997d;fill-opacity:1" />
  <path
     d="M 438.4407,126.43789 C 447.70615,126.51526 451,244 451,244 h -27 c 0,0 6.57725,-19.71609 6.91908,-28.90652 0.27299,-7.33955 -3.83616,-88.75043 7.52162,-88.65559 z"
     fill="#ead19a"
     id="path8"
     sodipodi:nodetypes="sccss" />
  <path
     d="M 138.83133,174.24568 C 145.05296,174.00229 150.35396,230 150.35396,230 c 0,0 146.39932,0.77868 149.64604,0 3.24672,-0.77869 9.06919,-17.27078 35.77927,-17.26015 C 362.48935,212.75048 373.79289,244 373.79289,244 H 131 c 0,0 1.60971,-69.51093 7.83133,-69.75432 z"
     fill="#9782b5"
     id="path28"
     sodipodi:nodetypes="zczzccz" />
  <path
     d="m 44.743702,226 c 4.492263,-0.0728 4.522042,10.25828 4.970117,11.52659 C 50.161893,238.79489 53,244 53,244 l -13,-1 c 0,0 0.25144,-16.92725 4.743702,-17 z"
     fill="#b5cae9"
     id="path124"
     sodipodi:nodetypes="zzccz" />
  <path
     d="m 32.256298,261.99961 c -4.492263,0.0732 -4.522042,-10.2165 -4.970117,-11.49159 C 26.838107,249.23294 24,244 24,244 l 13,1.00534 c 0,0 -0.251439,16.92112 -4.743702,16.99427 z"
     fill="#b5cae9"
     id="path124-3"
     sodipodi:nodetypes="zzccz"
     style="stroke-width:1.00267" />
  <path
     d="M 44,218 54.181839,224 44,230 43.999886,225 H 40 v 18 h 89 v -20 h 6 v -5 l 8.77658,6 L 135,230 v -5 h -4 v 18 h 291 v -21 h 6 v -4 l 9.17812,5.18486 L 428,229 v -5 h -4 v 19 h 88 v -20 h 6 v -5 l 9.27853,6 L 518,230 v -5 h -4 v 18 h 46 v 2 h -47 v 20 h -6 v 5 L 497.54033,264 507,258 v 5 h 4 v -18 h -88 v 20 h -6 v 5 L 406.25047,264 417,258 v 5 h 4 V 245 H 130 v 20 h -6 v 5 l -11,-6 11,-6.82429 V 263 h 4 V 245 H 39 v 20 h -6 v 5 l -10,-6 10,-6 v 5 h 4 V 245 H 3 v -2 h 35 v -20 h 6 z"
     fill="#020005"
     id="path5"
     sodipodi:nodetypes="ccccccccccccccccccccccccccccccccccccccccccccccccccccccccccccccccccccccccccccc"
     style="display:inline" />
</svg>
