<?xml version="1.0" encoding="UTF-8" standalone="no"?>
<!-- Created with Inkscape (http://www.inkscape.org/) -->

<svg
   version="1.1"
   width="620"
   height="148.39999"
   id="svg2"
   sodipodi:docname="Signal_sequence.svg"
   inkscape:version="1.4.4 (dcaf3e7d9e, 2026-05-05)"
   xmlns:inkscape="http://www.inkscape.org/namespaces/inkscape"
   xmlns:sodipodi="http://sodipodi.sourceforge.net/DTD/sodipodi-0.dtd"
   xmlns="http://www.w3.org/2000/svg"
   xmlns:svg="http://www.w3.org/2000/svg">
  <sodipodi:namedview
     id="namedview1"
     pagecolor="#ffffff"
     bordercolor="#000000"
     borderopacity="0.25"
     inkscape:showpageshadow="2"
     inkscape:pageopacity="0.0"
     inkscape:pagecheckerboard="0"
     inkscape:deskcolor="#d1d1d1"
     inkscape:zoom="2.8274194"
     inkscape:cx="18.391329"
     inkscape:cy="57.826583"
     inkscape:window-width="1854"
     inkscape:window-height="1131"
     inkscape:window-x="0"
     inkscape:window-y="0"
     inkscape:window-maximized="1"
     inkscape:current-layer="svg2" />
  <defs
     id="defs4" />
  <path
     d="M 118.02697,52.464136 H 317.38298 V 71.943839 H 118.02697 Z"
     id="rect2816"
     style="fill:#f594c3;fill-opacity:1;fill-rule:evenodd;stroke:#000000;stroke-width:1.22157;stroke-linecap:round;stroke-linejoin:round;stroke-miterlimit:4;stroke-dashoffset:7.8;stroke-opacity:1" />
  <path
     d="m 316.83584,52.467471 h 70.19609 V 71.94966 h -70.19609 z"
     id="rect2816-1"
     style="display:inline;fill:#950e4f;fill-opacity:1;fill-rule:evenodd;stroke:#000000;stroke-width:1.22157;stroke-linecap:round;stroke-linejoin:round;stroke-miterlimit:4;stroke-dashoffset:7.8;stroke-opacity:1" />
  <path
     d="M 48.327955,52.457796 H 118.36901 V 71.950154 H 48.327955 Z"
     id="rect2816-1-7"
     style="fill:#ef58a0;fill-opacity:1;fill-rule:evenodd;stroke:#000000;stroke-width:1.22157;stroke-linecap:round;stroke-linejoin:round;stroke-miterlimit:4;stroke-dashoffset:7.8;stroke-opacity:1" />
  <path
     d="M 399.0139,52.521825 H 569.91304 V 72.002767 H 399.0139 Z"
     id="rect2816-1-4"
     style="fill:none;stroke:#000000;stroke-width:1.22033;stroke-linecap:round;stroke-linejoin:round;stroke-miterlimit:4;stroke-dashoffset:7.8;stroke-opacity:1" />
  <path
     d="m 594.34807,62.26138 h -23.39451 l 23.39451,0.0018 z"
     id="rect4388-0-3-6-2-7-0"
     style="fill:none;stroke:#000000;stroke-width:1.22119;stroke-linecap:round;stroke-linejoin:round;stroke-miterlimit:4;stroke-dasharray:none;stroke-dashoffset:0;stroke-opacity:1" />
  <g
     id="text3689"
     style="font-style:normal;font-variant:normal;font-weight:normal;font-stretch:normal;font-size:36px;line-height:125%;font-family:Arial;-inkscape-font-specification:Arial;text-align:start;writing-mode:lr-tb;text-anchor:start;fill:#000000;fill-opacity:1;stroke:none"
     transform="matrix(0.6107832,0,0,0.6107832,108.18997,-168.36784)">
    <path
       d="m 818.17438,381.44699 3.41015,0.86133 c -0.71486,2.80079 -2.001,4.93653 -3.85839,6.40723 -1.85745,1.4707 -4.12795,2.20605 -6.81153,2.20605 -2.77735,0 -5.03614,-0.56543 -6.77637,-1.69629 -1.74024,-1.13086 -3.06445,-2.76855 -3.97265,-4.91308 -0.90821,-2.14453 -1.36231,-4.44726 -1.36231,-6.90821 0,-2.68358 0.5127,-5.02439 1.53809,-7.02246 1.02539,-1.99802 2.48437,-3.5156 4.37695,-4.55273 1.89257,-1.03709 3.97558,-1.55564 6.24903,-1.55567 2.5781,3e-5 4.74607,0.65628 6.5039,1.96875 1.75779,1.31253 2.9824,3.15823 3.67383,5.53711 l -3.35742,0.79102 c -0.59768,-1.87498 -1.46486,-3.24022 -2.60156,-4.09571 -1.13674,-0.85544 -2.56643,-1.28318 -4.28907,-1.2832 -1.98048,2e-5 -3.63575,0.47463 -4.96582,1.42383 -1.33008,0.94924 -2.26465,2.22365 -2.80371,3.82324 -0.53907,1.59963 -0.8086,3.24904 -0.80859,4.94824 -10e-6,2.19142 0.31933,4.10451 0.95801,5.73926 0.63866,1.63477 1.63182,2.85645 2.97949,3.66504 1.34764,0.8086 2.80663,1.21289 4.37695,1.21289 1.91014,0 3.52733,-0.55078 4.85156,-1.65234 1.3242,-1.10156 2.22069,-2.73632 2.68946,-4.9043 z"
       id="path4326" />
  </g>
  <g
     id="text3689-8-5"
     style="font-style:normal;font-variant:normal;font-weight:normal;font-stretch:normal;font-size:36px;line-height:125%;font-family:Arial;-inkscape-font-specification:Arial;text-align:start;writing-mode:lr-tb;text-anchor:start;fill:#000000;fill-opacity:1;stroke:none"
     transform="matrix(0.6107832,0,0,0.6107832,108.18997,-168.36784)">
    <path
       d="m -160.76076,390.38666 v -25.76953 h 3.49805 l 13.53516,20.23242 v -20.23242 h 3.26953 v 25.76953 h -3.49805 l -13.53516,-20.25 v 20.25 z"
       id="path4323" />
  </g>
  <path
     d="M 48.304656,62.203056 H 24.910145 l 23.394511,0.0018 z"
     id="rect4388-0-3-6-2-7-0-1"
     style="fill:none;stroke:#000000;stroke-width:1.22119;stroke-linecap:round;stroke-linejoin:round;stroke-miterlimit:4;stroke-dasharray:none;stroke-dashoffset:0;stroke-opacity:1" />
  <g
     id="text3689-8-5-15"
     style="font-style:normal;font-variant:normal;font-weight:normal;font-stretch:normal;font-size:28px;line-height:125%;font-family:Arial;-inkscape-font-specification:Arial;text-align:start;writing-mode:lr-tb;text-anchor:start;fill:#000000;fill-opacity:1;stroke:none"
     transform="matrix(0.6107832,0,0,0.6107832,108.18997,-168.36784)">
    <path
       d="m 147.1324,409.98004 -2.44727,0.19141 c -0.21876,-0.96613 -0.52865,-1.66795 -0.92968,-2.10547 -0.66538,-0.70181 -1.48569,-1.05272 -2.46094,-1.05274 -0.78386,2e-5 -1.47201,0.21877 -2.06445,0.65625 -0.77475,0.56513 -1.38542,1.38999 -1.83203,2.47461 -0.44662,1.08465 -0.67904,2.62957 -0.69727,4.63477 0.59244,-0.90233 1.31705,-1.57225 2.17383,-2.00977 0.85676,-0.43748 1.75455,-0.65623 2.69336,-0.65625 1.64061,2e-5 3.03742,0.60386 4.19043,1.81153 1.15298,1.20769 1.72947,2.76856 1.72949,4.68261 -2e-5,1.25782 -0.27117,2.42677 -0.81348,3.50684 -0.54233,1.08008 -1.28744,1.90723 -2.23535,2.48145 -0.94793,0.57421 -2.02345,0.86132 -3.22656,0.86132 -2.05079,0 -3.72331,-0.75423 -5.01758,-2.26269 -1.29427,-1.50846 -1.94141,-3.99446 -1.94141,-7.45801 0,-3.87368 0.7155,-6.69009 2.14649,-8.44922 1.24869,-1.53123 2.93033,-2.29685 5.04492,-2.29687 1.57681,2e-5 2.8688,0.44207 3.87598,1.32617 1.00715,0.88413 1.61099,2.10548 1.81152,3.66406 z m -10.04883,8.64063 c 0,0.84766 0.18001,1.65886 0.54004,2.43359 0.36002,0.77474 0.8636,1.36491 1.51074,1.77051 0.64713,0.4056 1.32617,0.6084 2.03711,0.6084 1.03906,0 1.93228,-0.41927 2.67969,-1.25782 0.74738,-0.83853 1.12108,-1.97786 1.12109,-3.41796 -1e-5,-1.38541 -0.36915,-2.47688 -1.10742,-3.27442 -0.73829,-0.79751 -1.66798,-1.19628 -2.78906,-1.19629 -1.11199,1e-5 -2.05534,0.39878 -2.83008,1.19629 -0.77474,0.79754 -1.16211,1.84343 -1.16211,3.1377 z"
       id="path4310" />
    <path
       d="m 149.67537,419.09918 v -2.47461 h 7.56055 v 2.47461 z"
       id="path4312" />
    <path
       d="m 168.5699,425.11481 h -2.46094 v -15.68164 c -0.59245,0.56512 -1.36947,1.13022 -2.33105,1.69531 -0.96159,0.56512 -1.8252,0.98894 -2.59082,1.27148 v -2.3789 c 1.3763,-0.64712 2.57942,-1.43098 3.60937,-2.35157 1.02994,-0.92055 1.75911,-1.81378 2.1875,-2.67968 h 1.58594 z"
       id="path4314" />
    <path
       d="m 174.88631,419.86481 2.58398,-0.21875 c 0.1914,1.25781 0.63574,2.20345 1.33301,2.83691 0.69726,0.63347 1.53808,0.9502 2.52246,0.9502 1.18489,0 2.18749,-0.44662 3.00781,-1.33985 0.8203,-0.89322 1.23046,-2.07812 1.23047,-3.55468 -1e-5,-1.40364 -0.39422,-2.51106 -1.18262,-3.32227 -0.78842,-0.81119 -1.82064,-1.21679 -3.09668,-1.2168 -0.79297,10e-6 -1.50847,0.18003 -2.14648,0.54004 -0.63803,0.36004 -1.13933,0.82716 -1.50391,1.40137 l -2.31054,-0.30078 1.9414,-10.29492 h 9.9668 v 2.35156 h -7.99805 l -1.08008,5.38672 c 1.20312,-0.83853 2.46549,-1.2578 3.78711,-1.25782 1.74999,2e-5 3.22656,0.60614 4.42969,1.81836 1.20311,1.21225 1.80467,2.77085 1.80469,4.67579 -2e-5,1.8138 -0.52866,3.38151 -1.58594,4.70312 -1.28517,1.6224 -3.03972,2.43359 -5.26367,2.43359 -1.82292,0 -3.31088,-0.51041 -4.46387,-1.53125 -1.15299,-1.02083 -1.81152,-2.37434 -1.97558,-4.06054 z"
       id="path4316" />
    <path
       d="m 208.39607,423.32379 c -0.91147,0.77474 -1.78874,1.32162 -2.63183,1.64063 -0.84311,0.31901 -1.74773,0.47851 -2.71387,0.47851 -1.59506,0 -2.82097,-0.38965 -3.67774,-1.16894 -0.85677,-0.7793 -1.28515,-1.77507 -1.28515,-2.98731 0,-0.71093 0.16178,-1.36034 0.48535,-1.94824 0.32357,-0.58788 0.74739,-1.05956 1.27148,-1.41504 0.52409,-0.35546 1.11426,-0.62434 1.77051,-0.80664 0.48307,-0.1276 1.21224,-0.25064 2.1875,-0.36914 1.98697,-0.23697 3.44986,-0.51952 4.38867,-0.84766 0.009,-0.33723 0.0137,-0.55142 0.0137,-0.64257 -1e-5,-1.0026 -0.23244,-1.70898 -0.69727,-2.11915 -0.62892,-0.55597 -1.56316,-0.83397 -2.80273,-0.83398 -1.15756,10e-6 -2.01205,0.20281 -2.56348,0.6084 -0.55144,0.40561 -0.95931,1.12338 -1.22363,2.15332 l -2.40625,-0.32813 c 0.21875,-1.02993 0.57877,-1.86164 1.08007,-2.49511 0.5013,-0.63345 1.22591,-1.12108 2.17383,-1.46289 0.94791,-0.34179 2.04622,-0.51268 3.29492,-0.5127 1.23958,2e-5 2.24674,0.14585 3.02149,0.4375 0.77473,0.29168 1.34439,0.65854 1.70898,1.10059 0.36457,0.44207 0.61978,1.00033 0.76563,1.6748 0.082,0.41928 0.12303,1.17579 0.12305,2.26953 v 3.28125 c -2e-5,2.28777 0.0524,3.73471 0.15722,4.34082 0.10481,0.60612 0.31216,1.18718 0.62207,1.74317 h -2.57031 c -0.25522,-0.51042 -0.41928,-1.10742 -0.49219,-1.79102 z m -0.20508,-5.49609 c -0.89324,0.36459 -2.23308,0.67448 -4.01953,0.92969 -1.01172,0.14583 -1.72722,0.3099 -2.14648,0.49218 -0.41928,0.1823 -0.74284,0.4489 -0.9707,0.79981 -0.22787,0.35091 -0.3418,0.74056 -0.3418,1.16894 0,0.65626 0.24837,1.20313 0.74512,1.64063 0.49674,0.4375 1.22362,0.65625 2.18066,0.65625 0.94791,0 1.79101,-0.20736 2.5293,-0.62207 0.73827,-0.41471 1.28059,-0.9821 1.62695,-1.70215 0.26431,-0.55599 0.39647,-1.3763 0.39648,-2.46094 z"
       id="path4318" />
    <path
       d="m 223.98201,423.32379 c -0.91147,0.77474 -1.78875,1.32162 -2.63184,1.64063 -0.8431,0.31901 -1.74772,0.47851 -2.71386,0.47851 -1.59506,0 -2.82097,-0.38965 -3.67774,-1.16894 -0.85677,-0.7793 -1.28515,-1.77507 -1.28515,-2.98731 0,-0.71093 0.16178,-1.36034 0.48535,-1.94824 0.32356,-0.58788 0.74739,-1.05956 1.27148,-1.41504 0.52409,-0.35546 1.11426,-0.62434 1.77051,-0.80664 0.48307,-0.1276 1.21223,-0.25064 2.1875,-0.36914 1.98697,-0.23697 3.44986,-0.51952 4.38867,-0.84766 0.009,-0.33723 0.0137,-0.55142 0.0137,-0.64257 -1e-5,-1.0026 -0.23243,-1.70898 -0.69726,-2.11915 -0.62892,-0.55597 -1.56316,-0.83397 -2.80274,-0.83398 -1.15755,10e-6 -2.01205,0.20281 -2.56347,0.6084 -0.55144,0.40561 -0.95932,1.12338 -1.22364,2.15332 l -2.40625,-0.32813 c 0.21875,-1.02993 0.57878,-1.86164 1.08008,-2.49511 0.5013,-0.63345 1.22591,-1.12108 2.17383,-1.46289 0.94791,-0.34179 2.04622,-0.51268 3.29492,-0.5127 1.23958,2e-5 2.24674,0.14585 3.02149,0.4375 0.77472,0.29168 1.34439,0.65854 1.70898,1.10059 0.36457,0.44207 0.61978,1.00033 0.76563,1.6748 0.082,0.41928 0.12303,1.17579 0.12304,2.26953 v 3.28125 c -1e-5,2.28777 0.0524,3.73471 0.15723,4.34082 0.1048,0.60612 0.31216,1.18718 0.62207,1.74317 h -2.57031 c -0.25522,-0.51042 -0.41928,-1.10742 -0.49219,-1.79102 z m -0.20508,-5.49609 c -0.89324,0.36459 -2.23308,0.67448 -4.01953,0.92969 -1.01172,0.14583 -1.72722,0.3099 -2.14648,0.49218 -0.41928,0.1823 -0.74285,0.4489 -0.97071,0.79981 -0.22787,0.35091 -0.3418,0.74056 -0.34179,1.16894 -1e-5,0.65626 0.24836,1.20313 0.74511,1.64063 0.49674,0.4375 1.22363,0.65625 2.18067,0.65625 0.94791,0 1.791,-0.20736 2.52929,-0.62207 0.73828,-0.41471 1.28059,-0.9821 1.62696,-1.70215 0.26431,-0.55599 0.39647,-1.3763 0.39648,-2.46094 z"
       id="path4320" />
  </g>
  <g
     id="text3689-8-5-15-7"
     style="font-style:normal;font-variant:normal;font-weight:normal;font-stretch:normal;font-size:36px;line-height:125%;font-family:Arial;-inkscape-font-specification:Arial;text-align:start;writing-mode:lr-tb;text-anchor:start;fill:#000000;fill-opacity:1;stroke:none"
     transform="matrix(0.6107832,0,0,0.6107832,108.18997,-168.36784)">
    <path
       d="m 120.45623,501.81732 h -3.16406 v -20.16211 c -0.76173,0.72658 -1.76075,1.45315 -2.99707,2.17969 -1.23634,0.72658 -2.34669,1.2715 -3.33106,1.63477 v -3.0586 c 1.76953,-0.83201 3.3164,-1.83982 4.64063,-3.02344 1.32421,-1.18357 2.26171,-2.332 2.8125,-3.44531 h 2.03906 z"
       id="path4295" />
    <path
       d="m 128.57732,495.06732 3.32227,-0.28125 c 0.24609,1.61719 0.81738,2.83301 1.71387,3.64746 0.89647,0.81446 1.97753,1.22168 3.24316,1.22168 1.52343,0 2.81249,-0.57421 3.86719,-1.72265 1.05467,-1.14844 1.58201,-2.67187 1.58203,-4.57032 -2e-5,-1.80467 -0.50685,-3.2285 -1.52051,-4.27148 -1.01368,-1.04296 -2.34083,-1.56444 -3.98144,-1.56445 -1.01954,10e-6 -1.93946,0.23146 -2.75977,0.69433 -0.82032,0.46291 -1.46485,1.06349 -1.93359,1.80176 l -2.97071,-0.38672 2.4961,-13.23633 h 12.81445 v 3.02344 h -10.2832 l -1.38867,6.92578 c 1.54686,-1.07811 3.16991,-1.61717 4.86914,-1.61719 2.24998,2e-5 4.14842,0.77932 5.69531,2.33789 1.54686,1.55861 2.32029,3.56252 2.32031,6.01172 -2e-5,2.33204 -0.6797,4.34766 -2.03906,6.04688 -1.65236,2.08594 -3.90822,3.1289 -6.76758,3.1289 -2.34376,0 -4.25684,-0.65624 -5.73926,-1.96875 -1.48242,-1.31249 -2.3291,-3.05272 -2.54004,-5.2207 z"
       id="path4297" />
    <path
       d="m 148.26482,494.08295 v -3.18164 h 9.72071 v 3.18164 z"
       id="path4299" />
    <path
       d="m 160.63982,495.06732 3.32227,-0.28125 c 0.24609,1.61719 0.81738,2.83301 1.71387,3.64746 0.89647,0.81446 1.97753,1.22168 3.24316,1.22168 1.52343,0 2.81249,-0.57421 3.86719,-1.72265 1.05467,-1.14844 1.58201,-2.67187 1.58203,-4.57032 -2e-5,-1.80467 -0.50685,-3.2285 -1.52051,-4.27148 -1.01368,-1.04296 -2.34083,-1.56444 -3.98144,-1.56445 -1.01954,10e-6 -1.93946,0.23146 -2.75977,0.69433 -0.82032,0.46291 -1.46485,1.06349 -1.93359,1.80176 l -2.97071,-0.38672 2.4961,-13.23633 h 12.81445 v 3.02344 h -10.2832 l -1.38867,6.92578 c 1.54686,-1.07811 3.16991,-1.61717 4.86914,-1.61719 2.24998,2e-5 4.14842,0.77932 5.69531,2.33789 1.54686,1.55861 2.32029,3.56252 2.32031,6.01172 -2e-5,2.33204 -0.6797,4.34766 -2.03906,6.04688 -1.65236,2.08594 -3.90822,3.1289 -6.76758,3.1289 -2.34376,0 -4.25684,-0.65624 -5.73926,-1.96875 -1.48242,-1.31249 -2.3291,-3.05272 -2.54004,-5.2207 z"
       id="path4301" />
    <path
       d="m 180.67889,489.10834 c -1e-5,-3.04686 0.31347,-5.49901 0.94043,-7.35645 0.62695,-1.8574 1.55859,-3.29001 2.79492,-4.29785 1.23632,-1.00779 2.79198,-1.51169 4.66699,-1.51172 1.3828,3e-5 2.59569,0.27835 3.63867,0.83496 1.04296,0.55667 1.90428,1.3594 2.58399,2.40821 0.67967,1.04885 1.21287,2.32619 1.59961,3.83203 0.3867,1.50587 0.58006,3.53615 0.58007,6.09082 -10e-6,3.02344 -0.31056,5.46387 -0.93164,7.32129 -0.62111,1.85742 -1.54982,3.29297 -2.78613,4.30664 -1.23634,1.01367 -2.79786,1.5205 -4.68457,1.5205 -2.48438,0 -4.43555,-0.89062 -5.85352,-2.67187 -1.69922,-2.14453 -2.54883,-5.63671 -2.54882,-10.47656 z m 3.25195,0 c -1e-5,4.23047 0.49511,7.0459 1.48535,8.44629 0.99023,1.40039 2.21191,2.10058 3.66504,2.10058 1.45311,0 2.67479,-0.70312 3.66504,-2.10937 0.99022,-1.40625 1.48534,-4.21874 1.48535,-8.4375 -1e-5,-4.24217 -0.49513,-7.06053 -1.48535,-8.45508 -0.99025,-1.39451 -2.22364,-2.09177 -3.7002,-2.0918 -1.45313,3e-5 -2.61328,0.61526 -3.48046,1.84571 -1.08985,1.57033 -1.63478,4.47072 -1.63477,8.70117 z"
       id="path4303" />
    <path
       d="m 223.76287,499.51459 c -1.17189,0.99609 -2.29982,1.69922 -3.38379,2.10937 -1.08399,0.41016 -2.24708,0.61524 -3.48926,0.61524 -2.05078,0 -3.62695,-0.50098 -4.72851,-1.50293 -1.10157,-1.00195 -1.65235,-2.28223 -1.65235,-3.84082 0,-0.91406 0.20801,-1.74902 0.62403,-2.50489 0.41601,-0.75585 0.96093,-1.36229 1.63476,-1.81933 0.67383,-0.45702 1.43262,-0.80273 2.27637,-1.03711 0.62109,-0.16405 1.55859,-0.32226 2.8125,-0.47461 2.55468,-0.30468 4.43553,-0.66796 5.64258,-1.08984 0.0117,-0.43359 0.0176,-0.70898 0.0176,-0.82618 -2e-5,-1.28904 -0.29885,-2.19725 -0.89649,-2.72461 -0.8086,-0.71482 -2.00977,-1.07224 -3.60351,-1.07226 -1.48829,2e-5 -2.58692,0.26076 -3.2959,0.78223 -0.70899,0.52149 -1.23341,1.44435 -1.57324,2.76855 l -3.09375,-0.42188 c 0.28124,-1.3242 0.74413,-2.39353 1.38867,-3.208 0.64453,-0.81444 1.57617,-1.44139 2.79492,-1.88086 1.21874,-0.43944 2.63085,-0.65916 4.23633,-0.65918 1.59374,2e-5 2.88866,0.18752 3.88476,0.5625 0.99608,0.37502 1.7285,0.8467 2.19727,1.41504 0.46873,0.56837 0.79686,1.28615 0.98437,2.15332 0.10546,0.53907 0.15819,1.51173 0.15821,2.91797 v 4.21875 c -2e-5,2.94141 0.0674,4.80176 0.20215,5.58105 0.13474,0.7793 0.40135,1.52637 0.7998,2.24121 h -3.30469 c -0.32814,-0.65625 -0.53907,-1.42382 -0.63281,-2.30273 z m -0.26367,-7.06641 c -1.14845,0.46876 -2.87111,0.8672 -5.16797,1.19531 -1.30079,0.18751 -2.22071,0.39845 -2.75977,0.63282 -0.53906,0.23438 -0.95508,0.57715 -1.24804,1.02832 -0.29298,0.45117 -0.43946,0.95215 -0.43946,1.50293 0,0.84375 0.31934,1.54687 0.95801,2.10937 0.63867,0.5625 1.57324,0.84375 2.80371,0.84375 1.21874,0 2.30273,-0.2666 3.25196,-0.7998 0.9492,-0.5332 1.64647,-1.26269 2.09179,-2.18848 0.33983,-0.71484 0.50975,-1.76952 0.50977,-3.16406 z"
       id="path4305" />
    <path
       d="m 243.80193,499.51459 c -1.17189,0.99609 -2.29981,1.69922 -3.38379,2.10937 -1.08399,0.41016 -2.24708,0.61524 -3.48925,0.61524 -2.05079,0 -3.62696,-0.50098 -4.72852,-1.50293 -1.10156,-1.00195 -1.65234,-2.28223 -1.65234,-3.84082 0,-0.91406 0.208,-1.74902 0.62402,-2.50489 0.41601,-0.75585 0.96094,-1.36229 1.63477,-1.81933 0.67382,-0.45702 1.43261,-0.80273 2.27636,-1.03711 0.62109,-0.16405 1.55859,-0.32226 2.8125,-0.47461 2.55468,-0.30468 4.43554,-0.66796 5.64258,-1.08984 0.0117,-0.43359 0.0176,-0.70898 0.0176,-0.82618 -1e-5,-1.28904 -0.29884,-2.19725 -0.89648,-2.72461 -0.80861,-0.71482 -2.00978,-1.07224 -3.60352,-1.07226 -1.48829,2e-5 -2.58692,0.26076 -3.2959,0.78223 -0.70899,0.52149 -1.2334,1.44435 -1.57324,2.76855 l -3.09375,-0.42188 c 0.28125,-1.3242 0.74414,-2.39353 1.38867,-3.208 0.64453,-0.81444 1.57617,-1.44139 2.79492,-1.88086 1.21875,-0.43944 2.63085,-0.65916 4.23633,-0.65918 1.59374,2e-5 2.88866,0.18752 3.88477,0.5625 0.99608,0.37502 1.7285,0.8467 2.19726,1.41504 0.46874,0.56837 0.79686,1.28615 0.98438,2.15332 0.10545,0.53907 0.15818,1.51173 0.1582,2.91797 v 4.21875 c -2e-5,2.94141 0.0674,4.80176 0.20215,5.58105 0.13475,0.7793 0.40135,1.52637 0.7998,2.24121 h -3.30468 c -0.32814,-0.65625 -0.53908,-1.42382 -0.63282,-2.30273 z m -0.26367,-7.06641 c -1.14845,0.46876 -2.8711,0.8672 -5.16797,1.19531 -1.30079,0.18751 -2.22071,0.39845 -2.75976,0.63282 -0.53907,0.23438 -0.95509,0.57715 -1.24805,1.02832 -0.29297,0.45117 -0.43946,0.95215 -0.43945,1.50293 -1e-5,0.84375 0.31933,1.54687 0.958,2.10937 0.63867,0.5625 1.57324,0.84375 2.80372,0.84375 1.21874,0 2.30272,-0.2666 3.25195,-0.7998 0.94921,-0.5332 1.64647,-1.26269 2.0918,-2.18848 0.33983,-0.71484 0.50975,-1.76952 0.50976,-3.16406 z"
       id="path4307" />
  </g>
  <g
     id="text3689-8-5-15-1"
     style="font-style:normal;font-variant:normal;font-weight:bold;font-stretch:normal;font-size:32px;line-height:125%;font-family:Arial;-inkscape-font-specification:'Arial Bold';text-align:start;writing-mode:lr-tb;text-anchor:start;fill:#000000;fill-opacity:1;stroke:none"
     transform="matrix(0.6107832,0,0,0.6107832,108.18997,-168.36784)">
    <path
       d="m -33.238911,385.98627 h -4.390625 v -8.46875 c -1.3e-5,-1.79166 -0.09376,-2.95051 -0.28125,-3.47657 -0.187512,-0.52602 -0.492199,-0.93488 -0.914062,-1.22656 -0.421887,-0.29165 -0.929699,-0.43748 -1.523438,-0.4375 -0.760426,2e-5 -1.442717,0.20835 -2.046875,0.625 -0.604174,0.41668 -1.018236,0.96876 -1.242187,1.65625 -0.223965,0.68751 -0.335944,1.95834 -0.335938,3.8125 v 7.51563 h -4.390625 v -16.59375 h 4.078125 v 2.4375 c 1.447909,-1.87499 3.270824,-2.81249 5.46875,-2.8125 0.968738,1e-5 1.854153,0.17449 2.65625,0.52343 0.802068,0.34898 1.408839,0.79429 1.820313,1.33594 0.411441,0.54168 0.6979,1.15627 0.859375,1.84375 0.161441,0.68751 0.24217,1.67189 0.242187,2.95313 z"
       id="path4292" />
  </g>
  <g
     transform="matrix(0.6107832,0,0,0.6107832,238.08995,-75.499317)"
     id="g3998">
    <path
       d="m -250.23921,214.42299 c -9.47442,-2.35664 -15.24451,-11.9476 -12.88787,-21.42202 2.35664,-9.47441 11.94761,-15.2445 21.42202,-12.88786 9.47441,2.35664 15.24451,11.94761 12.88786,21.42202 -2.34228,9.41668 -11.83737,15.18501 -21.2739,12.92403"
       transform="matrix(0.61765763,0,0,0.61765763,-101.18843,68.281077)"
       id="path3971"
       style="fill:none;stroke:#000000;stroke-width:3.23804;stroke-linecap:round;stroke-linejoin:round;stroke-miterlimit:4;stroke-dashoffset:7.8;stroke-opacity:1" />
    <g
       id="text3689-8-5-15-1-2"
       style="font-style:normal;font-variant:normal;font-weight:normal;font-stretch:normal;font-size:29.9551px;line-height:125%;font-family:Arial;-inkscape-font-specification:Arial;text-align:start;writing-mode:lr-tb;text-anchor:start;fill:#000000;fill-opacity:1;stroke:none">
      <path
         d="m -254.35825,197.21167 v -5.87986 h -5.83599 v -2.45726 h 5.83599 v -5.83598 h 2.48651 v 5.83598 h 5.83598 v 2.45726 h -5.83598 v 5.87986 z"
         id="path4289" />
    </g>
  </g>
  <g
     id="text3689-8-5-15-1-22"
     style="font-style:normal;font-variant:normal;font-weight:bold;font-stretch:normal;font-size:32px;line-height:125%;font-family:Arial;-inkscape-font-specification:'Arial Bold';text-align:start;writing-mode:lr-tb;text-anchor:start;fill:#000000;fill-opacity:1;stroke:none"
     transform="matrix(0.6107832,0,0,0.6107832,108.18997,-168.36784)">
    <path
       d="m 175.99887,366.0488 v 8.42187 c 1.41666,-1.65623 3.10937,-2.48436 5.07813,-2.48437 1.0104,10e-6 1.92186,0.18751 2.73437,0.5625 0.81249,0.37501 1.42446,0.85418 1.83594,1.4375 0.41144,0.58335 0.69269,1.22918 0.84375,1.9375 0.15102,0.70834 0.22654,1.8073 0.22656,3.29687 v 9.73438 H 182.327 v -8.76563 c -2e-5,-1.73957 -0.0833,-2.84374 -0.25,-3.3125 -0.16668,-0.46873 -0.46095,-0.84113 -0.88282,-1.11718 -0.42188,-0.27603 -0.95053,-0.41405 -1.58593,-0.41407 -0.72918,2e-5 -1.38022,0.1771 -1.95313,0.53125 -0.57292,0.35418 -0.99219,0.88804 -1.25781,1.60157 -0.26563,0.71355 -0.39845,1.76823 -0.39844,3.16406 v 8.3125 h -4.39062 V 366.0488 Z"
       id="path4285" />
  </g>
  <g
     id="text3689-8-5-15-1-22-6"
     style="font-style:normal;font-variant:normal;font-weight:bold;font-stretch:normal;font-size:32px;line-height:125%;font-family:Arial;-inkscape-font-specification:'Arial Bold';text-align:start;writing-mode:lr-tb;text-anchor:start;fill:#000000;fill-opacity:1;stroke:none"
     transform="matrix(0.6107832,0,0,0.6107832,108.18997,-168.36784)">
    <path
       d="m 406.2973,374.11877 -4.32812,0.78125 c -0.14585,-0.86457 -0.47658,-1.51561 -0.99219,-1.95312 -0.51564,-0.43749 -1.18491,-0.65624 -2.00781,-0.65625 -1.09376,10e-6 -1.96616,0.37762 -2.61719,1.13281 -0.65105,0.75522 -0.97657,2.01824 -0.97656,3.78906 -10e-6,1.96876 0.33072,3.35938 0.99218,4.17188 0.66146,0.8125 1.54948,1.21875 2.66407,1.21875 0.83332,0 1.51561,-0.23698 2.04687,-0.71094 0.53124,-0.47395 0.90624,-1.28906 1.125,-2.44531 l 4.3125,0.73437 c -0.44793,1.97917 -1.30731,3.47396 -2.57812,4.48438 -1.27085,1.01042 -2.97397,1.51562 -5.10938,1.51562 -2.42709,0 -4.36198,-0.76562 -5.80469,-2.29687 -1.44271,-1.53125 -2.16406,-3.65104 -2.16406,-6.35938 0,-2.73957 0.72396,-4.87238 2.17188,-6.39843 1.44791,-1.52603 3.40624,-2.28905 5.875,-2.28907 2.02082,2e-5 3.62759,0.43492 4.82031,1.30469 1.19269,0.86981 2.04946,2.19533 2.57031,3.97656 z"
       id="path4282" />
  </g>
  <g
     transform="matrix(0.6107832,0,0,0.6107832,192.31595,-142.09198)"
     id="g4134">
    <path
       d="m 331.54784,283.23172 -6.49884,28.0831 6.50182,-28.08307 -0.002,-2.7e-4 z"
       id="rect4388-0-3-6-2-7-0-5"
       style="fill:none;stroke:#000000;stroke-width:1.71168;stroke-linecap:round;stroke-linejoin:round;stroke-miterlimit:4;stroke-dasharray:none;stroke-dashoffset:0;stroke-opacity:1" />
    <path
       d="m 327.32449,283.23172 6.49884,28.0831 -6.50182,-28.08307 0.002,-2.7e-4 z"
       id="rect4388-0-3-6-2-7-0-5-7"
       style="fill:none;stroke:#000000;stroke-width:1.71168;stroke-linecap:round;stroke-linejoin:round;stroke-miterlimit:4;stroke-dasharray:none;stroke-dashoffset:0;stroke-opacity:1" />
    <path
       d="m 329.34455,283.87235 c -2.16558,-1.21199 -3.48446,-6.14449 -2.94579,-11.01704 0.53866,-4.87256 2.73088,-7.84003 4.89646,-6.62805 2.16558,1.21199 3.48446,6.14449 2.9458,11.01704 -0.53538,4.84287 -2.70569,7.80943 -4.86261,6.64664"
       transform="matrix(0.66561974,0.07652787,-0.05459963,0.47489351,127.99544,123.95)"
       id="path4053"
       style="fill:#ffffff;fill-opacity:1;stroke:#000000;stroke-width:2;stroke-linecap:round;stroke-linejoin:round;stroke-miterlimit:4;stroke-dashoffset:7.8;stroke-opacity:1" />
    <path
       d="m 329.34455,283.87235 c -2.16558,-1.21199 -3.48446,-6.14449 -2.94579,-11.01704 0.53866,-4.87256 2.73088,-7.84003 4.89646,-6.62805 2.16558,1.21199 3.48446,6.14449 2.9458,11.01704 -0.53538,4.84287 -2.70569,7.80943 -4.86261,6.64664"
       transform="matrix(-0.66561974,0.07652787,0.05459963,0.47489351,530.75028,123.95)"
       id="path4053-6"
       style="fill:#ffffff;fill-opacity:1;stroke:#000000;stroke-width:2;stroke-linecap:round;stroke-linejoin:round;stroke-miterlimit:4;stroke-dashoffset:7.8;stroke-opacity:1" />
  </g>
  <g
     id="text3689-8-5-15-1-22-6-1"
     style="font-style:normal;font-variant:normal;font-weight:normal;font-stretch:normal;font-size:23.7183px;line-height:125%;font-family:Arial;-inkscape-font-specification:Arial;text-align:start;writing-mode:lr-tb;text-anchor:start;fill:#000000;fill-opacity:1;stroke:none"
     transform="matrix(0.6107832,0,0,0.6107832,108.18997,-168.36784)">
    <path
       d="m 437.97044,303.84061 2.11935,-0.18529 c 0.10037,0.84929 0.33392,1.54609 0.70066,2.0904 0.36674,0.54432 0.93614,0.9844 1.70823,1.32025 0.77207,0.33586 1.64066,0.50379 2.60576,0.50378 0.857,10e-6 1.61364,-0.12739 2.26991,-0.38218 0.65626,-0.25478 1.1446,-0.60414 1.46502,-1.04809 0.3204,-0.44394 0.48061,-0.92842 0.48062,-1.45344 -1e-5,-0.53273 -0.15443,-0.99791 -0.46325,-1.39553 -0.30884,-0.39762 -0.81841,-0.73154 -1.52871,-1.00177 -0.45554,-0.17757 -1.4631,-0.45359 -3.02269,-0.82806 -1.5596,-0.37445 -2.65209,-0.72767 -3.27747,-1.05967 -0.81069,-0.42464 -1.41484,-0.95158 -1.81246,-1.58084 -0.39762,-0.62923 -0.59643,-1.33375 -0.59643,-2.11356 0,-0.85699 0.24321,-1.65802 0.72962,-2.40309 0.4864,-0.74504 1.19671,-1.31059 2.13093,-1.69665 0.93421,-0.38602 1.97266,-0.57904 3.11534,-0.57906 1.25848,2e-5 2.36834,0.20269 3.32959,0.60802 0.96122,0.40535 1.70049,1.00178 2.21779,1.78929 0.51728,0.78753 0.79523,1.67928 0.83385,2.67525 l -2.1541,0.16214 c -0.11582,-1.07318 -0.50765,-1.88386 -1.17549,-2.43205 -0.66786,-0.54816 -1.65419,-0.82225 -2.95899,-0.82226 -1.35887,1e-5 -2.34906,0.24901 -2.97057,0.74698 -0.62153,0.49801 -0.93229,1.0983 -0.93229,1.80087 0,0.60996 0.22004,1.11181 0.66013,1.50556 0.43236,0.39377 1.56152,0.79718 3.38749,1.21023 1.82596,0.41307 3.07866,0.77402 3.7581,1.08284 0.98824,0.45554 1.71786,1.03266 2.18884,1.73139 0.47095,0.69873 0.70644,1.50363 0.70645,2.41467 -1e-5,0.90334 -0.25866,1.75455 -0.77594,2.55365 -0.5173,0.7991 -1.26043,1.42063 -2.22938,1.86457 -0.96896,0.44395 -2.05952,0.66592 -3.27168,0.66592 -1.53644,0 -2.82388,-0.2239 -3.86232,-0.67171 -1.03845,-0.4478 -1.85299,-1.12144 -2.44363,-2.02092 -0.59064,-0.89946 -0.9014,-1.91668 -0.93228,-3.05164 z"
       id="path4269" />
    <path
       d="m 454.57784,309.29535 v -16.97801 h 6.4044 c 1.12722,2e-5 1.98809,0.0541 2.5826,0.16214 0.83383,0.13899 1.53256,0.40343 2.09619,0.79331 0.5636,0.38992 1.0172,0.93616 1.36079,1.63874 0.34356,0.7026 0.51535,1.47468 0.51536,2.31623 -10e-6,1.4438 -0.4594,2.66561 -1.37816,3.66545 -0.91878,0.99984 -2.57875,1.49976 -4.9799,1.49976 h -4.35453 v 6.90238 z m 2.24675,-8.90593 h 4.38927 c 1.4515,1e-5 2.48222,-0.27021 3.09217,-0.81068 0.60993,-0.54044 0.9149,-1.30094 0.91492,-2.28149 -2e-5,-0.7103 -0.17952,-1.31831 -0.53853,-1.82404 -0.35903,-0.50569 -0.83192,-0.83962 -1.41869,-1.00177 -0.37833,-0.10035 -1.07706,-0.15054 -2.0962,-0.15055 h -4.34294 z"
       id="path4271" />
    <path
       d="m 478.18028,307.77821 c -0.77208,0.65627 -1.51521,1.11952 -2.22937,1.38975 -0.71418,0.27022 -1.48047,0.40534 -2.29887,0.40534 -1.35114,0 -2.38958,-0.33007 -3.11533,-0.99019 -0.72576,-0.66013 -1.08864,-1.50362 -1.08863,-2.53049 -1e-5,-0.60222 0.13704,-1.15232 0.41113,-1.65032 0.27408,-0.49798 0.6331,-0.89753 1.07705,-1.19865 0.44394,-0.3011 0.94386,-0.52887 1.49976,-0.68329 0.4092,-0.10808 1.02686,-0.21231 1.85299,-0.31269 1.68312,-0.20073 2.92231,-0.44008 3.71756,-0.71803 0.008,-0.28567 0.0116,-0.4671 0.0116,-0.54432 -10e-6,-0.84928 -0.19689,-1.44764 -0.59064,-1.79508 -0.53275,-0.47096 -1.32413,-0.70644 -2.37415,-0.70645 -0.98054,1e-5 -1.70436,0.17179 -2.17147,0.51536 -0.46711,0.34358 -0.81261,0.95159 -1.03651,1.82403 l -2.03829,-0.27794 c 0.1853,-0.87244 0.49027,-1.57696 0.91491,-2.11357 0.42465,-0.53658 1.03845,-0.94964 1.84141,-1.23918 0.80296,-0.28952 1.73331,-0.43429 2.79107,-0.4343 1.05001,1e-5 1.90316,0.12355 2.55944,0.3706 0.65625,0.24708 1.1388,0.55784 1.44764,0.93228 0.30882,0.37447 0.525,0.84737 0.64855,1.4187 0.0695,0.35516 0.10422,0.99599 0.10423,1.92247 v 2.77949 c -10e-6,1.93792 0.0444,3.16359 0.13318,3.67702 0.0888,0.51343 0.26443,1.00563 0.52695,1.4766 h -2.17726 c -0.2162,-0.43236 -0.35517,-0.93808 -0.41693,-1.51714 z m -0.17371,-4.65563 c -0.75665,0.30884 -1.8916,0.57135 -3.40487,0.78752 -0.85701,0.12354 -1.46309,0.26251 -1.81825,0.41692 -0.35516,0.15442 -0.62924,0.38026 -0.82226,0.6775 -0.19302,0.29726 -0.28953,0.62732 -0.28953,0.99019 0,0.5559 0.21039,1.01915 0.63118,1.38974 0.42077,0.3706 1.03651,0.5559 1.84719,0.5559 0.80296,0 1.51713,-0.17564 2.14252,-0.52694 0.62538,-0.3513 1.08476,-0.83191 1.37816,-1.44186 0.22389,-0.47096 0.33585,-1.16583 0.33586,-2.08461 z"
       id="path4273" />
    <path
       d="m 482.52322,305.62412 2.06145,-0.32428 c 0.11581,0.82613 0.43815,1.45923 0.96703,1.89932 0.52887,0.44008 1.26814,0.66012 2.2178,0.66012 0.95737,0 1.66768,-0.19494 2.13093,-0.58485 0.46324,-0.38989 0.69487,-0.84735 0.69487,-1.37237 0,-0.47096 -0.20461,-0.84156 -0.6138,-1.11179 -0.28568,-0.18529 -0.99599,-0.42078 -2.13093,-0.70645 -1.52872,-0.38603 -2.5884,-0.71996 -3.17904,-1.00177 -0.59064,-0.2818 -1.03845,-0.6717 -1.34341,-1.1697 -0.30498,-0.49798 -0.45746,-1.04809 -0.45746,-1.65032 0,-0.54816 0.12546,-1.05581 0.37639,-1.52292 0.25092,-0.4671 0.59257,-0.85507 1.02493,-1.16391 0.32427,-0.23933 0.76629,-0.442 1.32605,-0.60801 0.55975,-0.16599 1.16004,-0.24899 1.80087,-0.249 0.96509,1e-5 1.81245,0.13899 2.54207,0.41692 0.7296,0.27796 1.26813,0.65435 1.61557,1.12917 0.34743,0.47484 0.58677,1.10987 0.71803,1.9051 l -2.03828,0.27795 c -0.0927,-0.63309 -0.36096,-1.12722 -0.80489,-1.48239 -0.44396,-0.35515 -1.07127,-0.53272 -1.88195,-0.53273 -0.95738,10e-6 -1.64067,0.15828 -2.04986,0.47482 -0.40921,0.31657 -0.61381,0.68716 -0.61381,1.1118 0,0.27023 0.0849,0.51344 0.25479,0.72961 0.16985,0.22391 0.43622,0.40921 0.7991,0.5559 0.20846,0.0772 0.82226,0.25479 1.84141,0.53273 1.47466,0.39377 2.50345,0.71611 3.08638,0.96703 0.58291,0.25093 1.04037,0.61574 1.37237,1.09442 0.33198,0.47869 0.49798,1.07319 0.49799,1.7835 -10e-6,0.69488 -0.20268,1.34921 -0.60801,1.96301 -0.40535,0.6138 -0.9902,1.08863 -1.75455,1.42449 -0.76436,0.33585 -1.62909,0.50378 -2.59418,0.50378 -1.59821,0 -2.81616,-0.332 -3.65386,-0.99598 -0.83771,-0.66399 -1.37237,-1.64839 -1.604,-2.9532 z"
       id="path4275" />
    <path
       d="m 503.63571,305.33459 2.1541,0.26636 c -0.33973,1.25849 -0.96897,2.23517 -1.88774,2.93004 -0.91878,0.69487 -2.09234,1.04231 -3.52067,1.04231 -1.79895,0 -3.22536,-0.55397 -4.27925,-1.6619 -1.05389,-1.10793 -1.58083,-2.66174 -1.58083,-4.66143 0,-2.06916 0.53273,-3.67508 1.5982,-4.81776 1.06547,-1.14267 2.44749,-1.71401 4.14606,-1.71402 1.64452,1e-5 2.98794,0.55977 4.03025,1.67927 1.0423,1.11953 1.56345,2.69456 1.56346,4.72512 -10e-6,0.12354 -0.004,0.30884 -0.0116,0.5559 h -9.17229 c 0.0772,1.35114 0.45938,2.38572 1.14654,3.10375 0.68714,0.71804 1.54415,1.07705 2.57102,1.07705 0.76435,0 1.41675,-0.20074 1.95722,-0.60222 0.54044,-0.40148 0.96895,-1.0423 1.28551,-1.92247 z m -6.84448,-3.37013 h 6.86764 c -0.0927,-1.03457 -0.35517,-1.81051 -0.78752,-2.32781 -0.664,-0.80295 -1.52486,-1.20443 -2.5826,-1.20444 -0.95739,10e-6 -1.76228,0.32042 -2.41468,0.96123 -0.65241,0.64084 -1.01335,1.49784 -1.08284,2.57102 z"
       id="path4277" />
  </g>
  <path
     d="m 398.45667,62.260262 h -10.74848 l 10.74848,0.0037 z"
     id="rect4388-0-3-6-2-7-0-9"
     style="fill:none;stroke:#000000;stroke-width:1.21904;stroke-linecap:round;stroke-linejoin:round;stroke-miterlimit:4;stroke-dasharray:none;stroke-dashoffset:0;stroke-opacity:1" />
  <path
     d="m 378.26778,133.19471 7.17823,-2.59418 -6.94717,-2.91704 1.32198,2.8107 z"
     id="path2556-1-6-4-9-7-0-2-87"
     style="fill:#000000;fill-opacity:1;fill-rule:evenodd;stroke:#000000;stroke-width:1.18264;stroke-linecap:round;stroke-linejoin:miter;stroke-miterlimit:10;stroke-dasharray:none;stroke-opacity:1" />
  <path
     d="M 168.25143,130.36579 H 51.793207 l 116.458223,3.2e-4 z"
     id="rect4388-0-3-6-2-7-7"
     style="fill:none;stroke:#000000;stroke-width:1.22246;stroke-linecap:round;stroke-linejoin:round;stroke-miterlimit:4;stroke-dasharray:none;stroke-dashoffset:0;stroke-opacity:1" />
  <path
     d="M 381.50201,130.36579 H 265.0438 l 116.45821,3.2e-4 z"
     id="rect4388-0-3-6-2-7-7-9"
     style="fill:none;stroke:#000000;stroke-width:1.22246;stroke-linecap:round;stroke-linejoin:round;stroke-miterlimit:4;stroke-dasharray:none;stroke-dashoffset:0;stroke-opacity:1" />
  <path
     d="m 56.813318,132.92555 -7.178229,-2.59418 6.94717,-2.91704 -1.321979,2.8107 z"
     id="path2556-1-6-4-9-7-0-2-87-5"
     style="fill:#000000;fill-opacity:1;fill-rule:evenodd;stroke:#000000;stroke-width:1.18264;stroke-linecap:round;stroke-linejoin:miter;stroke-miterlimit:10;stroke-dasharray:none;stroke-opacity:1"
     inkscape:export-filename="signal_sequence.png"
     inkscape:export-xdpi="96"
     inkscape:export-ydpi="96" />
</svg>
