<?xml version="1.0" encoding="UTF-8" standalone="no"?>
<!-- Generator: Adobe Illustrator 16.0.0, SVG Export Plug-In . SVG Version: 6.00 Build 0)  -->

<svg
   version="1.1"
   id="Layer_1"
   x="0px"
   y="0px"
   width="1280px"
   height="800px"
   viewBox="0 0 1280 800"
   enable-background="new 0 0 1280 800"
   xml:space="preserve"
   sodipodi:docname="splicing.svg"
   inkscape:version="1.4.4 (dcaf3e7d9e, 2026-05-05)"
   inkscape:export-filename="splicing.png"
   inkscape:export-xdpi="96"
   inkscape:export-ydpi="96"
   xmlns:inkscape="http://www.inkscape.org/namespaces/inkscape"
   xmlns:sodipodi="http://sodipodi.sourceforge.net/DTD/sodipodi-0.dtd"
   xmlns="http://www.w3.org/2000/svg"
   xmlns:svg="http://www.w3.org/2000/svg"><defs
   id="defs32" /><sodipodi:namedview
   id="namedview32"
   pagecolor="#ffffff"
   bordercolor="#000000"
   borderopacity="0.25"
   inkscape:showpageshadow="2"
   inkscape:pageopacity="0.0"
   inkscape:pagecheckerboard="0"
   inkscape:deskcolor="#d1d1d1"
   inkscape:zoom="0.61065027"
   inkscape:cx="802.42329"
   inkscape:cy="192.41783"
   inkscape:window-width="1854"
   inkscape:window-height="1131"
   inkscape:window-x="0"
   inkscape:window-y="0"
   inkscape:window-maximized="1"
   inkscape:current-layer="g32" />
<g
   id="g32">
	<switch
   id="switch1"><text
     transform="matrix(1 0 0 1 116.4058 130.4395)"
     fill="#542437"
     font-family="'MyriadPro-Semibold'"
     font-size="36"
     id="trsvg22-ca"
     systemLanguage="ca"><tspan
       id="trsvg1-ca">pre-mRNA</tspan></text><text
     transform="matrix(1 0 0 1 116.4058 130.4395)"
     fill="#542437"
     font-family="'MyriadPro-Semibold'"
     font-size="36"
     id="trsvg22"
     style="fill:#000000;fill-opacity:1"><tspan
       id="trsvg1"
       style="fill:#000000;fill-opacity:1">pre-mRNA</tspan></text></switch>
	<line
   fill="none"
   stroke="#542437"
   stroke-width="3"
   stroke-miterlimit="10"
   x1="301"
   y1="121.5"
   x2="1147"
   y2="121.5"
   id="line1"
   style="stroke:#000000;stroke-opacity:1" />
	<rect
   x="579"
   y="109"
   fill="#FFFFFF"
   width="37"
   height="27"
   id="rect1" />
	<rect
   x="359"
   y="108"
   fill="#C02942"
   width="220"
   height="27"
   id="rect2"
   style="fill:#950e4f;fill-opacity:1" />
	<rect
   x="860"
   y="109"
   fill="#C02942"
   width="224"
   height="27"
   id="rect3"
   style="fill:#950e4f;fill-opacity:1" />
	<g
   id="g3">
		<switch
   id="switch3"><text
     transform="matrix(1 0 0 1 463.7939 101.4395)"
     fill="#542437"
     font-family="'MyriadPro-Semibold'"
     font-size="24"
     id="trsvg23-ca"
     systemLanguage="ca"><tspan
       id="trsvg2-ca">Exó</tspan></text><text
     transform="matrix(1 0 0 1 463.7939 101.4395)"
     fill="#542437"
     font-family="'MyriadPro-Semibold'"
     font-size="24"
     id="trsvg23"
     style="fill:#000000;fill-opacity:1"><tspan
       id="trsvg2"
       style="fill:#000000;fill-opacity:1">Exon</tspan></text></switch>
	</g>
	<g
   id="g4">
		<switch
   id="switch4"><text
     transform="matrix(1 0 0 1 933.7939 100.4395)"
     fill="#542437"
     font-family="'MyriadPro-Semibold'"
     font-size="24"
     id="trsvg24-ca"
     systemLanguage="ca"><tspan
       id="trsvg3-ca">Exó</tspan></text><text
     transform="matrix(1 0 0 1 933.7939 100.4395)"
     fill="#542437"
     font-family="'MyriadPro-Semibold'"
     font-size="24"
     id="trsvg24"
     style="fill:#000000;fill-opacity:1"><tspan
       id="trsvg3"
       style="fill:#000000;fill-opacity:1">Exon</tspan></text></switch>
	</g>
	<g
   id="g5">
		<switch
   id="switch5"><text
     transform="matrix(1 0 0 1 686.7939 92.4395)"
     fill="#542437"
     font-family="'MyriadPro-Semibold'"
     font-size="24"
     id="trsvg25-ca"
     systemLanguage="ca"><tspan
       id="trsvg4-ca">Intró</tspan></text><text
     transform="matrix(1 0 0 1 686.7939 92.4395)"
     fill="#542437"
     font-family="'MyriadPro-Semibold'"
     font-size="24"
     id="trsvg25"
     style="fill:#000000;fill-opacity:1"><tspan
       id="trsvg4"
       style="fill:#000000;fill-opacity:1">Intron</tspan></text></switch>
	</g>
	<switch
   id="switch6"><text
     transform="matrix(1 0 0 1 827.7939 131.6084)"
     fill="#FFFFFF"
     font-family="'MyriadPro-Semibold'"
     font-size="24"
     id="trsvg26-ca"
     systemLanguage="ca"><tspan
       id="trsvg5-ca">AG</tspan></text><text
     transform="matrix(1 0 0 1 827.7939 131.6084)"
     fill="#FFFFFF"
     font-family="'MyriadPro-Semibold'"
     font-size="24"
     id="trsvg26"><tspan
       id="trsvg5">AG</tspan></text></switch>
	<switch
   id="switch7"><text
     transform="matrix(1 0 0 1 581.4312 130.4834)"
     font-family="'MyriadPro-Semibold'"
     font-size="24"
     id="trsvg27-ca"
     systemLanguage="ca"><tspan
       id="trsvg6-ca">GU</tspan></text><text
     transform="matrix(1 0 0 1 581.4312 130.4834)"
     font-family="'MyriadPro-Semibold'"
     font-size="24"
     id="trsvg27"><tspan
       id="trsvg6">GU</tspan></text></switch>
	<g
   id="g9">
		<g
   id="g8">
			<path
   fill="none"
   stroke="#D95B43"
   stroke-width="3"
   stroke-miterlimit="10"
   d="M753.197,138.939     c-40.152,40.153-103.298,43.125-146.854,8.917"
   id="path7"
   style="stroke:#bf1266;stroke-opacity:1" />
			<g
   id="g7">
				<polygon
   fill="#D95B43"
   points="616.672,145.594 608.537,149.566 605.749,158.178 596.294,138.939     "
   id="polygon7"
   style="fill:#bf1266;fill-opacity:1" />
			</g>
		</g>
	</g>
	<rect
   x="824"
   y="110"
   fill="#FFFFFF"
   width="36"
   height="27"
   id="rect9" />
	<switch
   id="switch9"><text
     transform="matrix(1 0 0 1 826.4316 131.2334)"
     font-family="'MyriadPro-Semibold'"
     font-size="24"
     id="trsvg28-ca"
     systemLanguage="ca"><tspan
       id="trsvg7-ca">AG</tspan></text><text
     transform="matrix(1 0 0 1 826.4316 131.2334)"
     font-family="'MyriadPro-Semibold'"
     font-size="24"
     id="trsvg28"><tspan
       id="trsvg7">AG</tspan></text></switch>
	<rect
   x="756"
   y="111"
   fill="#FFFFFF"
   width="23"
   height="27"
   id="rect10" />
	<switch
   id="switch10"><text
     transform="matrix(1 0 0 1 759.5469 132.4395)"
     font-family="'MyriadPro-Semibold'"
     font-size="24"
     id="trsvg29-ca"
     systemLanguage="ca"><tspan
       id="trsvg8-ca">A</tspan></text><text
     transform="matrix(1 0 0 1 759.5469 132.4395)"
     font-family="'MyriadPro-Semibold'"
     font-size="24"
     id="trsvg29"><tspan
       id="trsvg8">A</tspan></text></switch>
	<line
   fill="none"
   stroke="#542437"
   stroke-width="3"
   stroke-miterlimit="10"
   x1="771"
   y1="399.5"
   x2="1151"
   y2="399.5"
   id="line10"
   style="stroke:#000000;stroke-opacity:1" />
	<rect
   x="864"
   y="387"
   fill="#C02942"
   width="224"
   height="27"
   id="rect11"
   style="fill:#950e4f;fill-opacity:1" />
	<switch
   id="switch11"><text
     transform="matrix(1 0 0 1 831.7939 409.6084)"
     fill="#FFFFFF"
     font-family="'MyriadPro-Semibold'"
     font-size="24"
     id="trsvg30-ca"
     systemLanguage="ca"><tspan
       id="trsvg9-ca">AG</tspan></text><text
     transform="matrix(1 0 0 1 831.7939 409.6084)"
     fill="#FFFFFF"
     font-family="'MyriadPro-Semibold'"
     font-size="24"
     id="trsvg30"><tspan
       id="trsvg9">AG</tspan></text></switch>
	<rect
   x="828"
   y="388"
   fill="#FFFFFF"
   width="36"
   height="27"
   id="rect12" />
	<switch
   id="switch12"><text
     transform="matrix(1 0 0 1 830.4316 409.2334)"
     font-family="'MyriadPro-Semibold'"
     font-size="24"
     id="trsvg31-ca"
     systemLanguage="ca"><tspan
       id="trsvg10-ca">AG</tspan></text><text
     transform="matrix(1 0 0 1 830.4316 409.2334)"
     font-family="'MyriadPro-Semibold'"
     font-size="24"
     id="trsvg31"><tspan
       id="trsvg10">AG</tspan></text></switch>
	<rect
   x="760"
   y="389"
   fill="#FFFFFF"
   width="23"
   height="27"
   id="rect13" />
	<switch
   id="switch13"><text
     transform="matrix(1 0 0 1 763.5469 410.4395)"
     font-family="'MyriadPro-Semibold'"
     font-size="24"
     id="trsvg32-ca"
     systemLanguage="ca"><tspan
       id="trsvg11-ca">A</tspan></text><text
     transform="matrix(1 0 0 1 763.5469 410.4395)"
     font-family="'MyriadPro-Semibold'"
     font-size="24"
     id="trsvg32"><tspan
       id="trsvg11">A</tspan></text></switch>
	<line
   fill="none"
   stroke="#542437"
   stroke-width="3"
   stroke-miterlimit="10"
   x1="298"
   y1="399.5"
   x2="486"
   y2="399.5"
   id="line13"
   style="stroke:#000000;stroke-opacity:1" />
	<rect
   x="363"
   y="386"
   fill="#C02942"
   width="220"
   height="27"
   id="rect14"
   style="fill:#950e4f;fill-opacity:1" />
	<path
   fill="none"
   stroke="#000000"
   stroke-width="3"
   stroke-miterlimit="10"
   d="M772.896,454.47   c0,28.167-22.885,50.985-51.051,50.985s-51.026-22.811-51.026-50.978c0-28.166,22.809-50.978,50.975-50.978H758"
   id="path14" />
	<rect
   x="755"
   y="422"
   fill="#FFFFFF"
   width="31"
   height="39"
   id="rect15" />
	<switch
   id="switch15"><text
     transform="matrix(-4.371139e-08 1 -1 -4.371139e-08 764.3711 425.457)"
     font-family="'MyriadPro-Semibold'"
     font-size="24"
     id="trsvg33-ca"
     systemLanguage="ca"><tspan
       id="trsvg12-ca">GU</tspan></text><text
     transform="matrix(-4.371139e-08 1 -1 -4.371139e-08 764.3711 425.457)"
     font-family="'MyriadPro-Semibold'"
     font-size="24"
     id="trsvg33"><tspan
       id="trsvg12">GU</tspan></text></switch>
	<line
   fill="none"
   stroke="#000000"
   stroke-width="3"
   stroke-miterlimit="10"
   x1="771.5"
   y1="413"
   x2="771.5"
   y2="423"
   id="line15" />
	<g
   id="g17">
		<g
   id="g16">
			<path
   fill="none"
   stroke="#D95B43"
   stroke-width="3"
   stroke-miterlimit="10"
   d="M589.295,386.941     c70.319-70.321,182.237-73.376,256.171-9.164"
   id="path15"
   style="stroke:#bf1266;stroke-opacity:1" />
			<g
   id="g15">
				<polygon
   fill="#D95B43"
   points="835.1,379.751 843.337,375.996 846.352,367.459 855.295,386.941     "
   id="polygon15"
   style="fill:#bf1266;fill-opacity:1" />
			</g>
		</g>
	</g>
	<g
   id="g21">
		<switch
   id="switch17"><text
     transform="matrix(1 0 0 1 1131.7939 631.7207)"
     fill="#FFFFFF"
     font-family="'MyriadPro-Semibold'"
     font-size="24"
     id="trsvg34-ca"
     systemLanguage="ca"><tspan
       id="trsvg13-ca">AG</tspan></text><text
     transform="matrix(1 0 0 1 1131.7939 631.7207)"
     fill="#FFFFFF"
     font-family="'MyriadPro-Semibold'"
     font-size="24"
     id="trsvg34"><tspan
       id="trsvg13">AG</tspan></text></switch>
		<rect
   x="1128"
   y="610"
   fill="#FFFFFF"
   width="36"
   height="27"
   id="rect17" />
		<switch
   id="switch18"><text
     transform="matrix(1 0 0 1 1130.4316 631.3457)"
     font-family="'MyriadPro-Semibold'"
     font-size="24"
     id="trsvg35-ca"
     systemLanguage="ca"><tspan
       id="trsvg14-ca">AG</tspan></text><text
     transform="matrix(1 0 0 1 1130.4316 631.3457)"
     font-family="'MyriadPro-Semibold'"
     font-size="24"
     id="trsvg35"><tspan
       id="trsvg14">AG</tspan></text></switch>
		<rect
   x="1060"
   y="611"
   fill="#FFFFFF"
   width="23"
   height="27"
   id="rect18" />
		<switch
   id="switch19"><text
     transform="matrix(1 0 0 1 1063.5469 632.5518)"
     font-family="'MyriadPro-Semibold'"
     font-size="24"
     id="trsvg36-ca"
     systemLanguage="ca"><tspan
       id="trsvg15-ca">A</tspan></text><text
     transform="matrix(1 0 0 1 1063.5469 632.5518)"
     font-family="'MyriadPro-Semibold'"
     font-size="24"
     id="trsvg36"><tspan
       id="trsvg15">A</tspan></text></switch>
		<path
   fill="none"
   stroke="#000000"
   stroke-width="3"
   stroke-miterlimit="10"
   d="M1072.896,676.526    c0,28.166-22.885,51.013-51.051,51.013s-51.026-22.853-51.026-51.02c0-28.166,22.809-51.02,50.975-51.02H1058"
   id="path19" />
		<rect
   x="1055"
   y="644"
   fill="#FFFFFF"
   width="31"
   height="39"
   id="rect19" />
		
			<switch
   id="switch20"><text
     transform="matrix(-4.371139e-08 1 -1 -4.371139e-08 1064.3711 647.5684)"
     font-family="'MyriadPro-Semibold'"
     font-size="24"
     id="trsvg37-ca"
     systemLanguage="ca"><tspan
       id="trsvg16-ca">GU</tspan></text><text
     transform="matrix(-4.371139e-08 1 -1 -4.371139e-08 1064.3711 647.5684)"
     font-family="'MyriadPro-Semibold'"
     font-size="24"
     id="trsvg37"><tspan
       id="trsvg16">GU</tspan></text></switch>
		<line
   fill="none"
   stroke="#000000"
   stroke-width="3"
   stroke-miterlimit="10"
   x1="1071.5"
   y1="635"
   x2="1071.5"
   y2="645"
   id="line20" />
		<line
   fill="none"
   stroke="#542437"
   stroke-width="3"
   stroke-miterlimit="10"
   x1="1085"
   y1="625.5"
   x2="1128"
   y2="625.5"
   id="line21"
   style="stroke:#000000;stroke-opacity:1" />
	</g>
	<g
   id="g24">
		<g
   id="g22">
			<line
   fill="none"
   stroke="#542437"
   stroke-width="3"
   stroke-miterlimit="10"
   x1="648"
   y1="667.5"
   x2="857"
   y2="667.5"
   id="line22"
   style="stroke:#000000;stroke-opacity:1" />
			<rect
   x="570"
   y="655"
   fill="#C02942"
   width="224"
   height="27"
   id="rect22"
   style="fill:#950e4f;fill-opacity:1" />
		</g>
		<line
   fill="none"
   stroke="#542437"
   stroke-width="3"
   stroke-miterlimit="10"
   x1="285"
   y1="668.5"
   x2="473"
   y2="668.5"
   id="line23"
   style="stroke:#000000;stroke-opacity:1" />
		<rect
   x="350"
   y="655"
   fill="#C02942"
   width="220"
   height="27"
   id="rect23"
   style="fill:#950e4f;fill-opacity:1" />
		<line
   fill="none"
   stroke="#542437"
   stroke-width="3"
   stroke-miterlimit="10"
   x1="564.5"
   y1="655"
   x2="564.5"
   y2="680"
   id="line24"
   style="stroke:#000000;stroke-opacity:1" />
	</g>
	<switch
   id="switch24"><text
     transform="matrix(1 0 0 1 896.7939 682.9238)"
     font-family="'MyriadPro-Semibold'"
     font-size="48"
     id="trsvg38-ca"
     systemLanguage="ca"><tspan
       id="trsvg17-ca">+</tspan></text><text
     transform="matrix(1 0 0 1 896.7939 682.9238)"
     font-family="'MyriadPro-Semibold'"
     font-size="48"
     id="trsvg38"><tspan
       id="trsvg17">+</tspan></text></switch>
	<g
   id="g27">
		<g
   id="g26">
			<line
   fill="none"
   stroke="#542437"
   stroke-width="6"
   stroke-miterlimit="10"
   x1="724"
   y1="206"
   x2="724"
   y2="270"
   id="line25"
   style="stroke:#000000;stroke-opacity:1" />
			<g
   id="g25">
				<polygon
   fill="#542437"
   points="723.794,291.439 711.598,261.592 723.794,268.674 735.987,261.592     "
   id="polygon25"
   style="fill:#000000;fill-opacity:1" />
			</g>
		</g>
	</g>
	<g
   id="g30">
		<g
   id="g29">
			<line
   fill="none"
   stroke="#542437"
   stroke-width="6"
   stroke-miterlimit="10"
   x1="724"
   y1="540"
   x2="724"
   y2="604"
   id="line27"
   style="stroke:#000000;stroke-opacity:1" />
			<g
   id="g28">
				<polygon
   fill="#542437"
   points="723.794,625.439 711.598,595.592 723.794,602.674 735.987,595.592     "
   id="polygon27"
   style="fill:#000000;fill-opacity:1" />
			</g>
		</g>
	</g>
	<switch
   id="switch30"><text
     transform="matrix(1 0 0 1 142.6846 658.4395)"
     id="trsvg39-ca"
     systemLanguage="ca"><tspan
       x="0"
       y="0"
       fill="#542437"
       font-family="'MyriadPro-Semibold'"
       font-size="36"
       id="trsvg18-ca">mRNA</tspan><tspan
       x="5.976"
       y="43.2"
       fill="#542437"
       font-family="'MyriadPro-Semibold'"
       font-size="36"
       id="trsvg19-ca">empalmat</tspan></text><text
     transform="matrix(1 0 0 1 142.6846 658.4395)"
     id="trsvg39"><tspan
       x="0"
       y="0"
       fill="#542437"
       font-family="'MyriadPro-Semibold'"
       font-size="36"
       id="trsvg18">spliced</tspan><tspan
       x="5.976"
       y="43.2"
       fill="#542437"
       font-family="'MyriadPro-Semibold'"
       font-size="36"
       id="trsvg19">mRNA</tspan></text></switch>
	<switch
   id="switch31"><text
     transform="matrix(1 0 0 1 659.9375 197.4395)"
     fill="#D95B43"
     font-family="'MyriadPro-Semibold'"
     font-size="24"
     id="trsvg40-ca"
     systemLanguage="ca"><tspan
       id="trsvg20-ca">(1)</tspan></text><text
     transform="matrix(1 0 0 1 659.9375 197.4395)"
     fill="#D95B43"
     font-family="'MyriadPro-Semibold'"
     font-size="24"
     id="trsvg40"
     style="fill:#bf1266;fill-opacity:1"><tspan
       id="trsvg20"
       style="fill:#bf1266;fill-opacity:1">(1)</tspan></text></switch>
	<switch
   id="switch32"><text
     transform="matrix(1 0 0 1 701.9375 358.4395)"
     fill="#D95B43"
     font-family="'MyriadPro-Semibold'"
     font-size="24"
     id="trsvg41-ca"
     systemLanguage="ca"><tspan
       id="trsvg21-ca">(2)</tspan></text><text
     transform="matrix(1 0 0 1 701.9375 358.4395)"
     fill="#D95B43"
     font-family="'MyriadPro-Semibold'"
     font-size="24"
     id="trsvg41"
     style="fill:#bf1266;fill-opacity:1"><tspan
       id="trsvg21"
       style="fill:#bf1266;fill-opacity:1">(2)</tspan></text></switch>
</g>
</svg>
